<?xml version="1.0" encoding="utf-8"?>
<!-- Generator: Adobe Illustrator 25.4.1, SVG Export Plug-In . SVG Version: 6.00 Build 0)  -->
<svg version="1.1" id="圖層_1" xmlns="http://www.w3.org/2000/svg" xmlns:xlink="http://www.w3.org/1999/xlink" x="0px" y="0px"
	 viewBox="0 0 20 20" style="enable-background:new 0 0 20 20;" xml:space="preserve">
<style type="text/css">
	.st0{fill:#050505;}
</style>
<g>
	<path class="st0" d="M1.2,1.2v3.5c3.8,0,7.3,1.5,9.9,4.1c2.7,2.7,4.1,6.2,4.1,10h3.5C18.8,9.1,10.9,1.2,1.2,1.2z"/>
	<path class="st0" d="M3.6,14.1c-1.3,0-2.4,1.1-2.4,2.4c0,1.3,1.1,2.4,2.4,2.4c1.3,0,2.4-1.1,2.4-2.4C6,15.1,4.9,14.1,3.6,14.1z"/>
	<path class="st0" d="M1.2,7.2v3.5c4.4,0,8,3.6,8.1,8.1h3.5C12.8,12.4,7.6,7.3,1.2,7.2z"/>
</g>
</svg>
