<?xml version="1.0" encoding="utf-8"?>
<!-- Generator: Adobe Illustrator 25.4.1, SVG Export Plug-In . SVG Version: 6.00 Build 0)  -->
<svg version="1.1" id="圖層_1" xmlns="http://www.w3.org/2000/svg" xmlns:xlink="http://www.w3.org/1999/xlink" x="0px" y="0px"
	 viewBox="0 0 156 42" style="enable-background:new 0 0 156 42;" xml:space="preserve">
<style type="text/css">
	.st0{fill:#066699;}
	.st1{fill-rule:evenodd;clip-rule:evenodd;fill:#066699;}
	.st2{fill:#952A28;}
	.st3{fill-rule:evenodd;clip-rule:evenodd;fill:#952A28;}
</style>
<g>
	<path class="st0" d="M21.1,0.9C10.1,0.5,0.8,8.7,0.3,19.2c-0.2,4.3,1.1,8.3,3.4,11.6c2.4,3.4,5.8,6,9.9,7.4l2.2-4.7
		c-3.1-0.9-5.8-2.8-7.6-5.3s-2.8-5.5-2.7-8.7c0.4-7.7,7.2-13.7,15.2-13.4S34.9,13,34.6,20.7c-0.1,3-1.3,5.8-3.1,8
		c-1.9,2.3-4.4,4-7.3,4.8l2.1,4.8c3.9-1.2,7.2-3.6,9.7-6.6c2.4-3,3.9-6.7,4-10.7C40.5,10.4,32,1.4,21.1,0.9 M21.1,0.8
		c11,0.5,19.6,9.5,19.1,20.1c-0.2,4.1-1.7,7.8-4.1,10.8c-2.5,3.1-5.9,5.5-9.8,6.7l0,0l0,0l-2.1-4.9v-0.1h0.1
		c2.9-0.8,5.5-2.5,7.3-4.8c1.8-2.2,2.9-5,3.1-8c0.4-7.7-5.8-14.2-13.8-14.5c-8-0.3-14.8,5.7-15.2,13.4c-0.1,3.2,0.8,6.2,2.6,8.6
		c1.8,2.5,4.5,4.4,7.6,5.3H16v0.1l-2.3,4.8l0,0l0,0c-4.1-1.4-7.6-4-10-7.4C1.3,27.6,0,23.5,0.2,19.2C0.7,8.6,10.1,0.3,21.1,0.8z"/>
	<polygon class="st0" points="15.8,33.8 16.7,34.1 16.7,34.2 16.7,34.2 15.6,38 15.5,38.1 15.5,38.1 13.8,37.4 13.8,37.3 15.5,38 
		16.6,34.2 15.7,33.9 	"/>
	<path class="st0" d="M19.7,39.7L19.7,39.7L19.7,39.7l-0.8,0.6c0,0,0,0.1-0.1,0.2c0,0,0,0,0,0.1s0,0.1,0.1,0.2
		c0,0.1,0.1,0.1,0.2,0.2c0.1,0,0.1,0,0.2,0c0.3,0,0.8-0.2,0.9-0.2L20,40.5l0,0l0,0l0.2-0.2l0.3-0.3c0,0,0-0.2-0.1-0.3
		C20.2,39.6,19.8,39.7,19.7,39.7 M19,39.1L19,39.1L19,39.1l-0.9,0.7l0,0c0,0-0.2,0.5,0.1,0.6c0.2,0.1,0.5,0,0.5,0l0.9-0.7
		c0,0,0.2-0.3,0-0.5C19.4,39,19.1,39.1,19,39.1z M18.3,38.5L18.3,38.5l-0.8,0.6c0,0.1-0.1,0.4,0,0.5c0.1,0.2,0.3,0.2,0.4,0.1L19,39
		l0,0l0,0l0,0c0.1-0.1,0.2-0.3,0-0.5l0,0c0-0.1-0.1-0.1-0.2-0.1s-0.2,0-0.3,0C18.4,38.5,18.3,38.5,18.3,38.5z M16.6,34.5
		c0,0,0.7,0.4,1,0.4c0.2,0,0.4-0.1,0.6-0.2c0.1-0.1,0.3-0.1,0.3-0.2c0,0,0-0.1,0.1-0.1c0.1-0.1,0.2-0.1,0.3-0.2c0.1,0,0.2,0,0.3,0
		c0,0,0.1,0,0.1,0.1c0.2,0.2,0.8,0.8,1,0.9c0.5-0.2,1.1-0.5,1.4-0.6s0.6,0.2,0.9,0.4c0.2,0.2,0.4,0.3,0.6,0.4c0.4,0.1,0.7,0,0.9,0
		l-0.2-0.6v-0.1H24l0.9-0.2v0.1L24,34.8l0.2,0.5v0.1l0,0l0.9,3.1l1.3-0.4v0.1L25,38.6h-0.1l0,0l-0.1-0.4c-0.2,0.1-0.6,0.2-0.9,0.5
		s-0.5,0.5-0.5,0.5c0.1,0.2,0.2,0.6-0.1,0.8c-0.2,0.1-0.4,0-0.6,0c0,0.2,0.1,0.5-0.2,0.6c-0.3,0.1-0.5,0.1-0.7,0
		c0,0.2-0.1,0.3-0.2,0.3c0-0.1-0.2-0.1-0.5-0.1l0,0c0,0.1-0.1,0.2-0.4,0.2c-0.2,0-0.4-0.1-0.5-0.1c-0.1,0.1-0.7,0.3-1,0.2
		c-0.1,0-0.2,0-0.2-0.1c-0.1,0-0.2-0.1-0.2-0.2c-0.1-0.1-0.1-0.2-0.1-0.3v-0.1v-0.1l0,0l0,0c0,0-0.3,0.2-0.6,0
		c-0.2-0.1-0.2-0.4-0.2-0.6h-0.1l0,0c0,0-0.3,0.1-0.5-0.2c-0.1-0.2-0.1-0.4,0-0.5c-0.1,0-0.5,0-0.6-0.3c-0.1-0.2-0.1-0.5,0-0.6
		c-0.1-0.1-0.3-0.3-0.4-0.4c-0.1-0.1-0.7-0.2-0.7-0.2v-0.1c0,0,0.6,0.1,0.8,0.3c0.1,0.2,0.5,0.5,0.5,0.5l0,0l0,0c0,0-0.1,0.2,0,0.5
		c0.1,0.2,0.4,0.3,0.5,0.3l0,0l0,0l0,0l0.8-0.6l0,0l0,0c0-0.1,0.1-0.3,0-0.5s-0.6-0.1-0.6-0.1L17,38.2l-0.1-0.1l0.6-0.4l0,0
		c0,0,0.6-0.1,0.8,0.2c0.1,0.2,0.1,0.3,0.1,0.5h0.1c0.1,0,0.2,0,0.3,0c0.1,0,0.2,0.1,0.2,0.1l0,0c0.2,0.2,0.1,0.4,0.1,0.5
		c0.2,0,0.4-0.1,0.6,0.1c0.2,0.2,0.1,0.4,0.1,0.5c0.2,0,0.5-0.1,0.7,0c0.2,0.2,0.1,0.4,0.1,0.4l0,0l-0.4,0.4l0,0l-0.1,0.1l0.2,0.3
		l0,0c0.1,0,0.2,0.1,0.4,0.1c0.2,0,0.3-0.1,0.3-0.2c-0.2-0.1-0.4-0.5-0.4-0.5h0.1c0,0,0.2,0.5,0.5,0.5c0.2,0,0.4,0,0.5-0.1
		s0.1-0.1,0.1-0.3l0,0l0,0l-1.4-1.5l0.1-0.1l1.3,1.6c0,0,0.4,0.3,0.7,0.1c0.3-0.2,0.1-0.6,0.1-0.6l0,0c-0.1,0-0.1-0.1-0.1-0.1l0,0
		l-1.2-1.6l0.1-0.1l1.2,1.6c0,0,0.4,0.4,0.7,0.2c0.3-0.2,0-0.7,0-0.7l-0.9-1.4c-0.1,0-0.2,0-0.3,0c-0.7-0.1-1.1-0.9-1.1-1.2
		l-0.7,0.3c0,0.1,0.1,0.3,0.1,0.5s0,0.3-0.1,0.5s-0.3,0.3-0.4,0.4h-0.1c-0.1,0-0.1,0-0.2-0.1c0,0-0.1-0.1-0.1-0.2
		c0-0.1-0.1-0.2-0.1-0.4S19,37.1,19,37.1l0,0l0,0l0.6-1.5l0,0c0,0,0.2-0.1,0.5-0.3c-0.2-0.2-0.8-0.7-1-0.9l0,0c0,0,0,0-0.1,0
		s-0.2,0-0.3,0c-0.1,0-0.2,0.1-0.2,0.1s0,0.1-0.1,0.1c0,0.1-0.2,0.2-0.3,0.3c-0.2,0.1-0.5,0.2-0.6,0.2
		C17.2,35.1,16.5,34.6,16.6,34.5L16.6,34.5z M22.5,37.6l0.9,1.3c0.1-0.1,0.2-0.3,0.5-0.5s0.8-0.4,1-0.5l-0.8-2.6
		c-0.2,0-0.6,0.1-0.9,0c-0.2-0.1-0.4-0.2-0.6-0.4c-0.3-0.2-0.6-0.4-0.9-0.4c-0.5,0.1-1.8,0.8-2,0.9l-0.6,1.4
		c0.1,0.1,0.4,0.2,0.4,0.5c0,0.1,0,0.2,0.1,0.3c0,0.1,0.1,0.1,0.1,0.2c0,0,0.1,0.1,0.1,0c0,0,0,0,0.1,0s0.3-0.2,0.4-0.3l0,0
		c0.1-0.1,0.1-0.3,0.1-0.4c-0.1-0.3-0.1-0.6-0.1-0.6l0,0l0,0l0.8-0.3h0.1v0.1c0,0,0.3,1.1,1.1,1.2c0.8,0.1,1.4-0.2,1.4-0.2l0.1,0.1
		C23.6,37.4,23.1,37.6,22.5,37.6z"/>
	<path class="st1" d="M5.3,32.9l4.1-3.6c1.7,1.9,4,3.3,6.6,4.1h0.1v0.1l-2.3,4.8l0,0l0,0C10.4,37.2,7.6,35.3,5.3,32.9"/>
	<path class="st1" d="M30.7,29.6l4.1,3.6c-2.3,2.4-5.2,4.3-8.5,5.3l0,0l0,0l-2.1-4.9v-0.1h0.1C26.7,32.8,29,31.4,30.7,29.6"/>
	<path class="st2" d="M20,3.4c-0.2,0-0.3,0.1-0.3,0.3S19.8,4,20,4c0.2,0,0.3-0.1,0.3-0.3C20.3,3.5,20.1,3.4,20,3.4 M21.2,3.1
		c-0.1,0-0.2,0.1-0.2,0.2c0,0.1,0.1,0.2,0.2,0.2s0.2-0.1,0.2-0.2C21.5,3.2,21.4,3.1,21.2,3.1z M20.8,4.5c-0.1,0-0.2,0.1-0.2,0.2
		s0.1,0.2,0.2,0.2S21,4.8,21,4.7C21,4.6,20.9,4.5,20.8,4.5z M19.1,4.5c-0.1,0-0.2,0.1-0.2,0.2s0.1,0.2,0.2,0.2s0.2-0.1,0.2-0.2
		C19.4,4.6,19.3,4.5,19.1,4.5z M18.7,3.1c-0.1,0-0.2,0.1-0.2,0.2c0,0.1,0.1,0.2,0.2,0.2s0.2-0.1,0.2-0.2C18.9,3.2,18.8,3.1,18.7,3.1
		z M19.9,2.2c-0.1,0-0.2,0.1-0.2,0.2c0,0.1,0.1,0.2,0.2,0.2s0.2-0.1,0.2-0.2C20.2,2.3,20.1,2.2,19.9,2.2z M18.2,4.7
		c0-0.2,0.1-0.4,0.2-0.6C18.2,4,18,3.8,17.9,3.6c0-0.1-0.1-0.1-0.1-0.2c0-0.1,0-0.1,0-0.2l0,0l0,0l0,0l0,0c0-0.3,0.1-0.5,0.3-0.7
		l0,0c0.2-0.2,0.4-0.3,0.7-0.3l0,0l0,0l0,0h0.1l0,0l0,0c0-0.2,0.1-0.4,0.3-0.5c0.2-0.2,0.4-0.3,0.7-0.3l0,0l0,0l0,0l0,0l0,0
		c0.3,0,0.5,0.1,0.7,0.3l0,0c0.2,0.2,0.3,0.4,0.3,0.6c0,0,0,0,0.1,0l0,0h0.1l0,0h0.1l0,0l0,0l0,0l0,0l0,0c0.3,0,0.5,0.1,0.7,0.3l0,0
		c0.2,0.2,0.3,0.4,0.4,0.7l0,0l0,0c0,0.4-0.2,0.7-0.5,0.9c0,0-0.1,0-0.1,0.1s0.1,0.1,0.1,0.2v0.1v0.1l0,0l0,0l0,0l0,0l0,0
		c0,0.3-0.1,0.5-0.3,0.7c-0.2,0.2-0.4,0.3-0.7,0.3l0,0l0,0c-0.3,0-0.5-0.1-0.7-0.3l0,0l0,0c-0.1,0.1-0.3,0.2-0.4,0.3l0,0
		c-0.1,0-0.1,0-0.2,0s-0.1,0-0.2,0l0,0l0,0c-0.4,0-0.8-0.2-0.9-0.5l0,0c0-0.1-0.1-0.1-0.1-0.2C18.2,4.9,18.2,4.8,18.2,4.7L18.2,4.7
		L18.2,4.7z M20.5,2.8l0.1-0.3c0-0.1,0-0.1,0-0.2l0,0l0,0c0-0.2-0.1-0.3-0.2-0.4l0,0c-0.1,0-0.3-0.1-0.4-0.1l0,0l0,0
		c-0.2,0-0.3,0.1-0.5,0.2c-0.1,0.1-0.2,0.3-0.2,0.4l0,0v0.1v0.3L19,2.7h-0.1h-0.1h-0.1h-0.1l0,0l0,0c-0.2,0-0.3,0.1-0.5,0.2l0,0
		C18,3,17.9,3.2,17.9,3.3l0,0l0,0v0.1v0.1c0.1,0.2,0.3,0.3,0.6,0.4h0.3c0-0.1,0-0.1,0-0.2l0,0l0,0c0-0.4,0.2-0.7,0.6-0.9l0,0
		c0.1,0,0.1-0.1,0.2-0.1s0.1,0,0.2,0l0,0l0,0l0,0l0,0l0,0C20.2,2.7,20.4,2.8,20.5,2.8z M21,4h0.3l0,0l0,0l0,0h0.1c0,0,0.1,0,0.1-0.1
		c0.2-0.1,0.3-0.3,0.3-0.6l0,0l0,0c0-0.2-0.1-0.3-0.2-0.4l0,0c-0.1-0.1-0.3-0.2-0.5-0.2l0,0l0,0l0,0H21c-0.1,0-0.2,0-0.2,0.1L20.6,3
		c0,0,0.1,0,0.1,0.1l0,0C20.9,3.3,21,3.5,21,3.8l0,0l0,0l0,0l0,0l0,0C21,3.8,21,3.9,21,4z M20,4.7L20.2,5l0,0l0,0c0,0,0,0.1,0.1,0.1
		c0,0,0,0.1,0.1,0.1c0.1,0.1,0.3,0.2,0.5,0.2l0,0l0,0c0.2,0,0.3-0.1,0.5-0.2c0.1-0.1,0.2-0.3,0.2-0.4l0,0l0,0l0,0l0,0V4.7V4.6
		c0-0.1-0.1-0.2-0.2-0.3l-0.2-0.2c-0.1,0.1-0.1,0.3-0.2,0.4C20.5,4.6,20.3,4.7,20,4.7L20,4.7L20,4.7L20,4.7L20,4.7L20,4.7L20,4.7z
		 M18.8,4.2L18.8,4.2L18.8,4.2c-0.1,0.1-0.1,0.1-0.1,0.1l0,0c-0.1,0.1-0.1,0.3-0.1,0.4l0,0v0.1c0,0,0,0.1,0.1,0.1l0,0
		c0.1,0.2,0.3,0.4,0.6,0.4l0,0l0,0l0,0l0,0h0.1h0.1l0,0c0.2-0.1,0.3-0.2,0.4-0.3l0.2-0.3c-0.3,0-0.5-0.1-0.7-0.3
		c-0.1-0.1-0.2-0.2-0.2-0.4L18.8,4.2z M20,3L20,3c-0.1,0-0.1,0-0.2,0h-0.1l0,0c-0.2,0.1-0.4,0.3-0.4,0.6l0,0l0,0
		c0,0.2,0.1,0.3,0.2,0.4c0.1,0.1,0.3,0.2,0.5,0.2l0,0l0,0l0,0l0,0c0.2,0,0.3-0.1,0.5-0.2c0.1-0.1,0.2-0.3,0.2-0.4l0,0l0,0l0,0l0,0
		c0-0.2-0.1-0.3-0.2-0.4l0,0C20.3,3.1,20.2,3.1,20,3L20,3z"/>
	<path class="st2" d="M24.5,4c-0.1,0-0.2,0-0.3,0.2c0,0.1,0,0.2,0.2,0.3c0.1,0,0.2,0,0.3-0.2C24.7,4.2,24.6,4.1,24.5,4 M25.4,4
		c-0.1,0-0.2,0-0.2,0.1s0,0.2,0.1,0.2s0.2,0,0.2-0.1C25.6,4.1,25.5,4,25.4,4z M24.8,4.9c-0.1,0-0.2,0-0.2,0.1s0,0.2,0.1,0.2
		s0.2,0,0.2-0.1C25,5,24.9,4.9,24.8,4.9z M23.7,4.6c-0.1,0-0.2,0-0.2,0.1s0,0.2,0.1,0.2s0.2,0,0.2-0.1C23.8,4.8,23.8,4.7,23.7,4.6z
		 M23.6,3.6c-0.1,0-0.2,0-0.2,0.1s0,0.2,0.1,0.2s0.2,0,0.2-0.1C23.8,3.7,23.7,3.6,23.6,3.6z M24.7,3.2c-0.1,0-0.2,0-0.2,0.1
		s0,0.2,0.1,0.2s0.2,0,0.2-0.1C24.8,3.3,24.8,3.2,24.7,3.2z M23,4.6c0-0.1,0.1-0.3,0.2-0.4c-0.1-0.1-0.2-0.3-0.3-0.4V3.7
		c0,0,0-0.1,0-0.2l0,0l0,0l0,0l0,0c0.1-0.2,0.2-0.3,0.3-0.4l0,0C23.4,3,23.6,3,23.7,3l0,0l0,0l0,0h0.1l0,0l0,0
		c0.1-0.1,0.2-0.2,0.3-0.3c0.2-0.1,0.4-0.1,0.5-0.1l0,0l0,0l0,0l0,0l0,0C25,2.7,25.2,2.8,25.3,3l0,0c0.1,0.1,0.1,0.3,0.1,0.5l0,0
		l0,0l0,0l0,0l0,0l0,0l0,0l0,0l0,0l0,0c0.2,0.1,0.3,0.2,0.4,0.3l0,0c0.1,0.2,0.1,0.3,0.1,0.5l0,0l0,0c-0.1,0.3-0.3,0.4-0.5,0.5h-0.1
		c0,0.1,0,0.1,0,0.2c0,0,0,0,0,0.1c0,0,0,0,0,0.1l0,0l0,0l0,0l0,0l0,0c-0.1,0.2-0.2,0.3-0.3,0.4c0,0.2-0.2,0.2-0.4,0.1l0,0l0,0
		c-0.2,0-0.4-0.2-0.5-0.3l0,0l0,0c-0.1,0.1-0.2,0.1-0.3,0.1l0,0h-0.1h-0.1l0,0l0,0c-0.3-0.1-0.5-0.3-0.5-0.5l0,0c0-0.1,0-0.1,0-0.2
		C23,4.7,23,4.7,23,4.6L23,4.6L23,4.6z M25,3.7l0.1-0.2V3.4l0,0l0,0c0-0.1,0-0.2-0.1-0.3l0,0c-0.1-0.1-0.2-0.2-0.3-0.2l0,0l0,0
		c-0.1,0-0.2,0-0.4,0.1c0,0-0.1,0.1-0.1,0.2l0,0l0,0v0.2L24,3.3c0,0,0,0-0.1,0l0,0l0,0c0,0,0,0-0.1,0l0,0l0,0c-0.1,0-0.2,0-0.4,0.1
		l0,0c-0.1,0-0.2,0.1-0.2,0.2l0,0l0,0v0.1v0.1c0,0.2,0.2,0.3,0.3,0.3l0.2,0.1V4.1l0,0l0,0c0.1-0.3,0.3-0.5,0.6-0.5l0,0
		c0.1,0,0.1,0,0.2,0s0.1,0,0.2,0l0,0l0,0l0,0l0,0l0,0C24.8,3.6,24.9,3.7,25,3.7z M25.1,4.6h0.2l0,0l0,0l0,0h0.1h0.1
		c0.2,0,0.3-0.2,0.3-0.3l0,0l0,0c0-0.1,0-0.2-0.1-0.3l0,0c-0.1-0.1-0.2-0.2-0.3-0.2l0,0l0,0l0,0l0,0c-0.1,0-0.1,0-0.2,0H25
		c0,0,0,0,0,0.1l0,0c0.2,0.1,0.2,0.3,0.1,0.5l0,0l0,0l0,0l0,0l0,0C25.1,4.5,25.1,4.6,25.1,4.6z M24.2,4.9l0.1,0.2l0,0l0,0
		c0,0,0,0,0,0.1c0,0,0,0,0,0.1c0.1,0.1,0.2,0.2,0.3,0.2l0,0l0,0c0.1,0,0.3,0,0.4-0.1c0.1,0,0.2-0.1,0.2-0.2l0,0l0,0l0,0l0,0l0,0l0,0
		c0-0.2,0-0.3,0-0.4l-0.1-0.2c-0.1,0.1-0.2,0.2-0.3,0.2C24.6,4.9,24.5,5,24.2,4.9L24.2,4.9L24.2,4.9L24.2,4.9L24.2,4.9L24.2,4.9
		L24.2,4.9z M23.5,4.4L23.5,4.4L23.5,4.4c-0.1,0-0.1,0-0.1,0.1l0,0c-0.1,0.1-0.1,0.1-0.2,0.3l0,0v0.1V5l0,0c0,0.2,0.2,0.3,0.3,0.4
		l0,0l0,0l0,0l0,0c0,0,0,0,0.1,0h0.1l0,0c0.1,0,0.2-0.1,0.3-0.2l0.2-0.3c-0.2-0.1-0.3-0.2-0.4-0.3s-0.1-0.2-0.1-0.3L23.5,4.4z
		 M24.6,3.8L24.6,3.8h-0.1h-0.1l0,0c-0.2,0-0.3,0.2-0.4,0.3l0,0l0,0c0,0.1,0,0.2,0.1,0.3s0.2,0.2,0.3,0.2l0,0l0,0l0,0l0,0
		c0.1,0,0.2,0,0.4-0.1C24.9,4.4,25,4.3,25,4.2l0,0l0,0l0,0l0,0c0-0.1,0-0.2-0.1-0.3l0,0C24.8,3.9,24.7,3.8,24.6,3.8L24.6,3.8z"/>
	<path class="st2" d="M28.3,5.5c-0.1-0.1-0.2,0-0.3,0.1c-0.1,0.1,0,0.2,0.1,0.3c0.1,0.1,0.2,0,0.3-0.1C28.4,5.7,28.4,5.6,28.3,5.5
		 M29.2,5.7c-0.1,0-0.2,0-0.2,0.1S29,6,29.1,6s0.2,0,0.2-0.1S29.3,5.7,29.2,5.7z M28.4,6.4c-0.1,0-0.2,0-0.2,0.1s0,0.2,0.1,0.2
		s0.2,0,0.2-0.1C28.5,6.6,28.5,6.5,28.4,6.4z M27.4,5.9c-0.1,0-0.2,0-0.2,0.1s0,0.2,0.1,0.2s0.2,0,0.2-0.1C27.5,6.1,27.4,6,27.4,5.9
		z M27.6,4.9c-0.1,0-0.2,0-0.2,0.1s0,0.2,0.1,0.2s0.2,0,0.2-0.1S27.7,4.9,27.6,4.9z M28.7,4.7c-0.1,0-0.2,0-0.2,0.1s0,0.2,0.1,0.2
		s0.2,0,0.2-0.1C28.8,4.9,28.8,4.8,28.7,4.7z M26.7,5.7c0.1-0.1,0.2-0.2,0.3-0.3c-0.1-0.1-0.2-0.3-0.2-0.5V4.8c0,0,0-0.1,0.1-0.1
		l0,0l0,0l0,0l0,0c0.1-0.2,0.3-0.3,0.4-0.3l0,0c0.2-0.1,0.4,0,0.6,0l0,0l0,0l0,0H28l0,0l0,0c0.1-0.1,0.2-0.2,0.4-0.2
		c0.2-0.1,0.4,0,0.6,0l0,0l0,0l0,0l0,0l0,0c0.2,0.1,0.3,0.2,0.3,0.4l0,0c0.1,0.2,0,0.3,0,0.5l0,0l0,0l0,0l0,0l0,0l0,0l0,0l0,0l0,0
		l0,0c0.2,0.1,0.3,0.2,0.3,0.4l0,0c0.1,0.2,0,0.4,0,0.5l0,0l0,0c-0.1,0.2-0.4,0.4-0.6,0.4h-0.1c0,0.1,0,0.1,0,0.2c0,0,0,0,0,0.1
		c0,0,0,0,0,0.1l0,0l0,0l0,0l0,0l0,0c-0.1,0.2-0.3,0.3-0.4,0.3c-0.2,0.1-0.4,0-0.6,0l0,0l0,0c-0.2-0.1-0.3-0.2-0.4-0.4l0,0l0,0
		c0,0.1-0.2,0.1-0.3,0.1l0,0h-0.1H27l0,0l0,0c-0.3-0.1-0.4-0.4-0.4-0.6l0,0c0-0.1,0-0.1,0-0.2C26.6,5.9,26.6,5.8,26.7,5.7L26.7,5.7
		L26.7,5.7z M28.8,5.3l0.1-0.1L29,5.1l0,0l0,0c0.1-0.1,0.1-0.2,0-0.3l0,0c0-0.1-0.1-0.2-0.2-0.3l0,0l0,0c-0.1-0.1-0.2-0.1-0.4,0
		c-0.1,0-0.2,0.1-0.3,0.2l0,0l0,0L28,4.9l-0.1-0.2l0,0l0,0l0,0c0,0,0,0-0.1,0l0,0l0,0c-0.1-0.1-0.2-0.1-0.4,0l0,0
		c-0.1,0-0.2,0.1-0.3,0.2l0,0l0,0V5v0.1c0,0.2,0.1,0.3,0.2,0.4l0.2,0.1c0,0,0-0.1,0.1-0.1l0,0l0,0c0.1-0.2,0.4-0.4,0.7-0.4l0,0
		c0.1,0,0.1,0,0.2,0s0.1,0,0.2,0.1l0,0l0,0l0,0l0,0l0,0C28.7,5.1,28.8,5.2,28.8,5.3z M28.7,6.2l0.2,0.1l0,0l0,0l0,0H29h0.1
		c0.2,0,0.3-0.1,0.4-0.2l0,0l0,0c0.1-0.1,0.1-0.2,0-0.3l0,0c0-0.1-0.1-0.2-0.2-0.3l0,0l0,0l0,0l0,0c-0.1,0-0.1,0-0.2,0h-0.2
		c0,0,0,0,0,0.1l0,0c0.1,0.2,0,0.4,0,0.5l0,0l0,0l0,0l0,0l0,0C28.8,6.1,28.7,6.1,28.7,6.2z M27.8,6.3v0.2l0,0l0,0c0,0,0,0,0,0.1
		c0,0,0,0,0,0.1S27.9,6.9,28,7l0,0l0,0c0.1,0.1,0.2,0.1,0.4,0c0.1,0,0.2-0.1,0.3-0.2l0,0l0,0l0,0l0,0l0,0l0,0c0-0.1,0-0.2,0-0.2
		l-0.1-0.2c-0.1,0.1-0.2,0.1-0.3,0.2C28.2,6.4,28,6.4,27.8,6.3L27.8,6.3L27.8,6.3L27.8,6.3L27.8,6.3L27.8,6.3L27.8,6.3z M27.3,5.6
		L27.3,5.6C27.2,5.6,27.2,5.6,27.3,5.6c-0.1,0-0.1,0-0.1,0l0,0c-0.1,0-0.2,0.1-0.2,0.2l0,0v0.1V6l0,0c0,0.2,0.1,0.3,0.3,0.4l0,0l0,0
		l0,0l0,0c0,0,0,0,0.1,0h0.1l0,0c0.1,0,0.3,0,0.4-0.1l0.2-0.1c-0.2-0.1-0.3-0.2-0.3-0.4c0-0.1,0-0.2,0-0.3L27.3,5.6z M28.4,5.3
		L28.4,5.3h-0.1h-0.1l0,0c-0.2,0-0.3,0.1-0.4,0.2l0,0l0,0c-0.1,0.1-0.1,0.2,0,0.3c0,0.1,0.1,0.2,0.2,0.3l0,0l0,0l0,0l0,0
		c0.1,0.1,0.2,0.1,0.4,0c0.1,0,0.2-0.1,0.3-0.2l0,0l0,0l0,0l0,0c0.1-0.1,0.1-0.2,0-0.3l0,0C28.6,5.4,28.5,5.3,28.4,5.3L28.4,5.3z"/>
	<path class="st2" d="M31.6,7.8c-0.1-0.1-0.2-0.1-0.3,0c-0.1,0.1-0.1,0.2,0,0.3c0.1,0.1,0.2,0.1,0.3,0C31.7,8,31.7,7.9,31.6,7.8
		 M32.5,8.2c-0.1-0.1-0.2-0.1-0.2,0c-0.1,0.1-0.1,0.2,0,0.2c0.1,0.1,0.2,0.1,0.2,0V8.2z M31.5,8.7c-0.1-0.1-0.2-0.1-0.2,0
		c-0.1,0.1-0.1,0.2,0,0.3c0.1,0.1,0.2,0.1,0.2,0C31.6,8.9,31.6,8.8,31.5,8.7z M30.6,8c-0.1-0.1-0.2-0.1-0.2,0
		c-0.1,0.1-0.1,0.2,0,0.2c0.1,0.1,0.2,0.1,0.2,0C30.7,8.2,30.7,8,30.6,8z M31.1,7c-0.1-0.1-0.2-0.1-0.2,0c-0.1,0.1-0.1,0.2,0,0.2
		c0.1,0.1,0.2,0.1,0.2,0C31.2,7.2,31.2,7.1,31.1,7z M32.2,7.1C32.1,7,32,7,32,7.1c-0.1,0.1-0.1,0.2,0,0.2c0.1,0.1,0.2,0.1,0.2,0
		C32.3,7.3,32.3,7.2,32.2,7.1z M30,7.7c0.1-0.1,0.2-0.2,0.4-0.2c-0.1-0.2-0.1-0.3,0-0.5c0,0,0-0.1,0.1-0.1l0.1-0.1l0,0l0,0l0,0l0,0
		c0.1-0.1,0.3-0.2,0.5-0.2l0,0c0.2,0,0.4,0,0.5,0.2l0,0l0,0l0,0c0,0,0,0,0.1,0.1l0,0l0,0c0.1-0.1,0.3-0.1,0.4-0.2
		c0.2,0,0.4,0,0.5,0.2l0,0l0,0l0,0l0,0l0,0c0.1,0.1,0.2,0.3,0.2,0.5l0,0c0,0.2,0,0.3-0.2,0.5l0,0l0,0l0,0l0,0l0,0l0,0l0,0l0,0l0,0
		l0,0c0.1,0.1,0.2,0.3,0.2,0.5l0,0c0,0.2,0,0.4-0.2,0.5l0,0l0,0c-0.2,0.2-0.4,0.3-0.7,0.2h-0.1c0,0.1,0,0.1-0.1,0.2c0,0,0,0,0,0.1
		c0,0,0,0,0,0.1l0,0l0,0l0,0l0,0l0,0c-0.1,0.1-0.3,0.2-0.5,0.2s-0.4,0-0.5-0.2l0,0l0,0c-0.2-0.1-0.2-0.3-0.2-0.5l0,0l0,0
		c-0.1,0-0.2,0-0.4,0l0,0H30c0,0-0.1,0-0.1-0.1l0,0l0,0c-0.2-0.2-0.3-0.5-0.2-0.7l0,0c0-0.1,0-0.1,0.1-0.1C29.9,7.8,30,7.7,30,7.7
		L30,7.7L30,7.7z M32.2,7.7l0.2-0.1c0,0,0.1,0,0.1-0.1l0,0l0,0c0.1-0.1,0.1-0.2,0.1-0.3l0,0c0-0.1-0.1-0.2-0.2-0.3l0,0l0,0
		c-0.1-0.1-0.2-0.1-0.3-0.1c-0.1,0-0.2,0.1-0.3,0.1l0,0l0,0l-0.1,0.2l-0.1-0.2c0,0,0,0,0-0.1l0,0l0,0l0,0l0,0l0,0
		c-0.1-0.1-0.2-0.1-0.3-0.1l0,0c-0.1,0-0.2,0.1-0.3,0.1l0,0l0,0c0,0,0,0.1-0.1,0.1V7c0,0.2,0,0.3,0.1,0.4l0.1,0.1c0,0,0-0.1,0.1-0.1
		l0,0l0,0c0.2-0.2,0.5-0.3,0.7-0.2l0,0c0.1,0,0.1,0,0.2,0.1l0.1,0.1l0,0l0,0l0,0l0,0l0,0C32.1,7.5,32.1,7.6,32.2,7.7z M31.9,8.5
		l0.2,0.1l0,0l0,0l0,0h0.1h0.1c0.2,0,0.3,0,0.4-0.1l0,0l0,0c0.1-0.1,0.1-0.2,0.1-0.3l0,0c0-0.1-0.1-0.2-0.2-0.3l0,0l0,0l0,0l0,0
		c-0.1,0-0.1-0.1-0.2-0.1l-0.2,0c0,0,0,0,0,0.1l0,0c0,0.2,0,0.4-0.2,0.5l0,0l0,0l0,0l0,0l0,0C32,8.5,31.9,8.5,31.9,8.5z M31,8.5
		l-0.1,0.2l0,0l0,0c0,0,0,0,0,0.1c0,0,0,0,0,0.1s0.1,0.2,0.2,0.3l0,0l0,0c0.1,0.1,0.2,0.1,0.3,0.1c0.1,0,0.2-0.1,0.3-0.1l0,0l0,0
		l0,0l0,0l0,0l0,0c0-0.1,0.1-0.2,0.1-0.2V8.8c-0.1,0.1-0.2,0.1-0.3,0.1C31.3,8.7,31.1,8.6,31,8.5L31,8.5L31,8.5L31,8.5L31,8.5
		L31,8.5L31,8.5z M30.6,7.7L30.6,7.7L30.6,7.7c-0.1,0-0.1,0-0.1,0l0,0c-0.1,0-0.2,0.1-0.3,0.1l0,0c0,0,0,0.1-0.1,0.1V8l0,0
		c0,0.2,0,0.3,0.1,0.5l0,0l0,0l0,0l0,0c0,0,0,0,0.1,0c0,0,0,0,0.1,0l0,0c0.1,0,0.2,0,0.4,0L31,8.4c-0.1-0.1-0.2-0.3-0.2-0.5
		c0-0.1,0-0.2,0-0.3L30.6,7.7z M31.8,7.6L31.8,7.6C31.8,7.6,31.7,7.6,31.8,7.6c-0.1-0.1-0.2-0.1-0.2-0.1l0,0c-0.2,0-0.4,0-0.5,0.1
		l0,0l0,0C31,7.7,31,7.8,31,7.9c0,0.1,0.1,0.2,0.2,0.3l0,0l0,0l0,0l0,0c0.1,0.1,0.2,0.1,0.3,0.1c0.1,0,0.2-0.1,0.3-0.1l0,0l0,0l0,0
		l0,0c0.1-0.1,0.1-0.2,0.1-0.3l0,0C31.9,7.8,31.9,7.7,31.8,7.6L31.8,7.6z"/>
	<path class="st2" d="M34.3,10.8c-0.1-0.1-0.2-0.1-0.3-0.1c-0.1,0.1-0.1,0.2-0.1,0.3c0.1,0.1,0.2,0.1,0.3,0
		C34.4,11,34.4,10.9,34.3,10.8 M35,11.3c-0.1-0.1-0.2-0.1-0.2,0c-0.1,0.1-0.1,0.2,0,0.2c0.1,0.1,0.2,0.1,0.2,0
		C35.1,11.5,35.1,11.4,35,11.3z M34,11.6c-0.1-0.1-0.2-0.1-0.2,0c-0.1,0.1-0.1,0.2,0,0.2c0.1,0.1,0.2,0.1,0.2,0
		C34,11.8,34,11.7,34,11.6z M33.3,10.7c-0.1-0.1-0.2-0.1-0.2,0c-0.1,0.1-0.1,0.2,0,0.2c0.1,0.1,0.2,0.1,0.2,0
		C33.3,10.9,33.3,10.8,33.3,10.7z M34,9.9c-0.1-0.1-0.2-0.1-0.3-0.1c-0.1,0.1-0.1,0.2,0,0.2C33.8,10.1,33.9,10.1,34,9.9
		C34,10.1,34,9.9,34,9.9z M35,10.2c-0.1-0.1-0.2-0.1-0.2,0c-0.1,0.1-0.1,0.2,0,0.2c0.1,0.1,0.2,0.1,0.2,0
		C35.1,10.4,35.1,10.3,35,10.2z M32.8,10.3c0.1-0.1,0.3-0.1,0.4-0.1c0-0.2,0-0.3,0.1-0.5l0.1-0.1l0.1-0.1l0,0l0,0l0,0l0,0
		c0.2-0.1,0.4-0.1,0.5-0.1l0,0c0.2,0,0.4,0.1,0.5,0.3l0,0l0,0l0,0c0,0,0,0.1,0.1,0.1l0,0l0,0c0.1-0.1,0.3-0.1,0.4-0.1
		c0.2,0,0.4,0.1,0.5,0.3l0,0l0,0l0,0l0,0l0,0c0.1,0.2,0.1,0.3,0.1,0.5l0,0c0,0.2-0.1,0.3-0.3,0.4l0,0l0,0l0,0l0,0l0,0l0,0l0,0l0,0
		l0,0l0,0c0.1,0.2,0.1,0.3,0.1,0.5l0,0c0,0.2-0.1,0.3-0.3,0.5l0,0l0,0c-0.2,0.1-0.5,0.2-0.7,0.1h-0.1c0,0.1-0.1,0.1-0.1,0.1
		s0,0-0.1,0.1c0,0,0,0-0.1,0l0,0l0,0l0,0l0,0l0,0c-0.2,0.1-0.4,0.1-0.5,0.1c-0.2,0-0.4-0.1-0.5-0.3l0,0l0,0
		c-0.1-0.2-0.2-0.3-0.1-0.5l0,0l0,0c-0.1,0-0.2-0.1-0.3-0.1l0,0c0,0-0.1,0-0.1-0.1l-0.1-0.1l0,0l0,0c-0.2-0.2-0.2-0.5,0-0.7l0,0
		l0.1-0.1C32.7,10.3,32.7,10.3,32.8,10.3L32.8,10.3L32.8,10.3z M34.9,10.8l0.2-0.1c0,0,0.1,0,0.1-0.1l0,0l0,0
		c0.1-0.1,0.2-0.2,0.2-0.3l0,0c0-0.1,0-0.2-0.1-0.3l0,0l0,0c-0.1-0.1-0.2-0.2-0.3-0.2s-0.2,0-0.3,0.1l0,0l0,0L34.5,10V9.8
		c0,0,0,0,0-0.1l0,0l0,0l0,0l0,0l0,0c-0.1-0.1-0.2-0.2-0.3-0.2l0,0c-0.1,0-0.2,0-0.3,0.1l0,0l0,0c0,0-0.1,0-0.1,0.1c0,0,0,0-0.1,0.1
		s-0.1,0.3,0,0.5l0.1,0.2l0.1-0.1l0,0l0,0c0.2-0.2,0.5-0.2,0.8,0l0,0l0.1,0.1l0.1,0.1l0,0l0,0l0,0l0,0l0,0
		C34.8,10.6,34.9,10.7,34.9,10.8z M34.4,11.6l0.2,0.2l0,0l0,0l0,0c0,0,0,0,0.1,0.1h0.1c0.1,0.1,0.3,0.1,0.5,0l0,0l0,0
		c0.1-0.1,0.2-0.2,0.2-0.3l0,0c0-0.1,0-0.2-0.1-0.3l0,0l0,0l0,0l0,0c0,0-0.1-0.1-0.2-0.1L35,11.1c0,0,0,0,0,0.1l0,0
		c0,0.2-0.1,0.3-0.3,0.5l0,0l0,0l0,0l0,0l0,0C34.5,11.5,34.4,11.5,34.4,11.6z M33.5,11.3l-0.1,0.2l0,0l0,0c0,0,0,0,0,0.1
		c0,0,0,0,0,0.1s0,0.2,0.1,0.3l0,0l0,0c0.1,0.1,0.2,0.2,0.3,0.2s0.2,0,0.3-0.1l0,0l0,0l0,0l0,0l0,0l0,0c0.1-0.1,0.1-0.1,0.1-0.2
		v-0.2c-0.1,0-0.2,0-0.3,0C33.8,11.5,33.7,11.5,33.5,11.3L33.5,11.3L33.5,11.3L33.5,11.3L33.5,11.3L33.5,11.3L33.5,11.3z M33.3,10.4
		L33.3,10.4L33.3,10.4C33.2,10.4,33.2,10.4,33.3,10.4L33.3,10.4c-0.2,0-0.3,0-0.4,0.1l0,0c0,0-0.1,0-0.1,0.1c0,0,0,0.1-0.1,0.1l0,0
		c-0.1,0.1-0.1,0.3,0,0.5l0,0l0,0l0,0l0,0c0,0,0,0,0,0.1c0,0,0,0,0.1,0l0,0c0.1,0.1,0.2,0.1,0.4,0.1h0.2c-0.1-0.2-0.1-0.3-0.1-0.5
		c0-0.1,0.1-0.2,0.1-0.3L33.3,10.4z M34.5,10.6L34.5,10.6L34.5,10.6c-0.1-0.1-0.1-0.1-0.2-0.1l0,0c-0.2-0.1-0.4-0.1-0.5,0l0,0l0,0
		c-0.1,0.1-0.2,0.2-0.2,0.3s0,0.2,0.1,0.3l0,0l0,0l0,0l0,0c0.1,0.1,0.2,0.2,0.3,0.2s0.2,0,0.3-0.1l0,0l0,0l0,0l0,0
		c0.1-0.1,0.2-0.2,0.2-0.3l0,0C34.6,10.8,34.6,10.7,34.5,10.6L34.5,10.6z"/>
	<path class="st2" d="M36.2,14.3c0-0.1-0.2-0.2-0.3-0.1c-0.1,0-0.2,0.2-0.1,0.3c0,0.1,0.2,0.2,0.3,0.1
		C36.2,14.5,36.3,14.4,36.2,14.3 M36.8,15c0-0.1-0.1-0.1-0.2-0.1c-0.1,0-0.1,0.1-0.1,0.2c0,0.1,0.1,0.1,0.2,0.1
		C36.8,15.2,36.8,15.1,36.8,15z M35.7,15c0-0.1-0.1-0.1-0.2-0.1c-0.1,0-0.1,0.1-0.1,0.2c0,0.1,0.1,0.1,0.2,0.1
		C35.6,15.2,35.7,15.1,35.7,15z M35.2,14c0-0.1-0.1-0.1-0.2-0.1c-0.1,0-0.1,0.1-0.1,0.2c0,0.1,0.1,0.1,0.2,0.1
		C35.2,14.2,35.3,14.1,35.2,14z M36.1,13.3c0-0.1-0.1-0.1-0.2-0.1c-0.1,0-0.1,0.1-0.1,0.2c0,0.1,0.1,0.1,0.2,0.1
		C36.1,13.5,36.1,13.4,36.1,13.3z M37,13.9c0-0.1-0.1-0.1-0.2-0.1c-0.1,0-0.1,0.1-0.1,0.2c0,0.1,0.1,0.1,0.2,0.1
		C37,14.1,37.1,14,37,13.9z M34.8,13.4c0.1-0.1,0.3-0.1,0.4,0c0-0.2,0.1-0.3,0.2-0.5l0.1-0.1l0.1-0.1l0,0l0,0l0,0l0,0
		c0.2-0.1,0.4-0.1,0.5,0l0,0c0.2,0.1,0.3,0.2,0.4,0.4l0,0l0,0l0,0v0.1l0,0l0,0c0.2,0,0.3,0,0.4,0c0.2,0.1,0.3,0.2,0.4,0.4l0,0l0,0
		l0,0l0,0l0,0c0.1,0.2,0.1,0.4,0,0.5l0,0c-0.1,0.2-0.2,0.3-0.4,0.4l0,0l0,0l0,0l0,0l0,0l0,0l0,0l0,0l0,0l0,0c0.1,0.2,0.1,0.4,0,0.5
		l0,0c-0.1,0.2-0.2,0.3-0.4,0.4l0,0l0,0c-0.2,0.1-0.5,0-0.7-0.1c0,0-0.1,0-0.1-0.1l-0.1,0.1c0,0,0,0-0.1,0c0,0,0,0-0.1,0l0,0l0,0
		l0,0l0,0l0,0c-0.2,0.1-0.4,0.1-0.5,0c-0.2-0.1-0.3-0.2-0.4-0.4l0,0l0,0c-0.1-0.2-0.1-0.4,0-0.5l0,0l0,0c-0.1,0-0.2-0.1-0.3-0.2l0,0
		c0,0,0-0.1-0.1-0.1c0,0,0-0.1-0.1-0.1l0,0l0,0c-0.1-0.3,0-0.5,0.1-0.7l0,0l0.1-0.1C34.7,13.5,34.8,13.5,34.8,13.4L34.8,13.4
		L34.8,13.4z M36.7,14.5h0.2H37l0,0l0,0c0.1,0,0.2-0.1,0.3-0.2l0,0c0-0.1,0.1-0.2,0-0.3l0,0l0,0c0-0.1-0.1-0.2-0.3-0.2
		c-0.1,0-0.2-0.1-0.4,0l0,0l0,0l-0.2,0.1v-0.2c0,0,0,0,0-0.1l0,0l0,0c0,0,0,0,0-0.1l0,0l0,0c0-0.1-0.1-0.2-0.3-0.2l0,0
		c-0.1,0-0.2-0.1-0.4,0l0,0l0,0h-0.1c0,0-0.1,0-0.1,0.1c-0.1,0.1-0.2,0.3-0.1,0.5l0.1,0.2c0,0,0.1,0,0.1-0.1l0,0l0,0
		c0.3-0.1,0.6,0,0.8,0.1l0,0l0.1,0.1l0.1,0.1l0,0l0,0l0,0l0,0l0,0C36.7,14.2,36.8,14.3,36.7,14.5z M36.1,15l0.1,0.2l0,0l0,0l0,0
		c0,0,0,0.1,0.1,0.1c0,0,0,0,0.1,0.1s0.3,0.1,0.5,0.1l0,0l0,0c0.1,0,0.2-0.1,0.3-0.2l0,0c0-0.1,0.1-0.2,0-0.3l0,0l0,0l0,0l0,0
		c0-0.1-0.1-0.1-0.1-0.1l-0.2-0.1c0,0,0,0,0,0.1l0,0c-0.1,0.2-0.2,0.3-0.4,0.4l0,0l0,0l0,0l0,0l0,0C36.2,15,36.1,15,36.1,15z
		 M35.3,14.6l-0.1,0.2l0,0l0,0c0,0,0,0,0,0.1c0,0,0,0,0,0.1s-0.1,0.2,0,0.4l0,0l0,0c0,0.1,0.1,0.2,0.3,0.2c0.1,0,0.2,0.1,0.4,0l0,0
		l0,0l0,0l0,0l0,0l0,0c0.1,0,0.1-0.1,0.2-0.2l0.1-0.2c-0.1,0-0.2,0-0.3-0.1C35.5,14.9,35.4,14.8,35.3,14.6L35.3,14.6L35.3,14.6
		L35.3,14.6L35.3,14.6L35.3,14.6L35.3,14.6z M35.4,13.7L35.4,13.7C35.3,13.7,35.3,13.7,35.4,13.7c-0.1,0-0.1,0-0.1-0.1l0,0
		c-0.1,0-0.2,0-0.3,0l0,0c0,0-0.1,0-0.1,0.1c0,0-0.1,0-0.1,0.1l0,0c-0.1,0.1-0.2,0.3-0.1,0.5l0,0l0,0l0,0l0,0c0,0,0,0,0,0.1
		c0,0,0,0,0,0.1l0,0c0.1,0.1,0.2,0.1,0.3,0.2h0.3c-0.1-0.2-0.1-0.4,0-0.5c0-0.1,0.1-0.2,0.2-0.2L35.4,13.7z M36.5,14.2L36.5,14.2
		C36.4,14.1,36.4,14.1,36.5,14.2c-0.1-0.1-0.1-0.1-0.1-0.2l0,0c-0.1-0.1-0.3-0.2-0.5-0.1l0,0l0,0c-0.1,0-0.2,0.1-0.3,0.2
		c0,0.1-0.1,0.2,0,0.3l0,0l0,0l0,0l0,0c0,0.1,0.1,0.2,0.3,0.2c0.1,0,0.2,0.1,0.4,0l0,0l0,0l0,0l0,0c0.1,0,0.2-0.1,0.3-0.2l0,0
		C36.5,14.4,36.5,14.3,36.5,14.2L36.5,14.2z"/>
	<path class="st2" d="M37.2,18.1c0-0.1-0.1-0.2-0.2-0.2c-0.1,0-0.2,0.1-0.2,0.2s0.1,0.2,0.2,0.2S37.2,18.2,37.2,18.1 M37.6,18.9
		c0-0.1-0.1-0.2-0.2-0.1c-0.1,0-0.2,0.1-0.1,0.2c0,0.1,0.1,0.2,0.2,0.1C37.5,19.1,37.6,19,37.6,18.9z M36.5,18.7
		c0-0.1-0.1-0.2-0.2-0.1c-0.1,0-0.2,0.1-0.1,0.2c0,0.1,0.1,0.2,0.2,0.1C36.4,18.9,36.5,18.8,36.5,18.7z M36.3,17.6
		c0-0.1-0.1-0.2-0.2-0.1c-0.1,0-0.2,0.1-0.1,0.2c0,0.1,0.1,0.2,0.2,0.1C36.3,17.8,36.3,17.7,36.3,17.6z M37.3,17.2
		c0-0.1-0.1-0.2-0.2-0.1c-0.1,0-0.2,0.1-0.1,0.2c0,0.1,0.1,0.2,0.2,0.1C37.3,17.3,37.3,17.2,37.3,17.2z M38.1,17.9
		c0-0.1-0.1-0.2-0.2-0.1c-0.1,0-0.2,0.1-0.1,0.2c0,0.1,0.1,0.2,0.2,0.1C38,18.1,38.1,18,38.1,17.9z M36.1,17c0.2,0,0.3,0,0.4,0.1
		c0-0.2,0.2-0.3,0.3-0.4l0.1-0.1c0,0,0.1,0,0.2,0l0,0l0,0l0,0l0,0c0.2,0,0.4,0,0.5,0.1l0,0c0.1,0.1,0.3,0.3,0.3,0.5l0,0l0,0l0,0v0.1
		l0,0l0,0c0.2,0,0.3,0.1,0.4,0.1c0.1,0.1,0.3,0.3,0.3,0.5l0,0l0,0l0,0l0,0l0,0c0,0.2,0,0.4-0.1,0.5l0,0c-0.1,0.1-0.3,0.2-0.4,0.3
		l0,0l0,0l0,0l0,0l0,0l0,0l0,0l0,0l0,0l0,0c0,0.2,0,0.4-0.1,0.5l0,0c-0.1,0.1-0.3,0.2-0.5,0.3l0,0l0,0c-0.3,0-0.5-0.1-0.7-0.3
		c0,0,0-0.1-0.1-0.1c0,0-0.1,0.1-0.2,0.1c0,0,0,0-0.1,0c0,0,0,0-0.1,0l0,0l0,0l0,0l0,0l0,0c-0.2,0-0.4,0-0.5-0.1s-0.3-0.3-0.3-0.5
		l0,0l0,0c0-0.2,0-0.4,0.1-0.5l0,0l0,0c-0.1-0.1-0.2-0.2-0.2-0.3l0,0v-0.1v-0.1l0,0l0,0c0-0.3,0.1-0.5,0.3-0.7l0,0l0.1-0.1
		C35.9,17,36,17,36.1,17L36.1,17L36.1,17z M37.7,18.4h0.2H38l0,0l0,0c0.1,0,0.2-0.1,0.3-0.2l0,0c0.1-0.1,0.1-0.2,0.1-0.3l0,0l0,0
		c0-0.1-0.1-0.2-0.2-0.3c-0.1-0.1-0.2-0.1-0.3-0.1l0,0l0,0h-0.2l0.1-0.2c0,0,0,0,0-0.1l0,0l0,0c0,0,0,0,0-0.1l0,0l0,0
		c0-0.1-0.1-0.2-0.2-0.3l0,0c-0.2,0-0.3,0-0.4,0l0,0l0,0h-0.1H37c-0.1,0.1-0.2,0.2-0.2,0.4v0.2h0.1l0,0l0,0c0.3,0,0.6,0.1,0.7,0.3
		l0,0l0.1,0.1c0,0,0,0.1,0,0.2l0,0l0,0l0,0l0,0l0,0C37.7,18.2,37.7,18.3,37.7,18.4z M36.9,18.8L37,19l0,0l0,0l0,0v0.1
		c0,0,0,0.1,0.1,0.1c0.1,0.1,0.3,0.2,0.4,0.2l0,0l0,0c0.1,0,0.2-0.1,0.3-0.2l0,0c0.1-0.1,0.1-0.2,0.1-0.3l0,0l0,0l0,0l0,0
		c0-0.1-0.1-0.1-0.1-0.2l-0.1-0.1c0,0,0,0,0,0.1l0,0c-0.1,0.1-0.3,0.2-0.5,0.3l0,0l0,0l0,0l0,0l0,0C37,18.8,36.9,18.8,36.9,18.8z
		 M36.3,18.2l-0.2,0.1l0,0l0,0c0,0,0,0-0.1,0c0,0,0,0,0,0.1c-0.1,0.1-0.1,0.2-0.1,0.3l0,0l0,0c0,0.1,0.1,0.2,0.2,0.3
		c0.1,0.1,0.2,0.1,0.3,0.1l0,0l0,0l0,0l0,0h0.1l0,0c0.1,0,0.1-0.1,0.2-0.1l0.2-0.2c-0.1,0-0.2-0.1-0.3-0.1
		C36.4,18.6,36.3,18.4,36.3,18.2L36.3,18.2L36.3,18.2L36.3,18.2L36.3,18.2L36.3,18.2L36.3,18.2z M36.5,17.4L36.5,17.4
		C36.5,17.3,36.5,17.3,36.5,17.4c-0.1-0.1-0.1-0.1-0.1-0.1l0,0c-0.1-0.1-0.2-0.1-0.3-0.1l0,0H36h-0.1l0,0c-0.1,0.1-0.2,0.3-0.2,0.4
		l0,0l0,0l0,0l0,0c0,0,0,0,0,0.1c0,0,0,0,0,0.1l0,0c0.1,0.1,0.2,0.2,0.3,0.2l0.2,0.1c0-0.2,0-0.4,0.1-0.5S36.4,17.5,36.5,17.4
		L36.5,17.4z M37.5,18L37.5,18v-0.1v-0.1l0,0c-0.1-0.1-0.3-0.2-0.5-0.2l0,0l0,0c-0.1,0-0.2,0.1-0.3,0.2s-0.1,0.2-0.1,0.3l0,0l0,0
		l0,0l0,0c0,0.1,0.1,0.2,0.2,0.3c0.1,0.1,0.2,0.1,0.3,0.1l0,0l0,0l0,0l0,0c0.1,0,0.2-0.1,0.3-0.2l0,0C37.4,18.3,37.5,18.2,37.5,18
		L37.5,18z"/>
	<path class="st2" d="M37.3,22c0-0.1-0.1-0.2-0.2-0.2c-0.1,0-0.2,0.1-0.2,0.2s0.1,0.2,0.2,0.2C37.1,22.2,37.2,22.1,37.3,22
		 M37.4,22.9c0-0.1-0.1-0.2-0.2-0.2c-0.1,0-0.2,0.1-0.2,0.2s0.1,0.2,0.2,0.2C37.3,23.1,37.4,23,37.4,22.9z M36.4,22.5
		c0-0.1-0.1-0.2-0.2-0.2c-0.1,0-0.2,0.1-0.2,0.2s0.1,0.2,0.2,0.2C36.3,22.6,36.4,22.6,36.4,22.5z M36.5,21.4c0-0.1-0.1-0.2-0.2-0.2
		c-0.1,0-0.2,0.1-0.2,0.2s0.1,0.2,0.2,0.2C36.4,21.5,36.5,21.5,36.5,21.4z M37.6,21.2c0-0.1-0.1-0.2-0.2-0.2c-0.1,0-0.2,0.1-0.2,0.2
		s0.1,0.2,0.2,0.2C37.5,21.3,37.6,21.2,37.6,21.2z M38.2,22.1c0-0.1-0.1-0.2-0.2-0.2c-0.1,0-0.2,0.1-0.2,0.2s0.1,0.2,0.2,0.2
		C38.1,22.2,38.1,22.2,38.2,22.1z M36.4,20.7c0.2,0,0.3,0.1,0.4,0.2c0.1-0.2,0.2-0.3,0.4-0.3h0.1c0.1,0,0.1,0,0.2,0l0,0l0,0l0,0l0,0
		c0.2,0,0.4,0.1,0.5,0.3l0,0c0.1,0.1,0.2,0.3,0.2,0.5l0,0l0,0l0,0v0.1l0,0l0,0c0.1,0,0.3,0.1,0.4,0.2c0.1,0.1,0.2,0.3,0.2,0.5l0,0
		l0,0l0,0l0,0l0,0c0,0.2-0.1,0.4-0.3,0.5l0,0c-0.1,0.1-0.3,0.2-0.5,0.2l0,0l0,0l0,0l0,0l0,0l0,0l0,0l0,0l0,0l0,0
		c0,0.2-0.1,0.4-0.3,0.5l0,0c-0.1,0.1-0.3,0.2-0.5,0.2l0,0l0,0c-0.3,0-0.5-0.2-0.6-0.4v-0.1c-0.1,0-0.1,0-0.2,0h-0.1h-0.1l0,0l0,0
		l0,0l0,0l0,0c-0.2,0-0.4-0.1-0.5-0.3c-0.1-0.1-0.2-0.3-0.2-0.5l0,0l0,0c0-0.2,0.1-0.4,0.3-0.5l0,0l0,0c-0.1-0.1-0.1-0.2-0.2-0.3
		l0,0v-0.1v-0.1l0,0l0,0c0-0.3,0.2-0.5,0.5-0.6l0,0C36.2,20.7,36.2,20.7,36.4,20.7C36.3,20.7,36.3,20.7,36.4,20.7L36.4,20.7
		L36.4,20.7z M37.6,22.4l0.2,0.1h0.1l0,0l0,0c0.1,0,0.2,0,0.3-0.1l0,0c0.1-0.1,0.2-0.2,0.2-0.3l0,0l0,0c0-0.1,0-0.2-0.1-0.3
		c-0.1-0.1-0.2-0.1-0.3-0.2l0,0l0,0h-0.2l0.1-0.2c0,0,0,0,0-0.1l0,0l0,0c0,0,0,0,0-0.1l0,0l0,0c0-0.1,0-0.2-0.1-0.3l0,0
		c-0.1-0.1-0.2-0.1-0.3-0.2l0,0l0,0h-0.1h-0.1c-0.2,0.1-0.3,0.2-0.3,0.4v0.2h0.1l0,0l0,0c0.3,0,0.5,0.2,0.6,0.5l0,0c0,0,0,0.1,0,0.2
		c0,0,0,0.1,0,0.2l0,0l0,0l0,0l0,0l0,0C37.8,22.2,37.7,22.3,37.6,22.4z M36.8,22.7v0.2l0,0l0,0l0,0V23v0.1c0.1,0.1,0.2,0.2,0.4,0.3
		l0,0l0,0c0.1,0,0.2,0,0.3-0.1l0,0c0.1-0.1,0.2-0.2,0.2-0.3l0,0l0,0l0,0l0,0c0-0.1,0-0.1,0-0.2l-0.1-0.2c0,0,0,0-0.1,0l0,0
		c-0.1,0.1-0.3,0.2-0.5,0.2l0,0l0,0l0,0l0,0l0,0C36.9,22.7,36.8,22.7,36.8,22.7z M36.3,21.9L36.1,22l0,0l0,0c0,0,0,0-0.1,0
		c0,0,0,0-0.1,0c-0.1,0.1-0.2,0.2-0.2,0.3l0,0l0,0c0,0.1,0,0.2,0.1,0.3c0.1,0.1,0.2,0.1,0.3,0.2l0,0l0,0l0,0l0,0h0.1l0,0
		c0.1,0,0.2,0,0.2-0.1l0.2-0.1c-0.1,0-0.2-0.1-0.3-0.2C36.4,22.3,36.3,22.1,36.3,21.9L36.3,21.9L36.3,21.9L36.3,21.9L36.3,21.9
		L36.3,21.9L36.3,21.9z M36.8,21.2L36.8,21.2C36.7,21.1,36.7,21.1,36.8,21.2C36.7,21.1,36.7,21.1,36.8,21.2L36.8,21.2
		C36.6,21,36.5,21,36.4,21l0,0h-0.1h-0.1l0,0c-0.2,0.1-0.3,0.2-0.3,0.4l0,0l0,0l0,0l0,0c0,0,0,0,0,0.1v0.1l0,0
		c0,0.1,0.1,0.2,0.2,0.3l0.2,0.1c0-0.2,0.1-0.3,0.3-0.5c0.1-0.1,0.2-0.1,0.3-0.1L36.8,21.2z M37.5,22.1L37.5,22.1V22v-0.1l0,0
		c-0.1-0.2-0.2-0.3-0.4-0.3l0,0l0,0c-0.1,0-0.2,0-0.3,0.1s-0.2,0.2-0.2,0.3l0,0l0,0l0,0l0,0c0,0.1,0,0.2,0.1,0.3
		c0.1,0.1,0.2,0.1,0.3,0.2l0,0l0,0l0,0l0,0c0.1,0,0.2,0,0.3-0.1l0,0C37.4,22.3,37.5,22.2,37.5,22.1L37.5,22.1z"/>
	<path class="st2" d="M36.3,25.9c0-0.1,0-0.2-0.1-0.3c-0.1,0-0.2,0-0.3,0.1c0,0.1,0,0.2,0.1,0.3C36.2,26,36.3,26,36.3,25.9
		 M36.3,26.8c0-0.1,0-0.2-0.1-0.2s-0.2,0-0.2,0.1s0,0.2,0.1,0.2C36.2,26.9,36.3,26.9,36.3,26.8z M35.4,26.1c0-0.1,0-0.2-0.1-0.2
		s-0.2,0-0.2,0.1s0,0.2,0.1,0.2C35.3,26.3,35.4,26.2,35.4,26.1z M35.8,25.1c0-0.1,0-0.2-0.1-0.2s-0.2,0-0.2,0.1s0,0.2,0.1,0.2
		C35.6,25.2,35.7,25.2,35.8,25.1z M36.9,25.1c0-0.1,0-0.2-0.1-0.2s-0.2,0-0.2,0.1s0,0.2,0.1,0.2S36.9,25.2,36.9,25.1z M37.2,26.1
		c0-0.1,0-0.2-0.1-0.2s-0.2,0-0.2,0.1s0,0.2,0.1,0.2C37.1,26.3,37.2,26.2,37.2,26.1z M35.8,24.4c0.1,0,0.3,0.1,0.4,0.3
		c0.1-0.1,0.3-0.2,0.5-0.2c0,0,0.1,0,0.2,0c0.1,0,0.1,0,0.2,0l0,0l0,0l0,0l0,0c0.2,0.1,0.3,0.2,0.4,0.4l0,0c0.1,0.2,0.1,0.4,0,0.5
		l0,0l0,0l0,0v0.1l0,0l0,0c0.1,0.1,0.2,0.2,0.3,0.3c0.1,0.2,0.1,0.4,0,0.5l0,0l0,0l0,0l0,0l0,0c-0.1,0.2-0.2,0.3-0.4,0.4l0,0
		c-0.2,0.1-0.4,0.1-0.6,0.1l0,0l0,0l0,0l0,0l0,0l0,0l0,0l0,0l0,0l0,0c-0.1,0.2-0.2,0.3-0.4,0.4l0,0c-0.2,0.1-0.4,0.1-0.6,0l0,0l0,0
		c-0.3-0.1-0.4-0.3-0.5-0.5v-0.1c-0.1,0-0.1,0-0.2,0H35c0,0,0,0-0.1,0l0,0l0,0l0,0l0,0l0,0c-0.2-0.1-0.3-0.2-0.4-0.4
		c-0.1-0.2-0.1-0.4,0-0.5l0,0l0,0c0.1-0.2,0.2-0.3,0.4-0.4l0,0l0,0c-0.1-0.1-0.1-0.2-0.1-0.3l0,0v-0.1v-0.1l0,0l0,0
		c0.1-0.3,0.3-0.4,0.6-0.5l0,0c0.1,0,0.1,0,0.2,0C35.7,24.4,35.8,24.4,35.8,24.4L35.8,24.4L35.8,24.4z M36.6,26.4l0.2,0.1
		c0,0,0.1,0,0.1,0.1l0,0l0,0c0.1,0,0.2,0,0.4,0l0,0c0.1-0.1,0.2-0.1,0.2-0.3l0,0l0,0c0-0.1,0-0.2,0-0.3c-0.1-0.1-0.1-0.2-0.3-0.2
		l0,0l0,0L37,25.7l0.1-0.1c0,0,0,0,0-0.1l0,0l0,0c0,0,0,0,0-0.1l0,0l0,0c0-0.1,0-0.2,0-0.3l0,0C37,25,37,24.9,36.8,24.9l0,0l0,0
		h-0.1h-0.1c-0.2,0-0.3,0.1-0.4,0.3l0-0.1h0.1l0,0l0,0c0.3,0.1,0.5,0.3,0.5,0.6l0,0c0,0.1,0,0.1,0,0.2s0,0.1,0,0.2l0,0l0,0l0,0l0,0
		l0,0C36.8,26.2,36.7,26.3,36.6,26.4z M35.7,26.4l-0.1,0.2l0,0l0,0l0,0v0.1v0.1c0,0.2,0.1,0.3,0.3,0.3l0,0l0,0c0.1,0,0.2,0,0.4,0
		l0,0c0.1-0.1,0.2-0.1,0.2-0.3l0,0l0,0l0,0l0,0c0-0.1,0-0.1,0-0.2v-0.2c0,0,0,0-0.1,0l0,0c-0.2,0.1-0.4,0.1-0.6,0l0,0l0,0l0,0l0,0
		l0,0C35.8,26.5,35.8,26.4,35.7,26.4z M35.4,25.6h-0.2l0,0l0,0c0,0,0,0-0.1,0c0,0,0,0-0.1,0c-0.1,0.1-0.2,0.1-0.2,0.3l0,0l0,0
		c0,0.1,0,0.2,0,0.3c0.1,0.1,0.1,0.2,0.3,0.2l0,0l0,0l0,0l0,0l0,0l0,0c0.1,0,0.2,0,0.2,0l0.2-0.1c-0.1-0.1-0.2-0.2-0.2-0.2
		C35.4,26,35.4,25.8,35.4,25.6L35.4,25.6L35.4,25.6L35.4,25.6L35.4,25.6L35.4,25.6L35.4,25.6z M36.1,24.9L36.1,24.9
		C36.1,24.9,36,24.9,36.1,24.9c0-0.1,0-0.1-0.1-0.1l0,0c-0.1-0.1-0.1-0.2-0.2-0.2l0,0h-0.1h-0.1l0,0c-0.2,0-0.3,0.1-0.4,0.3l0,0l0,0
		l0,0l0,0c0,0,0,0,0,0.1v0.1l0,0c0,0.1,0.1,0.2,0.1,0.3l0.2,0.2c0.1-0.2,0.2-0.3,0.4-0.4c0.1,0,0.2-0.1,0.3-0.1L36.1,24.9z M36.6,26
		L36.6,26v-0.1v-0.1l0,0c0-0.2-0.1-0.3-0.3-0.4l0,0l0,0c-0.1,0-0.2,0-0.4,0c-0.1,0-0.2,0.1-0.2,0.3l0,0l0,0l0,0l0,0
		c0,0.1,0,0.2,0,0.3c0.1,0.1,0.1,0.2,0.3,0.2l0,0l0,0l0,0l0,0c0.1,0,0.2,0,0.4,0l0,0C36.5,26.2,36.5,26.1,36.6,26L36.6,26z"/>
	<path class="st2" d="M34.5,29.4c0.1-0.1,0-0.2-0.1-0.3c-0.1-0.1-0.2,0-0.3,0.1s0,0.2,0.1,0.3C34.3,29.5,34.5,29.5,34.5,29.4
		 M34.2,30.3c0.1-0.1,0-0.2-0.1-0.2s-0.2,0-0.2,0.1c-0.1,0.1,0,0.2,0.1,0.2C34.1,30.4,34.2,30.4,34.2,30.3z M33.5,29.4
		c0.1-0.1,0-0.2-0.1-0.2s-0.2,0-0.2,0.1c-0.1,0.1,0,0.2,0.1,0.2C33.4,29.6,33.5,29.5,33.5,29.4z M34.2,28.5c0.1-0.1,0-0.2-0.1-0.2
		s-0.2,0-0.2,0.1c-0.1,0.1,0,0.2,0.1,0.2C34,28.6,34.1,28.6,34.2,28.5z M35.3,28.8c0.1-0.1,0-0.2-0.1-0.2s-0.2,0-0.2,0.1
		c-0.1,0.1,0,0.2,0.1,0.2C35.1,28.9,35.2,28.9,35.3,28.8z M35.3,29.9c0.1-0.1,0-0.2-0.1-0.2s-0.2,0-0.2,0.1c-0.1,0.1,0,0.2,0.1,0.2
		C35.1,30,35.2,29.9,35.3,29.9z M34.4,27.9c0.1,0.1,0.2,0.2,0.3,0.3c0.1-0.1,0.3-0.1,0.5-0.1c0,0,0.1,0,0.2,0c0,0,0.1,0,0.1,0.1l0,0
		l0,0l0,0l0,0c0.2,0.1,0.3,0.3,0.3,0.4l0,0c0,0.2,0,0.4-0.1,0.5l0,0l0,0l0,0c0,0,0,0.1-0.1,0.1l0,0l0,0c0.1,0.1,0.2,0.2,0.2,0.4
		c0,0.2,0,0.4-0.1,0.5l0,0l0,0l0,0l0,0l0,0c-0.1,0.2-0.3,0.3-0.5,0.3l0,0c-0.2,0-0.4,0-0.5-0.1l0,0l0,0l0,0l0,0l0,0l0,0l0,0l0,0l0,0
		l0,0c-0.1,0.2-0.3,0.3-0.5,0.3l0,0c-0.2,0-0.4,0-0.5-0.1l0,0l0,0c-0.2-0.1-0.3-0.4-0.3-0.6v-0.1c-0.1,0-0.1,0-0.2,0c0,0,0,0-0.1,0
		c0,0,0,0-0.1,0l0,0l0,0l0,0l0,0l0,0c-0.2-0.1-0.3-0.3-0.3-0.4c0-0.2,0-0.4,0.1-0.5l0,0l0,0c0.1-0.2,0.3-0.3,0.5-0.3l0,0l0,0
		c0-0.1,0-0.2,0-0.4l0,0v-0.1c0,0,0-0.1,0.1-0.1l0,0l0,0c0.2-0.2,0.4-0.4,0.7-0.3l0,0c0.1,0,0.1,0,0.2,0
		C34.3,27.8,34.3,27.8,34.4,27.9L34.4,27.9L34.4,27.9z M34.7,29.9l0.1,0.1l0.1,0.1l0,0l0,0c0.1,0.1,0.2,0.1,0.4,0.1l0,0
		c0.1,0,0.2-0.1,0.3-0.2l0,0l0,0c0.1-0.1,0.1-0.2,0.1-0.3c0-0.1-0.1-0.2-0.2-0.3l0,0l0,0l-0.3-0.1l0.2-0.1c0,0,0,0,0.1,0l0,0l0,0
		l0,0l0,0l0,0c0.1-0.1,0.1-0.2,0.1-0.3l0,0c0-0.1-0.1-0.2-0.2-0.3l0,0l0,0h-0.1h-0.1c-0.2,0-0.3,0-0.4,0.2l-0.1,0.1
		c0,0,0.1,0,0.1,0.1l0,0l0,0c0.2,0.1,0.4,0.4,0.3,0.7l0,0c0,0.1,0,0.1,0,0.2c0,0,0,0.1-0.1,0.1l0,0l0,0l0,0l0,0l0,0
		C34.9,29.8,34.8,29.9,34.7,29.9z M33.8,29.8L33.7,30l0,0l0,0l0,0v0.1v0.1c0,0.2,0.1,0.3,0.2,0.4l0,0l0,0c0.1,0.1,0.2,0.1,0.4,0.1
		l0,0c0.1,0,0.2-0.1,0.3-0.2l0,0l0,0l0,0l0,0c0-0.1,0-0.1,0-0.2v-0.2c0,0,0,0-0.1,0l0,0c-0.2,0-0.4,0-0.5-0.1l0,0l0,0l0,0l0,0l0,0
		C33.9,29.9,33.8,29.8,33.8,29.8z M33.7,28.9h-0.2l0,0l0,0c0,0,0,0-0.1,0c0,0,0,0-0.1,0S33.1,29,33,29.1l0,0l0,0
		c-0.1,0.1-0.1,0.2-0.1,0.3c0,0.1,0.1,0.2,0.2,0.3l0,0l0,0l0,0l0,0l0,0l0,0c0.1,0,0.2,0,0.2,0h0.2c-0.1-0.1-0.1-0.2-0.1-0.3
		C33.6,29.3,33.6,29.1,33.7,28.9L33.7,28.9L33.7,28.9L33.7,28.9L33.7,28.9L33.7,28.9L33.7,28.9z M34.5,28.4L34.5,28.4L34.5,28.4
		c0-0.1,0-0.1,0-0.1l0,0c0-0.1-0.1-0.2-0.2-0.2l0,0h-0.1h-0.1l0,0c-0.2,0-0.4,0.1-0.5,0.2l0,0l0,0l0,0l0,0c0,0,0,0,0,0.1
		c0,0,0,0,0,0.1l0,0c0,0.1,0,0.2,0.1,0.3l0.1,0.2c0.1-0.2,0.3-0.3,0.4-0.3c0.1,0,0.2,0,0.3,0V28.4z M34.7,29.6L34.7,29.6
		C34.8,29.5,34.8,29.5,34.7,29.6c0.1-0.1,0.1-0.2,0.1-0.2l0,0c0-0.2-0.1-0.3-0.2-0.4l0,0l0,0c-0.1-0.1-0.2-0.1-0.4-0.1
		c-0.1,0-0.2,0.1-0.3,0.2l0,0l0,0l0,0l0,0c-0.1,0.1-0.1,0.2-0.1,0.3c0,0.1,0.1,0.2,0.2,0.3l0,0l0,0l0,0l0,0c0.2,0.1,0.3,0.1,0.4,0.1
		l0,0C34.6,29.7,34.7,29.7,34.7,29.6L34.7,29.6z"/>
	<path class="st2" d="M15.5,4c-0.1,0-0.2,0.1-0.1,0.3c0,0.1,0.2,0.2,0.3,0.1c0.1,0,0.2-0.1,0.1-0.3C15.7,4,15.6,4,15.5,4 M16.3,3.6
		c-0.1,0-0.2,0.1-0.1,0.2c0,0.1,0.1,0.1,0.2,0.1s0.1-0.1,0.1-0.2C16.5,3.6,16.4,3.5,16.3,3.6z M16.2,4.6c-0.1,0-0.1,0.1-0.1,0.2
		s0.1,0.1,0.2,0.1s0.1-0.1,0.1-0.2C16.4,4.7,16.3,4.6,16.2,4.6z M15.1,4.9C15,4.9,15,5,15,5.1s0.1,0.1,0.2,0.1
		c0.1,0,0.1-0.1,0.1-0.2C15.3,5,15.2,4.9,15.1,4.9z M14.5,4c-0.1,0-0.1,0.1-0.1,0.2s0.1,0.1,0.2,0.1c0.1,0,0.1-0.1,0.1-0.2
		S14.6,4,14.5,4z M15.2,3.2c-0.1,0-0.1,0.1-0.1,0.2c0,0.1,0.1,0.1,0.2,0.1c0.1,0,0.1-0.1,0.1-0.2C15.4,3.2,15.3,3.2,15.2,3.2z
		 M14.5,5.3c0-0.1,0-0.3,0-0.4c-0.2,0-0.3-0.1-0.5-0.2l-0.1-0.1c0,0,0-0.1-0.1-0.1l0,0l0,0l0,0l0,0c0-0.2,0-0.4,0.1-0.5l0,0
		c0.1-0.2,0.2-0.3,0.4-0.3l0,0l0,0l0,0h0.1l0,0l0,0c0-0.1,0-0.3,0.1-0.4C14.6,3.1,14.7,3,14.9,3l0,0l0,0l0,0l0,0l0,0
		c0.2,0,0.4,0,0.5,0.1l0,0c0.2,0.1,0.3,0.2,0.3,0.4l0,0l0,0l0,0l0,0l0,0l0,0l0,0l0,0l0,0l0,0c0.2,0,0.4,0,0.5,0.1l0,0
		c0.2,0.1,0.3,0.2,0.3,0.4l0,0l0,0c0.1,0.2,0,0.5-0.2,0.7c0,0,0,0-0.1,0.1l0.1,0.1c0,0,0,0,0,0.1c0,0,0,0,0,0.1l0,0l0,0l0,0l0,0l0,0
		c0,0.2,0,0.4-0.1,0.5c-0.1,0.2-0.2,0.3-0.4,0.3l0,0l0,0c-0.2,0.1-0.4,0-0.6-0.1l0,0l0,0C15.1,5.9,15.1,6,15,6.1l0,0
		c0,0-0.1,0-0.1,0.1h-0.1l0,0l0,0c-0.3,0.1-0.6,0-0.7-0.2l0,0L14,5.9C14.5,5.4,14.5,5.3,14.5,5.3L14.5,5.3L14.5,5.3z M15.7,3.5V3.3
		V3.2l0,0l0,0c0-0.1-0.1-0.2-0.2-0.3l0,0c-0.1-0.1-0.2-0.1-0.4,0l0,0l0,0c-0.1,0-0.2,0.1-0.3,0.2c-0.1,0.1-0.1,0.2,0,0.3l0,0l0,0
		l0.1,0.2h-0.2c0,0,0,0-0.1,0l0,0l0,0c0,0,0,0-0.1,0l0,0l0,0c-0.2,0.1-0.3,0.2-0.3,0.3l0,0c-0.1,0.1-0.1,0.2,0,0.3l0,0l0,0v0.1
		c0,0,0,0.1,0.1,0.1c0.1,0.1,0.3,0.2,0.5,0.1H15V4.4l0,0l0,0c-0.1-0.3,0-0.5,0.2-0.7l0,0l0.1-0.1c0,0,0.1,0,0.2-0.1l0,0l0,0l0,0l0,0
		l0,0C15.5,3.5,15.6,3.5,15.7,3.5z M16.3,4.2l0.2-0.1l0,0l0,0l0,0h0.1c0,0,0.1,0,0.1-0.1c0.1-0.1,0.2-0.3,0.1-0.4l0,0l0,0
		c0-0.1-0.1-0.2-0.2-0.3l0,0c-0.1-0.1-0.2-0.1-0.3,0l0,0l0,0l0,0l0,0c-0.1,0-0.1,0.1-0.1,0.1l-0.1,0.1c0,0,0,0,0.1,0l0,0
		c-0.1,0.2,0,0.3,0,0.5l0,0l0,0l0,0l0,0l0,0C16.3,4.1,16.3,4.2,16.3,4.2z M15.7,4.9l0.2,0.2l0,0l0,0c0,0,0,0,0.1,0c0,0,0,0,0.1,0
		c0.1,0.1,0.2,0.1,0.4,0l0,0l0,0c0.1,0,0.2-0.1,0.3-0.2c0.1-0.1,0.1-0.2,0-0.3l0,0l0,0l0,0l0,0l0,0l0,0c0-0.1-0.1-0.1-0.2-0.2
		l-0.2-0.1c0,0.1,0,0.2-0.1,0.3C16.1,4.7,15.9,4.8,15.7,4.9L15.7,4.9L15.7,4.9L15.7,4.9L15.7,4.9L15.7,4.9L15.7,4.9z M14.8,4.8
		L14.8,4.8L14.8,4.8c0,0.1-0.1,0.1-0.1,0.1l0,0c0,0.1-0.1,0.2,0,0.3l0,0v0.1c0,0,0,0.1,0.1,0.1l0,0c0.1,0.1,0.3,0.2,0.5,0.1l0,0l0,0
		l0,0l0,0c0,0,0,0,0.1,0c0,0,0,0,0.1,0l0,0c0.1-0.1,0.2-0.2,0.2-0.3V5c-0.2,0-0.4,0-0.5-0.1c-0.1,0-0.2-0.1-0.2-0.2L14.8,4.8z
		 M15.4,3.8L15.4,3.8h-0.1c0,0-0.1,0-0.1,0.1l0,0C15.1,4,15,4.2,15.1,4.4l0,0l0,0c0,0.1,0.1,0.2,0.2,0.3c0.1,0.1,0.2,0.1,0.4,0l0,0
		l0,0l0,0l0,0c0.1,0,0.2-0.1,0.3-0.2c0.1-0.1,0.1-0.2,0-0.3l0,0l0,0l0,0l0,0c0-0.1-0.1-0.2-0.2-0.3l0,0C15.7,3.8,15.5,3.7,15.4,3.8
		L15.4,3.8z"/>
	<path class="st2" d="M11.7,5.5c-0.1,0.1-0.1,0.2-0.1,0.3c0.1,0.1,0.2,0.1,0.3,0.1C12,5.8,12,5.7,12,5.6C11.9,5.5,11.8,5.4,11.7,5.5
		 M12.3,4.8c-0.1,0-0.1,0.1-0.1,0.2s0.2,0.1,0.2,0.1c0.1,0,0.1-0.1,0.1-0.2S12.4,4.8,12.3,4.8z M12.6,5.9c-0.1,0-0.1,0.1-0.1,0.2
		s0.2,0.1,0.2,0.1c0.1,0,0.1-0.2,0.1-0.2C12.7,5.9,12.6,5.9,12.6,5.9z M11.5,6.4c-0.1,0-0.1,0.1-0.1,0.2s0.2,0.1,0.2,0.1
		c0.1,0,0.1-0.1,0.1-0.2S11.6,6.4,11.5,6.4z M10.7,5.7c-0.1,0-0.1,0.1-0.1,0.2S10.8,6,10.8,6c0.1,0,0.1-0.2,0.1-0.2
		C10.9,5.7,10.8,5.6,10.7,5.7z M11.2,4.7c-0.1,0-0.1,0.1-0.1,0.2S11.3,5,11.3,5c0.1,0,0.1-0.1,0.1-0.2S11.3,4.7,11.2,4.7z M11,6.9
		c-0.1-0.1-0.1-0.3-0.1-0.4c-0.2,0-0.4,0-0.5-0.1l-0.1-0.1l-0.1-0.1l0,0l0,0l0,0l0,0c-0.1-0.3-0.1-0.4-0.1-0.6l0,0
		c0.1-0.2,0.2-0.3,0.3-0.4l0,0l0,0l0,0h0.1l0,0l0,0c-0.1-0.1-0.1-0.3,0-0.4c0.1-0.2,0.2-0.3,0.3-0.4l0,0l0,0l0,0l0,0l0,0
		c0.2-0.1,0.4-0.1,0.5-0.1l0,0c0.2,0,0.3,0.1,0.4,0.3l0,0l0,0l0,0l0,0l0,0l0,0l0,0l0,0l0,0l0,0c0.2-0.1,0.4-0.1,0.5-0.1l0,0
		c0.2,0,0.3,0.2,0.4,0.3l0,0l0,0c0.1,0.2,0.1,0.5,0,0.7c0,0,0,0.1-0.1,0.1l0.1,0.1c0,0,0,0,0.1,0.1c0,0,0,0,0,0.1l0,0l0,0l0,0l0,0
		l0,0c0.1,0.2,0.1,0.4,0.1,0.5c-0.1,0.2-0.2,0.3-0.3,0.4l0,0l0,0c0.3,0,0.1,0-0.1-0.1l0,0l0,0c0,0.1-0.1,0.2-0.2,0.3l0,0l-0.1,0.1
		c0,0-0.1,0-0.1,0.1l0,0l0,0c-0.3,0.1-0.6,0.1-0.8,0l0,0l-0.1-0.1C11.1,7,11,7,11,6.9L11,6.9L11,6.9z M11.8,4.9L11.8,4.9V4.7l0,0
		l0,0c-0.1-0.1-0.2-0.2-0.3-0.2l0,0c-0.1,0-0.2,0-0.4,0l0,0l0,0c-0.1,0.1-0.2,0.2-0.2,0.3s0,0.2,0,0.3l0,0l0,0L11,5.3h-0.2
		c0,0,0,0-0.1,0l0,0l0,0c0,0,0,0-0.1,0l0,0l0,0c-0.1,0.1-0.2,0.2-0.2,0.3l0,0c0,0.1,0,0.2,0,0.3l0,0l0,0c0,0,0,0.1,0.1,0.1
		c0,0,0,0,0.1,0.1s0.3,0.1,0.5,0h0.1L11.1,6l0,0l0,0c-0.1-0.2-0.1-0.5,0-0.7l0,0l0.1-0.1l0.1-0.1l0,0l0,0l0,0l0,0l0,0
		C11.6,5,11.7,4.9,11.8,4.9z M12.5,5.5l0.2-0.1l0,0l0,0l0,0c0,0,0,0,0.1-0.1c0,0,0,0,0.1-0.1s0.1-0.3,0-0.5l0,0l0,0
		c-0.1-0.1-0.2-0.2-0.3-0.2l0,0c-0.1,0-0.2,0-0.4,0l0,0l0,0l0,0l0,0l-0.1,0.1L12,4.8c0,0,0,0,0.1,0l0,0c0.2,0,0.3,0.2,0.4,0.3l0,0
		l0,0l0,0l0,0l0,0C12.5,5.4,12.5,5.4,12.5,5.5z M12.1,6.3l0.2,0.1l0,0l0,0c0,0,0,0,0.1,0c0,0,0,0,0.1,0s0.2,0,0.4,0l0,0l0,0
		c0.1-0.1,0.2-0.2,0.2-0.3c0-0.1,0-0.2,0-0.3l0,0l0,0l0,0l0,0l0,0l0,0C13,5.7,13,5.7,12.9,5.7l-0.2-0.1c0,0.1,0,0.2,0,0.3
		C12.4,6,12.3,6.2,12.1,6.3L12.1,6.3L12.1,6.3L12.1,6.3L12.1,6.3L12.1,6.3L12.1,6.3z M11.2,6.4L11.2,6.4L11.2,6.4
		C11.2,6.5,11.2,6.5,11.2,6.4L11.2,6.4c0,0.2,0,0.3,0,0.4l0,0c0,0,0,0.1,0.1,0.1c0,0,0.1,0,0.1,0.1l0,0c0.1,0.1,0.3,0.1,0.5,0l0,0
		l0,0l0,0l0,0c0,0,0,0,0.1,0c0,0,0,0,0.1,0l0,0c0.1-0.1,0.1-0.2,0.1-0.3V6.5c-0.2,0.1-0.4,0.1-0.5,0c-0.1,0-0.2-0.1-0.3-0.1H11.2z
		 M11.5,5.2L11.5,5.2C11.5,5.3,11.5,5.3,11.5,5.2c-0.1,0.1-0.1,0.1-0.2,0.1l0,0c-0.1,0.1-0.1,0.3,0,0.5l0,0l0,0
		C11.4,5.9,11.5,6,11.6,6s0.2,0,0.4,0l0,0l0,0l0,0l0,0c0.1,0,0.2-0.1,0.2-0.2s0-0.2,0-0.3l0,0l0,0l0,0l0,0c-0.1-0.1-0.2-0.2-0.3-0.2
		l0,0C11.8,5.2,11.7,5.2,11.5,5.2L11.5,5.2z"/>
	<path class="st2" d="M8.3,7.7C8.2,7.8,8.2,8,8.3,8c0.1,0.1,0.2,0.1,0.3,0c0.1,0,0.1-0.2,0-0.2C8.6,7.7,8.4,7.7,8.3,7.7 M8.8,7
		c-0.1,0.1-0.1,0.2,0,0.2C8.9,7.3,9,7.3,9,7.2C9.1,7.1,9.1,7,9,7C9,6.9,8.9,6.9,8.8,7z M9.3,8c-0.1,0-0.1,0.1,0,0.2
		c0.1,0.1,0.2,0.1,0.2,0C9.6,8.1,9.6,8,9.5,8C9.5,7.9,9.4,7.9,9.3,8z M8.4,8.7c0,0.1,0,0.2,0,0.3c0.1,0.1,0.2,0.1,0.2,0
		c0.1-0.1,0.1-0.2,0-0.2C8.6,8.7,8.5,8.7,8.4,8.7z M7.5,8.2c-0.1,0.1-0.1,0.2,0,0.2c0.1,0.1,0.2,0.1,0.2,0c0.1-0.1,0.1-0.2,0-0.2
		C7.6,8.1,7.5,8.1,7.5,8.2z M7.7,7.1c-0.1,0.1-0.1,0.2,0,0.2c0.1,0.1,0.2,0.1,0.2,0C8,7.2,8,7.1,7.9,7.1C7.9,7.1,7.8,7.1,7.7,7.1z
		 M8,9.3C7.9,9.2,7.9,9,7.8,8.9C7.6,9,7.4,9,7.3,8.9L7.2,8.8L7.1,8.7l0,0l0,0l0,0l0,0C6.9,8.6,6.9,8.4,6.9,8.2l0,0
		C6.9,8,7,7.8,7.1,7.7l0,0l0,0l0,0c0,0,0,0,0.1-0.1l0,0l0,0C7.1,7.5,7.1,7.4,7.1,7.2s0.1-0.4,0.2-0.5l0,0l0,0l0,0l0,0l0,0
		c0.1-0.1,0.3-0.2,0.5-0.2l0,0c0.2,0,0.3,0.1,0.5,0.2l0,0l0,0l0,0l0,0l0,0l0,0l0,0l0,0l0,0l0,0c0.1-0.1,0.3-0.2,0.5-0.2l0,0
		c0.2,0,0.4,0.1,0.5,0.2l0,0l0,0c0.4,0.1,0.4,0.4,0.3,0.6v0.1c0.1,0,0.1,0,0.2,0.1c0,0,0,0,0.1,0c0,0,0,0,0.1,0.1l0,0l0,0l0,0l0,0
		l0,0c0,0.2,0.1,0.3,0.1,0.5c0,0.2-0.1,0.4-0.2,0.5l0,0l0,0C9.7,8.7,9.5,8.8,9.3,8.8l0,0l0,0c0,0.1,0,0.2-0.1,0.3l0,0
		c0,0,0,0.1-0.1,0.1c0,0,0,0.1-0.1,0.1l0,0l0,0C8.9,9.5,8.6,9.6,8.3,9.5l0,0c0-0.1-0.1-0.1-0.1-0.1C8.1,9.4,8.1,9.3,8,9.3L8,9.3
		L8,9.3z M8.3,7.2L8.2,7c0,0,0-0.1-0.1-0.1l0,0l0,0c0-0.1-0.1-0.1-0.3-0.1l0,0c-0.1,0-0.2,0-0.3,0.1l0,0l0,0C7.4,7,7.4,7.1,7.4,7.2
		s0,0.2,0.1,0.3l0,0l0,0l0.2,0.1L7.5,7.8c0,0,0,0-0.1,0l0,0l0,0l0,0l0,0l0,0C7.2,8,7.1,8.1,7.1,8.2l0,0c0,0.1,0,0.2,0.1,0.3l0,0l0,0
		c0,0,0.1,0,0.1,0.1h0.1c0.2,0.1,0.3,0,0.5-0.1L8,8.4L7.9,8.3l0,0l0,0C7.7,8.2,7.7,7.9,7.8,7.6l0,0c0,0,0-0.1,0.1-0.1L8,7.4l0,0l0,0
		l0,0l0,0l0,0C8.1,7.3,8.2,7.2,8.3,7.2z M9.1,7.6l0.2-0.2l0,0l0,0l0,0c0,0,0,0,0.1-0.1V7.2c0-0.2,0-0.3-0.1-0.4l0,0l0,0
		C9.2,6.7,9.1,6.7,9,6.7l0,0c-0.1,0-0.2,0-0.3,0.1l0,0l0,0l0,0l0,0c0,0-0.1,0.1-0.1,0.2L8.4,7.2c0,0,0,0,0.1,0l0,0
		c0.2,0,0.4,0.1,0.5,0.2l0,0l0,0l0,0l0,0l0,0C9.1,7.5,9.1,7.5,9.1,7.6z M9,8.4l0.2,0.1l0,0l0,0c0,0,0,0,0.1,0c0,0,0,0,0.1,0
		s0.2,0,0.3-0.1l0,0l0,0c0.1-0.1,0.1-0.2,0.1-0.3c0-0.1,0-0.2-0.1-0.3l0,0l0,0l0,0l0,0l0,0l0,0c-0.1,0-0.2-0.1-0.2-0.1H9.3
		c-0.1,0-0.1,0.1-0.1,0.2C9.2,8.1,9.1,8.3,9,8.4L9,8.4L9,8.4L9,8.4L9,8.4L9,8.4L9,8.4z M8.1,8.7L8.1,8.7C8.1,8.7,8.1,8.8,8.1,8.7
		c0,0.1,0,0.1,0,0.1l0,0c0,0.1,0,0.2,0.1,0.3l0,0c0,0,0.1,0,0.1,0.1h0.1l0,0c0.2,0.1,0.4,0,0.5-0.1l0,0l0,0l0,0l0,0c0,0,0,0,0-0.1
		c0,0,0,0,0-0.1l0,0C9,8.8,9,8.7,8.9,8.6L9,8.4C8.8,8.6,8.6,8.6,8.4,8.6c-0.1,0-0.2,0-0.3-0.1V8.7z M8.2,7.6L8.2,7.6
		C8.1,7.6,8.1,7.6,8.2,7.6C8.1,7.7,8,7.7,8,7.7l0,0C7.9,7.9,8,8,8.1,8.2l0,0l0,0c0.1,0.1,0.2,0.1,0.4,0.2c0.1,0,0.2,0,0.3-0.1l0,0
		l0,0l0,0l0,0C8.9,8.2,8.9,8.1,8.9,8c0-0.1,0-0.2-0.1-0.3l0,0l0,0l0,0l0,0C8.7,7.5,8.6,7.4,8.5,7.4l0,0C8.4,7.4,8.3,7.5,8.2,7.6
		L8.2,7.6z"/>
	<path class="st2" d="M5.6,10.7c-0.1,0.1,0,0.2,0.1,0.3s0.2,0,0.3-0.1c0.1-0.1,0-0.2-0.1-0.3C5.8,10.6,5.7,10.6,5.6,10.7 M5.9,9.9
		c-0.1,0.1,0,0.2,0,0.2c0.1,0.1,0.2,0,0.2,0c0.1-0.1,0-0.2,0-0.2C6.1,9.8,6,9.8,5.9,9.9z M6.6,10.7c-0.1,0.1,0,0.2,0,0.2
		c0.1,0.1,0.2,0,0.2,0c0.1-0.1,0-0.2,0-0.2C6.8,10.6,6.7,10.6,6.6,10.7z M6,11.6c-0.1,0.1,0,0.2,0,0.2c0.1,0.1,0.2,0,0.2,0
		c0.1-0.1,0-0.2,0-0.2C6.1,11.5,6,11.6,6,11.6z M4.9,11.3c-0.1,0.1,0,0.2,0,0.2c0.1,0.1,0.2,0,0.2,0c0.1-0.1,0-0.2,0-0.2
		C5,11.2,4.9,11.2,4.9,11.3z M4.9,10.2c-0.1,0.1,0,0.2,0,0.2c0.1,0.1,0.2,0,0.2,0c0.1-0.1,0-0.2,0-0.2C5,10.1,4.9,10.2,4.9,10.2z
		 M5.7,12.3c-0.1-0.1-0.2-0.2-0.3-0.3c-0.2,0.1-0.3,0.1-0.5,0.1H4.8c0,0-0.1,0-0.1-0.1l0,0l0,0l0,0l0,0c-0.2-0.1-0.3-0.3-0.3-0.4
		l0,0c0-0.2,0-0.4,0.1-0.5l0,0l0,0l0,0c0,0,0-0.1,0.1-0.1l0,0l0,0c-0.2-0.3-0.3-0.4-0.3-0.5c0-0.2,0-0.4,0.1-0.5l0,0l0,0l0,0l0,0
		l0,0c0.1-0.2,0.3-0.3,0.5-0.4l0,0c0.2,0,0.4,0,0.5,0.1l0,0l0,0l0,0l0,0l0,0l0,0l0,0l0,0l0,0l0,0c0.1-0.2,0.3-0.3,0.5-0.3l0,0
		c0.2,0,0.4,0,0.5,0.1l0,0l0,0c0.3,0,0.4,0.3,0.4,0.5v0.1c0.1,0,0.1,0,0.2,0c0,0,0,0,0.1,0c0,0,0,0,0.1,0l0,0l0,0l0,0l0,0l0,0
		c0.2,0.1,0.3,0.3,0.3,0.4c0,0.2,0,0.4-0.1,0.5l0,0l0,0c-0.1,0.2-0.3,0.3-0.5,0.3l0,0l0,0c0,0.1,0,0.2,0,0.4l0,0v0.1
		c0,0,0,0.1-0.1,0.1l0,0l0,0c-0.2,0.2-0.4,0.3-0.7,0.3l0,0c-0.1,0-0.1,0-0.2,0C5.8,12.3,5.8,12.3,5.7,12.3L5.7,12.3L5.7,12.3z
		 M5.5,10.2L5.4,10L5.3,9.9l0,0l0,0c-0.1,0-0.3,0-0.4,0l0,0c-0.1,0-0.2,0.1-0.3,0.2l0,0l0,0c-0.1,0.1-0.1,0.2-0.1,0.3
		s0.1,0.2,0.2,0.3l0,0l0,0L5,10.8l-0.2,0.1c0,0,0,0-0.1,0l0,0l0,0l0,0l0,0l0,0c-0.1,0.1-0.1,0.2-0.1,0.3l0,0c0,0.1,0.1,0.2,0.2,0.3
		l0,0l0,0h0.1H5c0.2,0,0.3,0,0.4-0.2l0.1-0.1c0,0-0.1,0-0.1-0.1l0,0l0,0C5.2,11.3,5,11,5.1,10.7l0,0c0-0.1,0-0.1,0-0.2
		c0,0,0-0.1,0.1-0.1l0,0l0,0l0,0l0,0l0,0C5.3,10.3,5.4,10.2,5.5,10.2z M6.4,10.4l0.1-0.2l0,0l0,0l0,0v-0.1V10c0-0.2-0.1-0.3-0.2-0.4
		l0,0l0,0C6.2,9.5,6.1,9.5,6,9.5l0,0c-0.1,0-0.2,0.1-0.3,0.2l0,0l0,0l0,0l0,0c0,0.1,0,0.1,0,0.2v0.2c0,0,0,0,0.1,0l0,0
		c0.2,0,0.4,0,0.5,0.1l0,0l0,0l0,0l0,0l0,0C6.3,10.3,6.3,10.3,6.4,10.4z M6.4,11.2h0.2l0,0l0,0c0,0,0,0,0.1,0h0.1
		c0.1,0,0.2-0.1,0.3-0.2l0,0l0,0c0.1,0,0.1-0.2,0.1-0.3S7.1,10.5,7,10.4l0,0l0,0l0,0l0,0l0,0l0,0c-0.1,0-0.2,0-0.2,0H6.6
		c0.1,0.1,0.1,0.2,0.1,0.3C6.6,10.9,6.5,11,6.4,11.2L6.4,11.2L6.4,11.2L6.4,11.2L6.4,11.2L6.4,11.2L6.4,11.2z M5.6,11.7L5.6,11.7
		L5.6,11.7c0,0.1,0,0.1,0,0.1l0,0c0,0.1,0.1,0.2,0.2,0.2l0,0h0.1H6l0,0c0.2,0,0.4-0.1,0.5-0.2l0,0l0,0l0,0l0,0c0,0,0,0,0-0.1
		c0,0,0,0,0-0.1l0,0c0-0.1,0-0.2,0-0.3l-0.1-0.2c-0.1,0.1-0.3,0.2-0.5,0.3c-0.1,0-0.2,0-0.3,0L5.6,11.7z M5.4,10.6L5.4,10.6
		L5.4,10.6c-0.1,0.1-0.1,0.1-0.1,0.2l0,0c0,0.2,0.1,0.3,0.2,0.4l0,0l0,0c0.1,0.1,0.2,0.1,0.4,0.1c0.1,0,0.2-0.1,0.3-0.2l0,0l0,0l0,0
		l0,0c0.1-0.1,0.1-0.2,0.1-0.3s-0.1-0.2-0.2-0.3l0,0l0,0l0,0l0,0c-0.1-0.1-0.3-0.2-0.4-0.1l0,0C5.6,10.4,5.5,10.5,5.4,10.6L5.4,10.6
		z"/>
	<path class="st2" d="M3.7,14.2c0,0.1,0,0.2,0.1,0.3c0.1,0,0.2,0,0.3-0.1c0-0.1,0-0.2-0.1-0.3C3.9,14,3.8,14.1,3.7,14.2 M3.8,13.3
		c0,0.1,0,0.2,0.1,0.2s0.2,0,0.2-0.1s0-0.2-0.1-0.2C3.9,13.2,3.8,13.2,3.8,13.3z M4.7,14c0,0.1,0,0.2,0.1,0.2s0.2,0,0.2-0.1
		s0-0.2-0.1-0.2C4.8,13.8,4.7,13.9,4.7,14z M4.3,15c0,0.1,0,0.2,0.1,0.2s0.2,0,0.2-0.1s0-0.2-0.1-0.2C4.4,14.9,4.3,14.9,4.3,15z
		 M3.1,15c0,0.1,0,0.2,0.1,0.2s0.2,0,0.2-0.1s0-0.2-0.1-0.2C3.3,14.8,3.2,14.9,3.1,15z M2.9,13.9c0,0.1,0,0.2,0.1,0.2s0.2,0,0.2-0.1
		s0-0.2-0.1-0.2C3,13.8,2.9,13.8,2.9,13.9z M4.2,15.7c-0.1-0.1-0.3-0.1-0.3-0.3c-0.1,0.1-0.3,0.2-0.5,0.2c0,0-0.1,0-0.2,0
		c-0.1,0-0.1,0-0.2,0l0,0l0,0l0,0l0,0c-0.2-0.1-0.3-0.2-0.4-0.4l0,0c-0.1-0.2-0.1-0.4,0-0.5l0,0l0,0l0,0v-0.1l0,0l0,0
		c-0.1-0.1-0.2-0.2-0.3-0.3c-0.1-0.2-0.1-0.4,0-0.5l0,0l0,0l0,0l0,0l0,0c0.1-0.2,0.2-0.3,0.4-0.4l0,0c0.2-0.1,0.3-0.1,0.5,0l0,0l0,0
		l0,0l0,0l0,0l0,0l0,0l0,0l0,0l0,0c0.1-0.2,0.2-0.3,0.4-0.4l0,0c0.2-0.1,0.4-0.1,0.6,0l0,0l0,0c0.3,0.1,0.4,0.3,0.5,0.5v0.1
		c0.1,0,0.1,0,0.2,0H5c0,0,0,0,0.1,0l0,0l0,0l0,0l0,0l0,0c0.1-0.1,0.3,0,0.4,0.2c0.1,0.2,0.1,0.4,0,0.5l0,0l0,0
		c-0.1,0.2-0.2,0.3-0.4,0.4l0,0l0,0c0,0.1,0.1,0.2,0.1,0.3l0,0v0.1v0.1l0,0l0,0c-0.1,0.3-0.3,0.4-0.6,0.5l0,0c-0.1,0-0.1,0-0.2,0
		C4.3,15.7,4.2,15.7,4.2,15.7L4.2,15.7L4.2,15.7z M3.5,13.7l-0.2-0.1c0,0-0.1,0-0.1-0.1l0,0l0,0c-0.1,0-0.2,0-0.4,0l0,0
		c-0.1,0-0.2,0.1-0.2,0.2l0,0l0,0c0,0.1,0,0.2,0,0.3s0.1,0.2,0.3,0.2l0,0l0,0l0.2,0.1l-0.2,0.1c0,0,0,0,0,0.1l0,0l0,0c0,0,0,0,0,0.1
		l0,0l0,0c0,0.1,0,0.2,0,0.3l0,0c0,0.1,0.1,0.2,0.3,0.2l0,0l0,0h0.1h0.1c0.2,0,0.3-0.1,0.4-0.3l0.1-0.2H3.8l0,0l0,0
		c-0.4,0.2-0.6,0-0.6-0.3l0,0c0-0.1,0-0.1,0-0.2c0-0.1,0-0.1,0-0.2l0,0l0,0l0,0l0,0l0,0C3.3,13.9,3.4,13.8,3.5,13.7z M4.4,13.7
		l0.1-0.2l0,0l0,0l0,0v-0.1v-0.1c0-0.2-0.1-0.3-0.3-0.3l0,0l0,0c-0.1,0-0.2,0-0.4,0l0,0c-0.1,0-0.2,0.1-0.2,0.2l0,0l0,0l0,0l0,0
		c0,0.1,0,0.1,0,0.2v0.2c0,0,0,0,0.1,0l0,0c0.2-0.1,0.4-0.1,0.6,0l0,0l0,0l0,0l0,0l0,0C4.3,13.6,4.3,13.7,4.4,13.7z M4.6,14.5h0.2
		l0,0l0,0c0,0,0,0,0.1,0c0,0,0,0,0.1,0s0.2-0.1,0.2-0.3l0,0l0,0c0-0.1,0-0.2,0-0.3s-0.1-0.2-0.3-0.2l0,0l0,0l0,0l0,0l0,0l0,0
		c-0.1,0-0.2,0-0.2,0l-0.2,0.1c0.1,0.1,0.2,0.2,0.2,0.3C4.7,14.1,4.7,14.3,4.6,14.5L4.6,14.5L4.6,14.5L4.6,14.5L4.6,14.5L4.6,14.5
		L4.6,14.5z M4,15.2L4,15.2L4,15.2c0,0.1,0,0.1,0.1,0.1l0,0c0.1,0.1,0.1,0.2,0.2,0.2l0,0h0.1h0.1l0,0c0.2,0,0.3-0.1,0.4-0.3l0,0l0,0
		l0,0l0,0c0,0,0,0,0-0.1V15l0,0c0-0.1,0-0.2-0.1-0.3l-0.2-0.2c-0.1,0.2-0.2,0.3-0.4,0.4C4.1,14.9,4,15,3.9,15L4,15.2z M3.5,14.1
		L3.5,14.1v0.1v0.1l0,0c0,0.2,0.1,0.3,0.3,0.4l0,0l0,0c0.1,0,0.2,0,0.4,0c0.1,0,0.2-0.1,0.2-0.2l0,0l0,0l0,0l0,0c0-0.1,0-0.2,0-0.3
		S4.3,14,4.1,14l0,0l0,0l0,0l0,0c-0.1,0-0.2,0-0.4,0l0,0C3.6,13.9,3.5,14,3.5,14.1L3.5,14.1z"/>
	<path class="st2" d="M2.7,18c0,0.1,0.1,0.2,0.2,0.2c0.1,0,0.2-0.1,0.2-0.2S3,17.8,2.9,17.8S2.7,17.9,2.7,18 M2.6,17.1
		c0,0.1,0.1,0.2,0.2,0.2c0.1,0,0.2-0.1,0.2-0.1C3,17.1,2.9,17,2.8,17C2.7,17,2.6,17,2.6,17.1z M3.6,17.6c0,0.1,0.1,0.2,0.2,0.2
		c0.1,0,0.2-0.1,0.2-0.1c0-0.1-0.1-0.2-0.2-0.2C3.7,17.4,3.6,17.5,3.6,17.6z M3.4,18.7c0,0.1,0.1,0.2,0.2,0.2c0.1,0,0.2-0.1,0.2-0.1
		c0-0.1-0.1-0.2-0.2-0.2C3.5,18.5,3.4,18.6,3.4,18.7z M2.3,18.9c0,0.1,0.1,0.2,0.2,0.2c0.1,0,0.2-0.1,0.2-0.1c0-0.1-0.1-0.2-0.2-0.2
		C2.4,18.7,2.3,18.8,2.3,18.9z M1.8,17.9c0,0.1,0.1,0.2,0.2,0.2S2.2,18,2.2,18c0-0.1-0.1-0.2-0.2-0.2C1.9,17.8,1.8,17.9,1.8,17.9z
		 M3.5,19.4c-0.2,0-0.3-0.1-0.4-0.2c-0.1,0.1-0.2,0.3-0.4,0.3c0,0-0.1,0-0.2,0c-0.1,0-0.1,0-0.2,0l0,0l0,0l0,0l0,0
		c-0.2,0-0.4-0.1-0.5-0.3l0,0c-0.1-0.1-0.2-0.3-0.2-0.5l0,0l0,0l0,0v-0.1l0,0l0,0c-0.1,0-0.3-0.1-0.4-0.2c0.1-0.1,0-0.3,0-0.5l0,0
		l0,0l0,0l0,0l0,0c0-0.2,0.1-0.3,0.3-0.5l0,0c0.1-0.1,0.3-0.2,0.5-0.2l0,0l0,0l0,0l0,0l0,0l0,0l0,0l0,0l0,0l0,0
		c0-0.2,0.1-0.3,0.3-0.5l0,0c0.1-0.1,0.3-0.2,0.5-0.1l0,0l0,0c0.3,0,0.5,0.2,0.6,0.4v0.1c0.1,0,0.1,0,0.2,0h0.1c0,0,0,0,0.1,0l0,0
		l0,0l0,0l0,0l0,0c0.2,0,0.4,0.1,0.5,0.3c0.1,0.1,0.2,0.3,0.2,0.5l0,0l0,0c0,0.2-0.1,0.4-0.3,0.5l0,0l0,0c0.1,0.1,0.1,0.2,0.2,0.3
		l0,0v0.1v0.1l0,0l0,0c0,0.3-0.2,0.5-0.5,0.6l0,0c-0.1,0-0.1,0-0.2,0C3.6,19.4,3.6,19.4,3.5,19.4L3.5,19.4L3.5,19.4z M2.3,17.6
		L2.3,17.6l-0.2-0.1l0,0l0,0c-0.1,0-0.2,0-0.3,0.1l0,0c-0.1,0.1-0.2,0.2-0.2,0.3l0,0l0,0c0,0.1,0,0.2,0.1,0.3
		c0.1,0.1,0.2,0.2,0.3,0.2l0,0l0,0h0.2l-0.1,0.2c0,0,0,0,0,0.1l0,0l0,0c0,0,0,0,0,0.1l0,0l0,0c0,0.1,0,0.2,0.1,0.3l0,0
		c0.1,0.1,0.2,0.2,0.3,0.2l0,0l0,0h0.1h0.1C2.9,19.2,3,19.1,3,18.9v-0.2H2.9l0,0l0,0c-0.3,0-0.5-0.2-0.6-0.5l0,0c0,0,0-0.1,0-0.2
		s0-0.1,0-0.2l0,0l0,0l0,0l0,0l0,0C2.2,17.8,2.3,17.7,2.3,17.6z M3.2,17.4v-0.2l0,0l0,0l0,0v-0.1V17c-0.1-0.1-0.2-0.3-0.4-0.3l0,0
		l0,0c-0.1,0-0.2,0-0.3,0.1l0,0c-0.1,0.1-0.2,0.2-0.2,0.3l0,0l0,0l0,0l0,0c0,0.1,0,0.1,0,0.2l0.1,0.2c0,0,0,0,0.1,0l0,0
		c0.1-0.1,0.3-0.2,0.5-0.1l0,0l0,0l0,0l0,0l0,0C3.1,17.4,3.2,17.4,3.2,17.4z M3.6,18.1L3.8,18l0,0l0,0c0,0,0,0,0.1,0c0,0,0,0,0.1,0
		c0.1-0.1,0.2-0.2,0.2-0.3l0,0l0,0c0-0.1,0-0.2-0.1-0.3c-0.1-0.1-0.2-0.2-0.3-0.2l0,0l0,0l0,0l0,0H3.7l0,0c-0.1,0-0.2,0-0.2,0.1
		l-0.3,0.1c0.1,0,0.2,0.1,0.3,0.2C3.6,17.7,3.7,17.9,3.6,18.1L3.6,18.1L3.6,18.1L3.6,18.1L3.6,18.1L3.6,18.1L3.6,18.1z M3.2,18.9
		L3.2,18.9L3.2,18.9c0,0.1,0,0.1,0.1,0.1l0,0c0.1,0.1,0.2,0.1,0.3,0.1l0,0h0.1h0.1l0,0C4,19,4.1,18.9,4.1,18.7l0,0l0,0l0,0l0,0
		c0,0,0,0,0-0.1c0,0,0,0,0-0.1l0,0c0-0.1-0.1-0.2-0.2-0.3l-0.2-0.1c0,0.2-0.1,0.3-0.3,0.4c-0.1,0.1-0.2,0.1-0.3,0.1L3.2,18.9z
		 M2.4,18L2.4,18v0.1v0.1l0,0c0.1,0.2,0.2,0.3,0.4,0.3l0,0l0,0c0.1,0,0.2,0,0.3-0.1s0.2-0.2,0.2-0.3l0,0l0,0l0,0l0,0
		c0-0.1,0-0.2-0.1-0.3c-0.1-0.1-0.2-0.2-0.3-0.2l0,0l0,0l0,0l0,0c-0.1,0-0.2,0-0.3,0.1l0,0C2.5,17.8,2.5,17.9,2.4,18L2.4,18z"/>
	<path class="st2" d="M2.6,22c0,0.1,0.1,0.2,0.2,0.2C2.9,22.2,3,22.1,3,22s-0.1-0.2-0.2-0.2S2.6,21.9,2.6,22 M2.3,21.1
		c0,0.1,0.1,0.2,0.2,0.1c0.1,0,0.2-0.1,0.2-0.2s-0.1-0.2-0.2-0.1C2.4,21,2.3,21,2.3,21.1z M3.4,21.4c0,0.1,0.1,0.2,0.2,0.1
		c0.1,0,0.2-0.1,0.2-0.2s-0.1-0.2-0.2-0.1C3.4,21.2,3.4,21.3,3.4,21.4z M3.5,22.5c0,0.1,0.1,0.2,0.2,0.1c0.1,0,0.2-0.1,0.2-0.2
		s-0.1-0.2-0.2-0.1C3.6,22.3,3.5,22.4,3.5,22.5z M2.5,22.9c0,0.1,0.1,0.2,0.2,0.2c0.1,0,0.2-0.1,0.2-0.2s-0.1-0.2-0.2-0.1
		C2.5,22.7,2.5,22.8,2.5,22.9z M1.7,22.1c0,0.1,0.1,0.2,0.2,0.1c0.1,0,0.2-0.1,0.2-0.2S2,21.8,1.9,21.9C1.8,21.9,1.7,22,1.7,22.1z
		 M3.8,23.1c-0.2,0-0.3,0-0.4-0.1c-0.1,0.2-0.2,0.3-0.3,0.4c0,0-0.1,0-0.1,0.1c0,0-0.1,0-0.2,0l0,0l0,0l0,0l0,0
		c-0.2,0-0.4,0-0.5-0.2l0,0C2.2,23.2,2.1,23,2,22.8l0,0l0,0l0,0v-0.1l0,0l0,0c-0.2,0-0.3-0.1-0.4-0.2c-0.3,0-0.4-0.2-0.4-0.3l0,0
		l0,0l0,0l0,0l0,0c0-0.2,0-0.4,0.2-0.5l0,0c0.1-0.1,0.3-0.2,0.4-0.3l0,0l0,0l0,0l0,0l0,0l0,0l0,0l0,0l0,0l0,0c0-0.2,0-0.4,0.2-0.5
		l0,0c0.1-0.1,0.3-0.2,0.5-0.3l0,0l0,0c0.3,0,0.5,0.1,0.7,0.3c0,0,0,0.1,0.1,0.1c0,0,0.1-0.1,0.2-0.1h0.1c0,0,0,0,0.1,0l0,0l0,0l0,0
		l0,0l0,0c0.2,0,0.4,0,0.5,0.2c0.1,0.1,0.2,0.3,0.3,0.5l0,0l0,0c0,0.2,0,0.4-0.2,0.5l0,0l0,0c0.1,0.1,0.2,0.2,0.2,0.3l0,0v0.1v0.1
		l0,0l0,0c0,0.3-0.1,0.5-0.3,0.7l0,0l-0.1,0.1C3.9,23.1,3.8,23.1,3.8,23.1L3.8,23.1L3.8,23.1z M2.2,21.6H2H1.9l0,0l0,0
		c-0.1,0-0.2,0.1-0.3,0.2l0,0c-0.1,0.1-0.1,0.2-0.1,0.3l0,0l0,0c0,0.1,0.1,0.2,0.2,0.3c0.1,0.1,0.2,0.1,0.3,0.1l0,0l0,0h0.2v0.2
		c0,0,0,0,0,0.1l0,0l0,0c0,0,0,0,0,0.1l0,0l0,0c0,0.1,0.1,0.2,0.2,0.3l0,0c0.1,0.1,0.2,0.1,0.3,0.1l0,0l0,0h0.1h0.1
		c0.1-0.1,0.2-0.2,0.2-0.4v-0.2H3l0,0l0,0c-0.3,0-0.6-0.1-0.7-0.3l0,0l-0.1-0.1c0,0,0-0.1,0-0.2l0,0l0,0l0,0l0,0l0,0
		C2.1,21.9,2.1,21.8,2.2,21.6z M3,21.2L2.9,21l0,0l0,0l0,0v-0.1c0,0,0-0.1-0.1-0.1c-0.1-0.1-0.3-0.2-0.4-0.2l0,0l0,0
		c-0.1,0-0.2,0.1-0.3,0.2l0,0C2,20.9,2,21,2,21.1l0,0l0,0l0,0l0,0c0,0.1,0,0.1,0.1,0.2l0.1,0.3c0,0,0,0,0-0.1l0,0
		c0.1-0.1,0.3-0.2,0.5-0.3l0,0l0,0l0,0l0,0l0,0C2.9,21.2,2.9,21.2,3,21.2z M3.6,21.9l0.2-0.1l0,0l0,0c0,0,0,0,0.1,0c0,0,0,0,0-0.1
		C4,21.6,4,21.5,4,21.4l0,0l0,0c0-0.1-0.1-0.2-0.2-0.3C3.7,21,3.6,21,3.5,21l0,0l0,0l0,0l0,0H3.4l0,0c-0.1,0-0.2,0.1-0.2,0.1L3,21.3
		c0.1,0,0.2,0.1,0.3,0.1C3.5,21.5,3.6,21.7,3.6,21.9L3.6,21.9L3.6,21.9L3.6,21.9L3.6,21.9L3.6,21.9L3.6,21.9z M3.3,22.7L3.3,22.7
		L3.3,22.7C3.4,22.8,3.4,22.8,3.3,22.7L3.3,22.7c0.2,0.1,0.3,0.2,0.4,0.1l0,0h0.1h0.1l0,0c0.1-0.1,0.2-0.3,0.2-0.4l0,0l0,0l0,0l0,0
		c0,0,0,0,0-0.1c0,0,0,0,0-0.1l0,0C4,22.1,3.9,22,3.8,22l-0.2-0.1c0,0.2,0,0.4-0.2,0.5c-0.1,0.1-0.1,0.1-0.2,0.2L3.3,22.7z M2.4,22
		L2.4,22v0.1v0.1l0,0c0.1,0.1,0.3,0.2,0.5,0.2l0,0l0,0c0.1,0,0.2-0.1,0.3-0.2s0.1-0.2,0.1-0.3l0,0l0,0l0,0l0,0
		c0-0.1-0.1-0.2-0.2-0.3c-0.1-0.1-0.2-0.1-0.3-0.1l0,0l0,0l0,0l0,0c-0.1,0-0.2,0.1-0.3,0.2l0,0C2.4,21.7,2.4,21.9,2.4,22L2.4,22z"/>
	<path class="st2" d="M3.5,25.8c0,0.1,0.2,0.2,0.3,0.1c0.1,0,0.2-0.2,0.1-0.3c0-0.1-0.2-0.2-0.3-0.1C3.5,25.6,3.5,25.7,3.5,25.8
		 M3,25.1c0,0.1,0.1,0.1,0.2,0.1c0.1,0,0.1-0.1,0.1-0.2s-0.1-0.1-0.2-0.1C3,24.9,3,25,3,25.1z M4.1,25.1c0,0.1,0.1,0.1,0.2,0.1
		s0.1-0.1,0.1-0.2c0-0.2-0.1-0.2-0.2-0.2C4.1,24.9,4.1,25,4.1,25.1z M4.5,26.1c0,0.1,0.1,0.1,0.2,0.1s0.1-0.1,0.1-0.2
		s-0.1-0.1-0.2-0.1C4.5,25.9,4.5,26,4.5,26.1z M3.6,26.8c0,0.1,0.1,0.1,0.2,0.1c0.1,0,0.1-0.1,0.1-0.2s-0.1-0.1-0.2-0.1
		C3.6,26.6,3.6,26.7,3.6,26.8z M2.7,26.1c0,0.1,0.1,0.1,0.2,0.1C3,26.2,3,26.1,3,26s-0.1-0.1-0.2-0.1C2.7,26,2.7,26.1,2.7,26.1z
		 M4.9,26.7c-0.1,0.1-0.3,0.1-0.4,0c0,0.2-0.1,0.3-0.2,0.5l-0.1,0.1l-0.1,0.1l0,0l0,0l0,0l0,0c-0.2,0.1-0.4,0-0.5,0l0,0
		c-0.2-0.1-0.3-0.2-0.4-0.4l0,0l0,0l0,0v-0.1l0,0l0,0c-0.2,0-0.3,0-0.4-0.1c-0.4-0.2-0.6-0.3-0.6-0.5l0,0l0,0l0,0l0,0l0,0
		c-0.1-0.2,0-0.4,0-0.5l0,0c0.1-0.2,0.2-0.3,0.4-0.4l0,0l0,0l0,0l0,0l0,0l0,0l0,0l0,0l0,0l0,0c-0.1-0.2,0-0.4,0-0.5l0,0
		c0.1-0.2,0.2-0.3,0.4-0.4l0,0l0,0c0.3-0.1,0.5,0,0.7,0.1c0,0,0.1,0,0.1,0.1l0.1-0.1c0,0,0,0,0.1,0c0,0,0,0,0.1,0l0,0l0,0l0,0l0,0
		l0,0c0.2-0.1,0.4,0,0.5,0C4.8,24.7,4.9,24.8,5,25l0,0l0,0c0.1,0.2,0.1,0.4,0,0.5l0,0l0,0c0.1,0,0.2,0.1,0.3,0.2l0,0
		c0,0,0,0.1,0.1,0.1c0,0,0,0.1,0.1,0.1l0,0l0,0c0.1,0.3,0,0.5-0.2,0.7l0,0l-0.1,0.1C5,26.6,5,26.7,4.9,26.7L4.9,26.7L4.9,26.7z
		 M3,25.6H2.8H2.7l0,0l0,0c-0.1,0-0.2,0.1-0.3,0.2l0,0c0,0.1-0.1,0.2,0,0.3l0,0l0,0c0,0.1,0.1,0.2,0.2,0.3c0.1,0,0.2,0.1,0.4,0l0,0
		l0,0l0.2-0.1v0.2c0,0,0,0,0,0.1l0,0l0,0c0,0,0,0,0,0.1l0,0l0,0c0,0.1,0.1,0.2,0.2,0.3l0,0c0.1,0,0.2,0.1,0.4,0l0,0l0,0h0.1
		c0,0,0.1,0,0.1-0.1c0.2,0,0.2-0.2,0.2-0.4l-0.1-0.2c0,0-0.1,0-0.1,0.1l0,0l0,0c-0.3,0.1-0.6,0-0.8-0.2l0,0l-0.1-0.1L3,26l0,0l0,0
		l0,0l0,0l0,0C3,25.9,3,25.7,3,25.6z M3.7,25l-0.1-0.2l0,0l0,0l0,0c0,0,0-0.1-0.1-0.1c0,0,0,0-0.1-0.1s-0.3-0.1-0.5-0.1l0,0l0,0
		c-0.1,0-0.2,0.1-0.3,0.2l0,0c0,0.1-0.1,0.2,0,0.3l0,0l0,0l0,0l0,0l0.1,0.1l0.2,0.1c0,0,0,0,0-0.1l0,0c0.1-0.2,0.2-0.3,0.4-0.4l0,0
		l0,0l0,0l0,0l0,0C3.6,25.1,3.6,25,3.7,25z M4.4,25.5l0.2-0.2l0,0l0,0c0,0,0,0,0-0.1c0,0,0,0,0-0.1c0.1-0.1,0.1-0.2,0-0.4l0,0l0,0
		c0-0.1-0.1-0.2-0.2-0.2s-0.2-0.1-0.4,0l0,0l0,0l0,0l0,0l0,0l0,0c-0.1,0-0.1,0.1-0.2,0.2l-0.1,0.2c0.1,0,0.2,0,0.3,0.1
		C4.2,25.2,4.4,25.3,4.4,25.5L4.4,25.5L4.4,25.5L4.4,25.5L4.4,25.5L4.4,25.5L4.4,25.5z M4.4,26.4L4.4,26.4L4.4,26.4
		c0.1,0,0.1,0,0.1,0.1l0,0c0.1,0,0.2,0,0.3,0l0,0h0.1c0,0,0.1,0,0.1-0.1l0,0c0.1-0.1,0.2-0.3,0.1-0.5l0,0l0,0l0,0l0,0c0,0,0,0,0-0.1
		c0,0,0,0,0-0.1l0,0c-0.1-0.1-0.2-0.2-0.3-0.2H4.5c0.1,0.2,0,0.4,0,0.5s-0.1,0.2-0.2,0.2L4.4,26.4z M3.3,25.9L3.3,25.9
		C3.3,25.9,3.3,26,3.3,25.9c0.1,0.1,0.1,0.2,0.1,0.2l0,0c0.1,0.1,0.3,0.2,0.5,0.1l0,0l0,0c0.1,0,0.2-0.1,0.3-0.2c0-0.2,0-0.3,0-0.4
		l0,0l0,0l0,0l0,0c0-0.1-0.1-0.2-0.2-0.3c-0.1,0-0.2-0.1-0.4,0l0,0l0,0l0,0l0,0c-0.1,0-0.2,0.1-0.3,0.2l0,0
		C3.3,25.7,3.2,25.8,3.3,25.9L3.3,25.9z"/>
	<path class="st2" d="M5.3,29.4c0.1,0.1,0.2,0.1,0.3,0.1c0.1-0.1,0.1-0.2,0.1-0.3c-0.1-0.1-0.2-0.1-0.3-0.1
		C5.3,29.1,5.3,29.3,5.3,29.4 M4.6,28.8c0.1,0.1,0.2,0.1,0.2,0c0.1-0.1,0.1-0.2,0-0.2c-0.1-0.1-0.2-0.1-0.2,0
		C4.6,28.6,4.6,28.7,4.6,28.8z M5.7,28.5c0.1,0.1,0.2,0.1,0.2,0c0.1-0.1,0.1-0.2,0-0.2c-0.1-0.1-0.2-0.1-0.2,0
		C5.7,28.3,5.7,28.4,5.7,28.5z M6.4,29.4c0.1,0.1,0.2,0.1,0.2,0c0.1-0.1,0.1-0.2,0-0.2c-0.1-0.1-0.2-0.1-0.2,0
		C6.3,29.2,6.3,29.3,6.4,29.4z M5.6,30.3c0.1,0.1,0.2,0.1,0.2,0c0.1-0.1,0.1-0.2,0-0.2c-0.1-0.1-0.2-0.1-0.2,0
		C5.6,30.1,5.6,30.2,5.6,30.3z M4.6,29.9c0.1,0.1,0.2,0.1,0.2,0c0.1-0.1,0.1-0.2,0-0.2c-0.1-0.1-0.2-0.1-0.2,0
		C4.6,29.7,4.5,29.8,4.6,29.9z M6.9,29.9C6.8,30,6.6,30,6.5,30c0,0.2,0,0.3-0.1,0.5l-0.1,0.1l-0.1,0.1l0,0l0,0l0,0l0,0
		c-0.3,0.1-0.4,0.2-0.6,0.1l0,0c-0.2,0-0.4-0.1-0.5-0.3l0,0l0,0l0,0v-0.1l0,0l0,0c-0.1,0.1-0.3,0.1-0.4,0c-0.2,0-0.4-0.1-0.5-0.3
		l0,0l0,0l0,0l0,0l0,0c-0.1-0.2-0.1-0.3-0.1-0.5l0,0c0-0.2,0.1-0.3,0.3-0.4l0,0l0,0l0,0l0,0l0,0l0,0l0,0l0,0l0,0l0,0
		c-0.1-0.2-0.1-0.3-0.1-0.5l0,0c0-0.2,0.1-0.3,0.3-0.4l0,0l0,0c0.2-0.1,0.5-0.2,0.7,0h0.1c0-0.1,0.1-0.1,0.1-0.1s0,0,0.1-0.1
		c0,0,0,0,0.1,0l0,0l0,0l0,0l0,0l0,0C5.9,28,6.1,28,6.2,28c0.2,0,0.4,0.1,0.5,0.3l0,0l0,0c0.1,0.2,0.1,0.4,0.1,0.5l0,0l0,0
		c0.1,0,0.2,0.1,0.3,0.1l0,0c0,0,0.1,0,0.1,0.1l0.1,0.1l0,0l0,0c0.2,0.2,0.2,0.5,0,0.7l0,0l-0.1,0.1C7,29.8,6.9,29.9,6.9,29.9
		L6.9,29.9L6.9,29.9z M4.8,29.3l-0.2,0.1c0,0-0.1,0-0.1,0.1l0,0l0,0c-0.1,0.1-0.2,0.2-0.2,0.3l0,0c0,0.1,0,0.2,0.1,0.3l0,0l0,0
		c0.1,0.1,0.2,0.2,0.3,0.2c0.1,0,0.2,0,0.3-0.1l0,0l0,0L5.2,30v0.2c0,0,0,0,0,0.1l0,0l0,0l0,0l0,0l0,0c0.1,0.1,0.2,0.2,0.3,0.2l0,0
		c0.1,0,0.2,0,0.3-0.1l0,0l0,0c0,0,0.1,0,0.1-0.1c0,0,0-0.1,0.1-0.1c0.1-0.1,0.1-0.3,0-0.5v0.1l-0.1,0.1l0,0l0,0
		c-0.2,0.2-0.5,0.2-0.8,0l0,0L5,29.8l-0.1-0.1l0,0l0,0l0,0l0,0l0,0C4.8,29.5,4.8,29.4,4.8,29.3z M5.3,28.6l-0.1-0.2l0,0l0,0l0,0
		c0,0,0,0-0.1-0.1H5c-0.1-0.1-0.3-0.1-0.5,0l0,0l0,0c-0.1,0.1-0.2,0.2-0.2,0.3l0,0c0,0.1,0,0.2,0.1,0.3l0,0l0,0l0,0l0,0L4.5,29
		l0.2,0.1c0,0,0,0,0-0.1l0,0c0-0.2,0.1-0.3,0.3-0.4l0,0l0,0l0,0l0,0l0,0C5.2,28.6,5.2,28.6,5.3,28.6z M6.1,28.9l0.1-0.2l0,0l0,0
		c0,0,0,0,0-0.1c0,0,0,0,0-0.1s0-0.2-0.1-0.3l0,0l0,0C6,28.1,5.9,28,5.8,28c-0.1,0-0.2,0-0.3,0.1l0,0l0,0l0,0l0,0l0,0l0,0
		c-0.1,0.1-0.1,0.1-0.1,0.2l-0.1,0.2c0.1,0,0.2,0,0.3,0C5.8,28.6,6,28.7,6.1,28.9L6.1,28.9L6.1,28.9L6.1,28.9L6.1,28.9L6.1,28.9
		L6.1,28.9z M6.3,29.7L6.3,29.7L6.3,29.7C6.4,29.7,6.4,29.7,6.3,29.7L6.3,29.7c0.2,0,0.3,0,0.4-0.1l0,0c0,0,0.1,0,0.1-0.1
		c0,0,0-0.1,0.1-0.1l0,0c0.1-0.1,0.1-0.3,0-0.5l0,0l0,0l0,0l0,0c0,0,0,0,0-0.1c0,0,0,0-0.1,0l0,0c-0.2,0.1-0.3,0-0.4,0H6.2
		c0,0.2,0.1,0.4,0,0.6c0,0.1-0.1,0.2-0.1,0.3H6.3z M5.1,29.5L5.1,29.5C5.1,29.5,5.2,29.6,5.1,29.5c0.1,0.1,0.1,0.1,0.2,0.1l0,0
		c0.2,0.1,0.3,0.1,0.5,0l0,0l0,0C5.9,29.5,6,29.4,6,29.3c0-0.1,0-0.2-0.1-0.3l0,0l0,0l0,0l0,0c-0.1-0.1-0.2-0.2-0.3-0.2
		s-0.2,0-0.3,0.1l0,0l0,0l0,0l0,0c-0.1,0.1-0.2,0.2-0.2,0.3l0,0C5,29.3,5,29.4,5.1,29.5L5.1,29.5z"/>
	<path class="st3" d="M25.4,29.5v0.6c0,0.2-0.1,0.4-0.2,0.5s-0.3,0.1-0.6,0.1h-1.2c-0.2,0-0.4,0-0.5-0.1s-0.2-0.3-0.2-0.5v-1.6
		c0-0.2,0.1-0.4,0.2-0.5s0.3-0.2,0.5-0.2h1.2c0.3,0,0.5,0.1,0.6,0.1c0.1,0.1,0.2,0.3,0.2,0.5v0.4h-1.2v-0.2c0-0.1,0-0.1,0-0.2h-0.1
		c-0.1,0-0.1,0-0.1,0s0,0.1,0,0.2v1.2c0,0.1,0,0.1,0,0.2h0.1c0.1,0,0.1,0,0.1,0s0-0.1,0-0.2v-0.3H25.4z M22.5,30v0.7h-0.9V30H22.5z
		 M21.3,29.5v0.6c0,0.2-0.1,0.4-0.2,0.5s-0.3,0.1-0.6,0.1h-1.2c-0.2,0-0.4,0-0.5-0.1s-0.2-0.3-0.2-0.5v-1.6c0-0.2,0.1-0.4,0.2-0.5
		s0.3-0.2,0.5-0.2h1.2c0.3,0,0.5,0.1,0.6,0.1c0.1,0.1,0.2,0.3,0.2,0.5v0.4h-1.2v-0.2c0-0.1,0-0.1,0-0.2H20c-0.1,0-0.1,0-0.1,0
		s0,0.1,0,0.2v1.2c0,0.1,0,0.1,0,0.2H20c0.1,0,0.1,0,0.1,0s0-0.1,0-0.2v-0.3H21.3z M18.3,30v0.7h-0.9V30H18.3z M14.5,30.6v-2.8h1.1
		v1.1l0.4-1.1h1.2l-0.4,1.3l0.5,1.5h-1.2l-0.4-1.3v1.3H14.5z"/>
	<path class="st1" d="M9.2,19.1c0,0-0.1-0.6,0-0.9s1.1-0.6,1.4-0.5c0.3,0.1,1.1,0.4,1.1,0.4s0.3,1.8,1.3,2c0.9,0.2,2,0.1,2.3-0.1
		c0.2-0.1,0.4-0.1,0.5-0.2c0.2-0.1,0.3-0.3,0.3-0.3s-0.6,0.3-0.7-0.2c-0.1-0.5-0.1-1.4-0.1-1.4s-0.4-0.5-0.4-0.1
		c0,0.3-0.1,0.7,0,0.9c0.1,0.2-0.1,0.7-0.5,0.5c-0.3-0.2-0.3-0.9-0.3-0.9s0.3-0.9,0.5-1.5c0-0.1,0.1-0.5,0.1-0.5
		c0.2-0.6-0.1-0.8,0-1s-0.3-1.2,0-1.8s0.2-0.9,0.9-1c0.8-0.1,1-0.1,1.3-0.1s1.2,0.2,1.2,0.8s0.6,2.8,1.6,2.7c0.3,0,0.5,0.4,1.1,0.4
		c1.2,0,2.8-0.8,2.9-1.2c0.2-0.5,0.3-0.8,0.7-0.5c0.3,0.4,0.2,0.4,0.4,0.6c0.2,0.1,0.2-0.2,0.3-0.3c0.2-0.3,0.5-0.8,0.7-0.3
		c0.1,0.4,0,0.3,0,0.7s0,1,0.3,0.8c0.3-0.3,0.4-0.5,0.3-0.9s-0.2-0.7,0.1-0.7c0.1,0,0.4-0.1,0.5-0.1c0.2,0.3,0.2,1.1,0.4,0.8
		c0.3-0.3,0-0.6,0-1.3c0-0.3-0.1-0.6,0-0.9c0.2-0.4,0.7-0.7,1.3-0.6c0.8,0.2,0.9,0.4,1.1,0.6c0,0.1,0.2,0.4,0.2,0.5
		c0,0.3,0.4,1.3,0.4,2c0,0.4-0.1,1-0.1,1.1c0,0.4,0.2,1.9,0.2,2.1c0,0.2,0.3,0.6,0.3,0.6s-0.5,1.3-0.4,1.8s0.1,2.5-0.1,3.1
		c0,0.1,0,0.3-0.1,0.5c-0.2,0.4-0.6,0.9-1,1.3s-0.9,0.6-1.1,0.6c-0.3,0-0.8,0.1-0.8,0.1s-0.6,0.3-0.9-0.1s-0.3-0.4-0.9-0.5
		C25,26,24.9,25.8,25,25c0-0.1,0-0.4,0-0.5c0-0.8-0.8-2.2-2.1-2.5c-1.4-0.3-3.7-0.6-4.2-0.3c-0.5,0.3-1.9,0.8-2.4,1.2
		c-0.2,0.2-0.6,0.3-0.8,0.5c-0.3,0.3-0.6,0.6-0.6,0.8c0,0.3-0.6,1.8-1.6,1.9c-0.4,0-1.1,0-1.7,0c-0.8,0-1.7,0-1.8-0.2
		s-0.2-0.7-0.3-1c-0.1,0.1-0.3,0-0.3-0.2s0.1-0.3,0.1-0.4c0.3-0.6,0.1-0.7,0-1.1c-0.2-0.4-0.5-1-0.4-1.5s0.3-0.8,0.1-1.1
		c-0.2-0.3-0.1-0.5,0-0.8C9,19.5,9.2,19.1,9.2,19.1"/>
	<path class="st1" d="M19.7,12.6c0.1-0.2,0.5-1,0.8-1c0.3-0.1,0.4,0,0.4,0s0.2-0.5,0.4-0.3c0.2,0.1,0.6,0.4,0.6,0.4s0.2-0.5,0.5-0.2
		s1,0.7,1,0.7l0.3,0.5c0,0-0.3,0.2-0.9,0.3c-0.5,0.1-0.6-0.1-0.6-0.1s-0.1,0.2-0.5,0.2c-0.4,0.1-0.5,0-0.8,0c-0.4-0.1-0.5,0-0.8,0
		C19.8,12.9,19.6,12.8,19.7,12.6"/>
	<path class="st1" d="M9.1,15.6c0.1-0.3,0.6-1,0.9-1.1c0.3-0.1,0.2-0.3,0.2-0.3s0.1-0.6,0.3-0.5c0,0,0.1,0.1,0.2,0.1
		c0.1,0,0.1-0.4,0.2-0.3c0.1,0,0.6,0.3,0.8,0.4c0,0,0.5-0.3,0.9,0.1c0.4,0.4,0.6,0.5,0.6,0.5l0.4,0.6c0,0-0.4,0.2-0.9,0.4
		c-0.4,0.1-0.8,0.1-1.3,0.3c-0.4,0.1-0.6,0.3-1.1,0.3c-0.4,0-0.6-0.3-0.9-0.3S9,15.9,9.1,15.6"/>
	<path class="st1" d="M24.6,12.5c-0.1,0,0.3-0.6,0.5-0.7c0.1-0.1,0.3-0.2,0.3-0.2s0.3-0.1,0.4-0.1c0.2,0,0.6,0.3,0.6,0.3h0.3
		l0.1,0.3c0,0-0.1,0.3-0.5,0.4c-0.5,0.1-0.7,0.2-0.7,0.2l-0.8-0.1C24.7,12.6,24.7,12.5,24.6,12.5"/>
	<path class="st1" d="M12.7,18c-0.1,0,0.4,0,0.5,0s0.4,0.3,0.4,0.3s0.2,0.3,0,0.3s-0.2-0.1-0.3-0.1s-0.5,0.1-0.5,0.1s-0.2,0.1-0.2,0
		s-0.2-0.4-0.2-0.4S12.8,17.9,12.7,18"/>
	<path class="st1" d="M16.6,24.1c-0.2-0.1,0.6-0.3,0.8-0.1c0.2,0.2,0.3,0.3,0.3,0.3s-0.3,0.3-0.6,0.3c-0.3,0-0.4-0.1-0.4-0.1
		S16.8,24.2,16.6,24.1"/>
	<path class="st1" d="M18.7,23.6c0,0,0,0.1,0.2,0.1c0.1,0,0.8-0.3,0.8,0c0,0.1-0.3,0.3-0.7,0.2c-0.5-0.1-0.4-0.1-0.4-0.1L18.7,23.6z
		"/>
	<path class="st0" d="M20,7.4c-7.1,0-12.8,5.7-12.8,12.8S13,33,20,33s12.8-5.8,12.8-12.8C32.8,13.1,27,7.4,20,7.4 M20,7.3
		c7.1,0,12.9,5.8,12.9,12.9S27.1,33.1,20,33.1S7.1,27.3,7.1,20.2C7.1,13.1,12.9,7.3,20,7.3z"/>
</g>
<g>
	<path d="M56.4,6.1c0.6,0.2,1.1,0.4,1.5,0.5c0.6,0.2,0.8,0.3,0.8,0.5s-0.1,0.3-0.4,0.3c0.9,1,1.8,1.7,2.8,2.3
		c1.2,0.6,2.5,1.1,3.7,1.3l-0.1,0.3c-0.4,0.2-0.7,0.5-0.9,1c-0.1,0.3-0.2,0.5-0.4,0.5s-0.8-0.3-1.6-0.8c-0.8-0.6-1.6-1.3-2.4-2.2
		c-0.6-0.7-1.2-1.4-1.6-2.2c-0.8,1.2-1.7,2.2-2.7,3c-0.4,0.3-0.8,0.6-1.2,0.9c0.5,0.1,1.1,0.1,1.8,0.1h2.7c0,0,0.2-0.2,0.5-0.6
		c0.3-0.4,0.5-0.6,0.6-0.6c0.2,0,0.4,0.2,0.7,0.6c0.4,0.4,0.5,0.7,0.5,0.8c0,0.2-0.1,0.3-0.3,0.3h-2.2v2.6h2.7c0,0,0.2-0.3,0.5-0.7
		c0.4-0.5,0.6-0.8,0.7-0.8c0.2,0,0.5,0.3,0.9,0.8s0.6,0.8,0.6,0.9c0,0.2-0.1,0.3-0.3,0.3h-5.2v5.5h3.2c0.1,0,0.3-0.3,0.6-0.8
		c0.4-0.6,0.7-0.9,0.8-0.9c0.2,0,0.6,0.3,1,0.8c0.5,0.6,0.7,0.9,0.7,1c0,0.2-0.1,0.3-0.3,0.3h-11c-0.9,0-1.5,0-1.9,0.1L51,20.5
		c0.5,0.1,1.2,0.1,2.1,0.1h3.4v-5.5h-2.9c-0.9,0-1.5,0-1.9,0.1l-0.3-0.7c0.5,0.1,1.2,0.1,2.2,0.1h2.9V12h-0.7c-0.9,0-1.5,0-1.9,0.1
		l-0.2-0.5c-0.8,0.6-1.8,1.1-2.9,1.7L50.6,13c1-0.7,2.1-1.8,3.2-3C54.8,8.9,55.6,7.6,56.4,6.1z M52.8,15.9c0.9,0.5,1.6,0.9,1.9,1.2
		c0.4,0.5,0.7,0.9,0.7,1.3s-0.1,0.8-0.3,1s-0.5,0.4-0.8,0.4s-0.4-0.1-0.6-0.2c-0.1-0.1-0.2-0.5-0.4-1.1c-0.1-0.8-0.4-1.6-0.8-2.4
		L52.8,15.9z M60.4,15.7c0.5,0.2,1,0.4,1.5,0.6c0.5,0.2,0.7,0.4,0.7,0.6c0,0.1-0.1,0.2-0.3,0.2s-0.4,0.1-0.4,0.1
		c-0.7,1-1.5,1.8-2.6,2.6l-0.2-0.2C59.7,18.5,60.1,17.2,60.4,15.7z"/>
	<path d="M74.3,6.4c0.7,0.2,1.3,0.4,1.9,0.7h1.5c0.2-0.3,0.5-0.5,0.7-0.8C78.6,6.1,78.7,6,78.8,6s0.4,0.2,0.9,0.5
		c0.5,0.4,0.8,0.7,0.8,0.9c0,0.1-0.1,0.3-0.3,0.5C80,8,80,8.2,80,8.4v2.8c0,0.5,0,1.2,0.1,2.2c0,0.2-0.3,0.4-0.8,0.5
		c-0.2,0-0.4,0.1-0.5,0.1c-0.3,0-0.4-0.2-0.4-0.6v-0.6h-2.3v8.5c0,0.2-0.2,0.4-0.7,0.5c-0.2,0-0.4,0-0.5,0c-0.4,0-0.5-0.2-0.5-0.5
		c0.1-1.2,0.1-2.3,0.1-3.2V9.4C74.4,8.5,74.4,7.5,74.3,6.4z M76,9.6h2.3v-2H76V9.6z M76,12.4h2.3v-2.3H76V12.4z M81,6.3
		c0.7,0.2,1.4,0.5,2.1,0.8h1.7c0.1-0.1,0.3-0.3,0.3-0.3c0.3-0.3,0.5-0.4,0.6-0.4c0.2,0,0.5,0.2,1,0.6s0.7,0.7,0.7,0.8
		c0,0.1-0.1,0.3-0.4,0.5s-0.4,0.4-0.4,0.6v11.2c0,0.7-0.3,1.2-0.9,1.5c-0.5,0.3-0.8,0.4-1.2,0.4c-0.2,0-0.3-0.3-0.4-0.8
		c-0.2-0.6-0.9-1.1-2.1-1.5l0.1-0.4c1,0.2,1.9,0.4,2.5,0.4c0.2,0,0.4-0.2,0.4-0.6v-6.3h-2.2v0.4c0,0.2-0.3,0.4-0.8,0.5
		c-0.2,0-0.4,0.1-0.5,0.1c-0.3,0-0.5-0.2-0.5-0.5c0-0.6,0-1.2,0-1.8V8.8C81.1,8,81.1,7.1,81,6.3z M82.8,9.6H85v-2h-2.2V9.6z
		 M82.8,12.4H85v-2.3h-2.2V12.4z"/>
	<path d="M96.8,6.1c0.5,0.1,1.1,0.3,1.7,0.6h1.8c0.2-0.2,0.3-0.3,0.4-0.5c0.2-0.2,0.4-0.3,0.4-0.3c0.1,0,0.4,0.2,0.8,0.5
		s0.6,0.6,0.6,0.7c0,0.2-0.1,0.3-0.3,0.4c-0.2,0.1-0.3,0.3-0.3,0.4V15h0.2c0,0,0.1-0.2,0.1-0.5c0.1-0.5,0.2-0.8,0.3-0.8
		c0.1,0,0.3,0.3,0.5,0.8c0.2,0.4,0.2,0.7,0.2,0.7c0,0.2-0.1,0.3-0.3,0.3h-2.8v3.3c0,1.1,0,2,0.1,2.6c0,0.2-0.3,0.3-0.8,0.4
		c-0.2,0-0.4,0.1-0.5,0.1c-0.3,0-0.4-0.2-0.4-0.5c0-0.6,0.1-1.5,0.1-2.6v-1.5c-0.1,0-0.1,0-0.2,0.1c-0.3,0-0.4,0.1-0.4,0.2
		c-0.2,0.7-0.5,1.4-0.9,1.9c-0.3,0.5-0.7,1-1.2,1.6l0.1-0.3c0.3-0.8,0.5-1.5,0.6-2.2s0.3-1.5,0.4-2.5c0.5,0.1,1,0.3,1.4,0.5
		c0.2,0.1,0.4,0.2,0.5,0.2v-1.3H98c-0.7,0-1.3,0-1.7,0.1L96,14.8c0.3,0,0.7,0.1,1,0.1V9C97,7.7,96.9,6.8,96.8,6.1z M98.4,8.8h2.1
		V7.2h-2.1V8.8z M98.4,10.8h2.1V9.3h-2.1V10.8z M98.4,12.8h2.1v-1.5h-2.1V12.8z M98.4,14.9h2.1v-1.6h-2.1V14.9z M100.9,16.4
		c0.6,0.4,1.1,0.7,1.4,1.1c0.4,0.5,0.6,0.9,0.6,1.3s-0.1,0.7-0.4,1c-0.2,0.2-0.4,0.2-0.6,0.2c-0.1,0-0.2-0.1-0.3-0.2
		c-0.1-0.1-0.2-0.4-0.2-0.9c-0.1-0.7-0.3-1.5-0.7-2.4L100.9,16.4z M103.6,16.6c0.5,0.1,0.9,0.3,1.3,0.4s0.6,0.3,0.6,0.5
		c0,0.1-0.1,0.2-0.4,0.2c-0.2,0-0.4,0.1-0.4,0.2c-0.2,0.8-0.5,1.4-0.8,1.9s-0.6,1-1.1,1.6l-0.2-0.2c0.2-0.8,0.4-1.5,0.5-2.1
		C103.4,18.4,103.5,17.6,103.6,16.6z M108.8,7.7c-1,0.2-1.9,0.4-2.8,0.4c0.1,0.1,0.2,0.1,0.3,0.1c0.4,0.2,0.6,0.4,0.6,0.6
		c0,0.1-0.1,0.1-0.3,0.2c-0.2,0-0.3,0.1-0.3,0.1c-0.5,0.6-1.1,1.1-1.7,1.6c0.3,0.1,0.5,0.2,0.6,0.4c0.4,0.3,0.5,0.6,0.5,1
		c0,0.2-0.1,0.5-0.3,0.7c-0.1,0.2-0.3,0.2-0.5,0.2c-0.3,0-0.5-0.2-0.7-0.7c-0.3-0.7-0.7-1.3-1.4-1.9l0.1-0.2
		c0.4,0.1,0.8,0.2,1.1,0.3c0.3-0.7,0.6-1.5,0.8-2.3c-0.6,0-1.2,0-2,0l0.1-0.4c1-0.1,1.9-0.3,2.6-0.6c0.8-0.2,1.6-0.6,2.5-1.2
		c0.5,0.3,0.9,0.6,1.3,0.9s0.6,0.6,0.6,0.8c0,0.1-0.2,0.1-0.4,0.1L108.8,7.7z M107.5,9.1c0.5,0.2,1,0.4,1.4,0.6
		c0.4,0.2,0.7,0.4,0.7,0.6c0,0.1-0.1,0.2-0.4,0.2c-0.2,0-0.4,0.1-0.4,0.1c-0.9,1.2-2,2.4-3.2,3.4c1-0.1,2-0.2,2.9-0.3
		c-0.1-0.4-0.3-0.9-0.6-1.3l0.2-0.1c0.7,0.4,1.2,0.8,1.5,1.2c0.4,0.5,0.6,1,0.6,1.4s-0.1,0.7-0.3,0.9c-0.1,0.1-0.3,0.2-0.5,0.2
		s-0.3-0.1-0.4-0.2c-0.1-0.1-0.2-0.4-0.3-0.9c0-0.2-0.1-0.4-0.2-0.6c-0.4,0.2-0.8,0.4-1.2,0.6v6.5c0,0.2-0.3,0.4-0.8,0.5
		c-0.2,0-0.4,0.1-0.5,0.1c-0.3,0-0.4-0.2-0.4-0.6c0.1-0.6,0.1-1.5,0.1-2.7v-3.1c-0.3,0.1-0.7,0.2-1,0.3c-0.2,0-0.3,0.1-0.3,0.2
		c0,0,0,0.1,0,0.2c0,0.1-0.1,0.2-0.1,0.2c-0.2,0-0.4-0.4-0.7-1.1c-0.1-0.2-0.2-0.5-0.4-1c0.5,0,1-0.1,1.5-0.1
		C105.9,12.5,106.8,10.9,107.5,9.1z M107.9,16.6c0.8,0.4,1.4,0.9,1.8,1.3c0.5,0.6,0.7,1.1,0.7,1.6c0,0.4-0.1,0.7-0.4,1
		c-0.2,0.2-0.3,0.2-0.6,0.2c-0.2,0-0.3-0.1-0.5-0.2c-0.1-0.1-0.2-0.5-0.3-1c-0.1-0.8-0.4-1.7-0.9-2.7L107.9,16.6z"/>
	<path d="M118.6,9.4c0.5,0.1,1.2,0.1,2.1,0.1h0.8c0,0,0.2-0.2,0.5-0.6c0.4-0.5,0.6-0.7,0.6-0.7c0.2,0,0.5,0.2,0.9,0.7
		s0.6,0.8,0.6,0.8c0,0.2-0.1,0.3-0.2,0.3h-3.1c-0.9,0-1.5,0-1.9,0.1L118.6,9.4z M119.2,7.1c0.5,0.1,1.2,0.2,2.1,0.2
		c0,0,0.2-0.2,0.4-0.5c0.3-0.4,0.5-0.6,0.5-0.6c0.2,0,0.4,0.2,0.8,0.6c0.3,0.4,0.5,0.6,0.5,0.7c0,0.2-0.1,0.3-0.2,0.3h-2
		c-0.9,0-1.5,0-1.8,0.1L119.2,7.1z M119.2,11.6c0.4,0.1,1.1,0.1,1.9,0.1c0,0,0.2-0.2,0.5-0.6c0.3-0.5,0.6-0.7,0.6-0.7
		c0.2,0,0.5,0.2,0.8,0.7c0.4,0.4,0.6,0.7,0.6,0.8c0,0.2-0.1,0.3-0.3,0.3h-2.2c-0.8,0-1.3,0-1.7,0.1L119.2,11.6z M119.2,15.2
		c0.6,0.2,1.2,0.4,1.8,0.7h0.3c0.2-0.3,0.4-0.5,0.6-0.6c0.1-0.2,0.3-0.3,0.4-0.3s0.4,0.1,0.8,0.4c0.5,0.4,0.7,0.6,0.7,0.7
		c0,0.1-0.1,0.3-0.3,0.4c-0.1,0.1-0.2,0.3-0.2,0.4v2.2c0,0.5,0,1.1,0.1,1.9c0,0.2-0.2,0.3-0.7,0.4c-0.2,0-0.4,0.1-0.5,0.1
		c-0.2,0-0.4-0.2-0.4-0.5v-0.9h-1V21c0,0.2-0.2,0.3-0.7,0.4c-0.2,0-0.4,0.1-0.4,0.1c-0.3,0-0.4-0.2-0.4-0.5c0-0.5,0.1-1.1,0.1-1.6
		v-2.2C119.3,16.7,119.3,15.9,119.2,15.2z M119.2,13.9c0.4,0.1,1,0.1,1.8,0.1c0,0,0.2-0.2,0.5-0.6c0.3-0.5,0.6-0.7,0.6-0.7
		c0.2,0,0.5,0.2,0.8,0.7c0.4,0.4,0.6,0.7,0.6,0.8c0,0.2-0.1,0.3-0.3,0.3H121c-0.8,0-1.3,0-1.6,0.1L119.2,13.9z M120.8,19.9h1v-3.5
		h-1V19.9z M127.6,14.2c-0.1,0-0.2,0-0.3,0v1.3h1.4c0-0.3-0.1-0.7-0.1-1.1c0-0.6,0-1.2-0.1-1.8c0.7,0.1,1.2,0.2,1.6,0.3
		c0.3,0,0.6,0.1,0.6,0.2V13c0.6,0.1,1,0.3,1.2,0.4c0.2,0.1,0.3,0.3,0.3,0.5s-0.1,0.5-0.3,0.7c0.2,0.1,0.3,0.2,0.5,0.5
		c0.3,0.4,0.5,0.6,0.5,0.7c0,0.2-0.1,0.3-0.2,0.3H130c0,0.2,0.1,0.3,0.1,0.5c0.1,0.4,0.1,0.8,0.3,1.2c0.3-0.4,0.5-0.9,0.7-1.4
		c0.4,0.3,0.8,0.5,1.1,0.7c0.4,0.2,0.5,0.4,0.5,0.6c0,0.1-0.1,0.2-0.3,0.2l-0.4-0.1c-0.4,0.5-0.7,0.9-1,1.3c0.1,0.1,0.1,0.2,0.2,0.3
		c0.3,0.3,0.5,0.5,0.6,0.5s0.3-0.2,0.5-0.7c0.1-0.2,0.2-0.6,0.4-1l0.3,0.1c-0.1,0.9-0.2,1.5-0.2,1.7c0,0.3,0.1,0.5,0.2,0.8
		c0.1,0.3,0.2,0.5,0.2,0.6c0,0.4-0.2,0.6-0.6,0.6c-0.4,0-0.8-0.1-1.3-0.4s-0.9-0.6-1.2-1c-0.1-0.1-0.2-0.2-0.2-0.3
		c-0.5,0.5-1.4,0.9-2.6,1.3l-0.1-0.2c0.9-0.5,1.6-1.1,2.1-1.7c0.1-0.1,0.1-0.2,0.2-0.3c-0.1-0.2-0.2-0.4-0.3-0.7
		c-0.2-0.5-0.4-1.4-0.5-2.5h-1.5v1c0.4,0,0.9-0.1,1.3-0.2l0.1,0.2c-0.4,0.3-0.9,0.6-1.3,0.9v2c0,0.8-0.2,1.3-0.7,1.6
		c-0.4,0.3-0.8,0.4-1,0.4c-0.1,0-0.2-0.2-0.2-0.5c-0.1-0.5-0.5-0.9-1.2-1.3l0.1-0.3c0.5,0.1,0.9,0.1,1.2,0.1c0.3,0,0.4-0.2,0.4-0.5
		v-0.9c-0.2,0.1-0.3,0.1-0.5,0.2c-0.1,0-0.2,0.1-0.2,0.2c0,0,0,0.1-0.1,0.2c0,0.1-0.1,0.2-0.2,0.2c-0.2,0-0.4-0.3-0.6-1
		c-0.1-0.2-0.2-0.5-0.3-1c0.7,0,1.3-0.1,1.9-0.1v-1.1c-0.9,0-1.5,0-1.8,0.1l-0.2-0.7c0.5,0.1,1.2,0.1,2.1,0.1v-1.2
		c-0.6,0-1.2,0.1-1.8,0.1v-0.3c0.8-0.2,1.4-0.4,1.7-0.6c0.4-0.2,0.8-0.5,1.3-0.9c0.4,0.3,0.7,0.6,0.9,0.7c0.4,0.3,0.5,0.5,0.5,0.6
		s-0.1,0.2-0.2,0.2L127.6,14.2z M125.5,6.2c0.8,0.2,1.3,0.4,1.6,0.6c0.2,0.2,0.4,0.4,0.4,0.7c0,0.3-0.1,0.6-0.3,0.8l-0.1,0.1h1.3
		c0.2-0.2,0.3-0.5,0.4-0.8c0.2-0.4,0.3-0.9,0.4-1.5c0.4,0.1,0.7,0.2,1,0.3c0.6,0.2,0.9,0.4,0.9,0.5s-0.1,0.2-0.3,0.3
		c-0.2,0-0.3,0.1-0.3,0.3c-0.3,0.3-0.6,0.5-0.8,0.7c-0.2,0.1-0.4,0.2-0.6,0.3h1.1c0,0,0.2-0.2,0.5-0.6c0.3-0.5,0.6-0.7,0.6-0.7
		c0.2,0,0.5,0.2,0.8,0.7c0.4,0.4,0.6,0.7,0.6,0.8c0,0.2-0.1,0.3-0.2,0.3H129v1.3h0.7c0,0,0.2-0.2,0.5-0.6c0.3-0.4,0.5-0.6,0.6-0.6
		c0.2,0,0.4,0.2,0.8,0.6c0.3,0.4,0.5,0.7,0.5,0.8c0,0.2-0.1,0.3-0.2,0.3h-2.8v1.4h1.6c0,0,0.2-0.2,0.5-0.6c0.4-0.5,0.6-0.7,0.6-0.7
		c0.2,0,0.4,0.2,0.8,0.7c0.4,0.4,0.6,0.7,0.6,0.8c0,0.2-0.1,0.3-0.2,0.3h-6.8c-0.9,0-1.5,0-1.9,0.1l-0.2-0.7
		c0.5,0.1,1.2,0.1,2.1,0.1h1.3v-1.6h-0.4c-0.9,0-1.5,0-1.9,0.1l-0.3-0.7c0.5,0.1,1.2,0.2,2.2,0.2h0.4V8.8h-1c-0.9,0-1.5,0-1.9,0.1
		l-0.3-0.7c0.5,0.1,1.2,0.1,2.2,0.1c-0.1-0.1-0.1-0.2-0.1-0.3c-0.1-0.5-0.4-1-0.7-1.5L125.5,6.2z M131.3,15L131.3,15
		c-0.2,0-0.2-0.2-0.3-0.5c-0.1-0.4-0.2-0.8-0.4-1.2c-0.1,0.1-0.2,0.1-0.3,0.2c-0.2,0.1-0.4,0.2-0.4,0.3c0,0.6,0,1.2,0.1,1.7h0.9
		C131,15.5,131.1,15.4,131.3,15L131.3,15z"/>
	<path d="M147.6,5.9c0.6,0.2,1,0.3,1.5,0.5s0.8,0.3,0.8,0.5s-0.2,0.3-0.5,0.3c0,0-0.1,0-0.1,0.1c0.9,0.4,1.8,0.8,2.8,1
		c1.3,0.3,2.5,0.5,3.7,0.6l-0.1,0.4c-0.4,0.2-0.7,0.5-0.9,1c-0.1,0.4-0.2,0.6-0.4,0.6s-0.8-0.2-1.6-0.6c-0.9-0.4-1.7-0.8-2.5-1.4
		c-0.6-0.4-1.1-0.9-1.5-1.3c-0.8,0.8-1.7,1.5-2.7,2c-0.7,0.4-1.4,0.8-2.4,1.2c0.4,0.2,0.9,0.3,1.3,0.6h6.7c0.2-0.3,0.4-0.5,0.6-0.7
		c0.1-0.2,0.3-0.3,0.4-0.3c0.1,0,0.4,0.2,0.9,0.5c0.5,0.4,0.8,0.7,0.8,0.8s-0.1,0.3-0.2,0.5c-0.1,0.1-0.2,0.3-0.2,0.5v0.6
		c0,0.5,0,1.2,0.1,2.2c0,0.2-0.3,0.4-0.8,0.5c-0.2,0-0.4,0.1-0.5,0.1c-0.2,0-0.4-0.1-0.4-0.4h-7.5c0,0.2-0.2,0.3-0.5,0.4
		c0.6,0.2,1.3,0.5,1.9,0.8h4.7c0.2-0.3,0.4-0.5,0.6-0.7c0.2-0.2,0.3-0.3,0.4-0.3c0.1,0,0.4,0.2,0.9,0.5c0.5,0.4,0.8,0.7,0.8,0.8
		c0,0.2-0.1,0.3-0.3,0.5c-0.1,0.1-0.2,0.3-0.2,0.5v0.9c0,0.5,0,1.3,0,2.2c0,0.2-0.3,0.4-0.8,0.5c-0.3,0-0.4,0.1-0.5,0.1
		c-0.3,0-0.4-0.2-0.4-0.5v-0.1H146v0.2c0,0.2-0.2,0.4-0.7,0.5c-0.2,0-0.4,0.1-0.5,0.1c-0.3,0-0.5-0.2-0.5-0.6c0-0.6,0.1-1.1,0.1-1.7
		v-1.2c0-0.8,0-1.5-0.1-2.3l0,0c-0.2,0-0.4,0.1-0.5,0.1c-0.3,0-0.5-0.2-0.5-0.6c0-0.6,0.1-1.1,0.1-1.7v-0.7c0-0.7,0-1.3-0.1-1.9
		c-0.5,0.2-1,0.4-1.5,0.6l-0.2-0.3c1.1-0.6,2.3-1.4,3.5-2.4C145.9,8.2,146.8,7.1,147.6,5.9z M144.8,15h2.9v-3.2h-2.9V15z
		 M145.3,12.2c0.6,0.2,1.1,0.4,1.4,0.6c0.4,0.3,0.6,0.5,0.6,0.7c0,0.4-0.1,0.8-0.4,1c-0.2,0.2-0.4,0.2-0.6,0.2c-0.1,0-0.2,0-0.3-0.1
		s-0.1-0.3-0.2-0.6c-0.1-0.5-0.3-1-0.6-1.7L145.3,12.2z M145.9,18.6h5.5v-1.4h-5.5V18.6z M145.9,20.5h5.5V19h-5.5V20.5z M146.1,9.7
		c0.5,0.1,1.2,0.1,2.1,0.1h0.1c0,0,0.2-0.2,0.5-0.6c0.3-0.5,0.6-0.7,0.6-0.7c0.2,0,0.5,0.2,0.8,0.7c0.4,0.4,0.6,0.7,0.6,0.8
		c0,0.2-0.1,0.3-0.3,0.3h-2.3c-0.9,0-1.5,0-1.9,0.1L146.1,9.7z M149.3,15h3v-3.2h-3V15z M150.1,12c0.4,0.2,0.9,0.4,1.2,0.6
		c0.5,0.2,0.8,0.4,0.8,0.6c0,0.1-0.1,0.2-0.4,0.2c-0.3,0-0.4,0.1-0.4,0.2c-0.4,0.4-0.9,0.8-1.6,1.1l-0.3-0.2
		C149.8,13.8,150,13,150.1,12z"/>
</g>
<g>
	<path d="M50.4,34.2V34c0.4,0,0.5-0.3,0.5-0.9v-4.9c0-0.3,0-0.5-0.1-0.7c-0.1-0.1-0.2-0.2-0.4-0.2v-0.2h2.3v0.2
		c-0.2,0-0.3,0.1-0.4,0.2c-0.1,0.1-0.1,0.4-0.1,0.7v3l1.6-1.5c0.8-0.8,1.3-1.2,1.5-1.4c0.2-0.2,0.3-0.4,0.3-0.6s0-0.2-0.1-0.3
		c-0.1-0.1-0.2-0.1-0.3-0.1v-0.2h2.3v0.2c-0.3,0.1-0.7,0.3-1.2,0.7c-0.2,0.2-0.5,0.4-0.8,0.7l-1.3,1.2l2.2,3c0.5,0.7,0.8,1,1.1,1
		v0.2H55v-0.2c0.1,0,0.2,0,0.3-0.1s0.1-0.1,0.1-0.2c0-0.1,0-0.2-0.1-0.3c0-0.1-0.2-0.3-0.4-0.6l-1.5-2.1l-1.3,1.2v1.4
		c0,0.3,0,0.5,0.1,0.7c0.1,0.1,0.2,0.2,0.4,0.2v0.2h-2.2V34.2z"/>
	<path d="M58,34.2V34c0.2,0,0.3-0.1,0.3-0.2c0.1-0.1,0.1-0.2,0.1-0.5v-2.8c0-0.4-0.2-0.6-0.5-0.6v-0.1c0.5-0.1,0.9-0.3,1.3-0.6h0.2
		v4.2c0,0.2,0,0.4,0.1,0.5s0.2,0.1,0.3,0.1v0.2C59.8,34.2,58,34.2,58,34.2z M58.9,28.5c-0.2,0-0.3-0.1-0.5-0.2
		c-0.1-0.1-0.2-0.3-0.2-0.4c0-0.2,0.1-0.3,0.2-0.4c0.1-0.1,0.3-0.2,0.5-0.2s0.3,0,0.5,0.1c0.1,0.1,0.2,0.3,0.2,0.4
		c0,0.2-0.1,0.3-0.2,0.4C59.3,28.4,59.1,28.5,58.9,28.5z"/>
	<path d="M60.8,34.2V34c0.3,0,0.4-0.2,0.4-0.6v-2.6c0-0.2,0-0.4-0.1-0.4c-0.1-0.1-0.2-0.1-0.4-0.2v-0.1c0.2,0,0.4-0.1,0.7-0.2
		c0.2-0.1,0.4-0.2,0.6-0.4h0.2v0.9l0.2-0.1c0.9-0.5,1.6-0.8,1.9-0.8c0.6,0,0.8,0.3,0.8,0.9v3.1c0,0.2,0,0.4,0.1,0.5s0.2,0.1,0.3,0.1
		v0.2h-1.9v-0.2c0.3,0,0.4-0.2,0.4-0.6v-2.7c0-0.2,0-0.4-0.1-0.5s-0.2-0.2-0.4-0.2c-0.3,0-0.8,0.2-1.4,0.5v2.8c0,0.2,0,0.4,0.1,0.5
		s0.2,0.1,0.3,0.1v0.2C62.5,34.2,60.8,34.2,60.8,34.2z"/>
	<path d="M66.5,34.2V34c0.3,0,0.4-0.2,0.4-0.6v-2.6c0-0.2,0-0.4-0.1-0.4c-0.1-0.1-0.2-0.1-0.4-0.2v-0.1c0.2,0,0.4-0.1,0.7-0.2
		c0.2-0.1,0.4-0.2,0.6-0.4h0.2v0.9l0.2-0.1c0.9-0.5,1.6-0.8,1.9-0.8s0.5,0.1,0.6,0.2s0.2,0.3,0.2,0.5v0.1l0.2-0.1
		c0.9-0.5,1.6-0.8,1.9-0.8s0.5,0.1,0.6,0.2c0.1,0.2,0.2,0.4,0.2,0.7v3.1c0,0.2,0,0.4,0.1,0.5S74,34,74.1,34v0.2h-1.9V34
		c0.3,0,0.4-0.2,0.4-0.6v-2.6c0-0.2,0-0.4-0.1-0.5s-0.2-0.1-0.4-0.1c-0.3,0-0.8,0.2-1.4,0.5v2.8c0,0.2,0,0.4,0.1,0.5
		s0.2,0.1,0.3,0.1v0.2h-1.9v-0.2c0.3,0,0.4-0.2,0.4-0.6v-2.7c0-0.2,0-0.4-0.1-0.5s-0.2-0.2-0.4-0.2c-0.3,0-0.8,0.2-1.4,0.5v2.8
		c0,0.2,0,0.4,0.1,0.5S68,34,68.1,34v0.2C68.1,34.2,66.5,34.2,66.5,34.2z"/>
	<path d="M79.4,33.2l0.2,0.1c-0.6,0.7-1.3,1-2.1,1c-0.7,0-1.3-0.2-1.7-0.7c-0.4-0.5-0.7-1-0.7-1.7c0-0.8,0.2-1.4,0.6-1.8
		c0.4-0.5,1-0.7,1.7-0.7c0.6,0,1.1,0.2,1.4,0.6c0.2,0.2,0.4,0.4,0.5,0.7c0.1,0.3,0.1,0.6,0.1,0.9h-3.3c0,0.7,0.2,1.2,0.5,1.6
		c0.3,0.4,0.8,0.6,1.3,0.6C78.5,33.8,79,33.6,79.4,33.2z M76.1,31.3h1.7c0.2,0,0.4,0,0.4,0c0.2,0,0.2-0.1,0.2-0.2
		c0-0.4-0.1-0.7-0.2-1c-0.2-0.3-0.5-0.4-0.9-0.4C76.5,29.7,76.1,30.2,76.1,31.3L76.1,31.3z"/>
	<path d="M80.4,34.2V34c0.3,0,0.4-0.2,0.4-0.6v-2.6c0-0.2,0-0.4-0.1-0.4c-0.1-0.1-0.2-0.1-0.4-0.2v-0.1c0.2,0,0.4-0.1,0.7-0.2
		c0.2-0.1,0.4-0.2,0.6-0.4h0.2v0.9l0.2-0.1c0.9-0.5,1.6-0.8,1.9-0.8c0.6,0,0.8,0.3,0.8,0.9v3.1c0,0.2,0,0.4,0.1,0.5s0.2,0.1,0.3,0.1
		v0.2h-1.9v-0.2c0.3,0,0.4-0.2,0.4-0.6v-2.7c0-0.2,0-0.4-0.1-0.5s-0.2-0.2-0.4-0.2c-0.3,0-0.8,0.2-1.4,0.5v2.8c0,0.2,0,0.4,0.1,0.5
		S82,34,82.1,34v0.2C82.1,34.2,80.4,34.2,80.4,34.2z"/>
	<path d="M93.6,33.2l0.2,0.1c-0.3,0.3-0.6,0.6-1,0.8c-0.3,0.2-0.7,0.3-1.1,0.3c-0.7,0-1.2-0.2-1.6-0.7c-0.4-0.4-0.6-1-0.6-1.7
		c0-0.8,0.2-1.4,0.7-1.9s1.1-0.7,1.8-0.7c0.4,0,0.7,0.1,1.1,0.2c0.4,0.2,0.6,0.5,0.6,0.8s-0.2,0.4-0.5,0.4s-0.5-0.2-0.6-0.6v-0.1
		c0-0.2-0.1-0.3-0.3-0.4c-0.1-0.1-0.3-0.1-0.5-0.1c-0.5,0-0.8,0.2-1,0.6c-0.2,0.3-0.3,0.7-0.3,1.2c0,0.6,0.1,1.1,0.4,1.5
		c0.3,0.7,0.7,0.9,1.3,0.9C92.7,33.8,93.2,33.6,93.6,33.2z"/>
	<path d="M96.9,34.4c-0.7,0-1.3-0.2-1.8-0.7s-0.7-1.1-0.7-1.8c0-0.7,0.2-1.3,0.7-1.8s1.1-0.7,1.8-0.7c0.7,0,1.3,0.2,1.8,0.7
		s0.7,1,0.7,1.8c0,0.7-0.2,1.3-0.7,1.8C98.3,34.1,97.7,34.4,96.9,34.4z M96.9,34.1c0.9,0,1.3-0.7,1.3-2.2s-0.4-2.2-1.3-2.2
		s-1.3,0.7-1.3,2.2C95.6,33.4,96.1,34.1,96.9,34.1z"/>
	<path d="M103.6,34.2v-0.8c-0.7,0.4-1.2,0.7-1.4,0.7c-0.3,0.1-0.5,0.2-0.7,0.2c-0.3,0-0.5-0.1-0.6-0.2c-0.2-0.2-0.2-0.4-0.2-0.7
		v-2.8c0-0.2,0-0.4-0.1-0.4c-0.1-0.1-0.2-0.1-0.4-0.2v-0.1c0.2,0,0.5-0.1,0.7-0.2c0.1-0.1,0.2-0.1,0.2-0.1c0.1-0.1,0.2-0.2,0.4-0.3
		h0.2v3.8c0,0.2,0,0.4,0.1,0.5s0.2,0.1,0.4,0.1c0.3,0,0.8-0.1,1.4-0.4v-2.5c0-0.2,0-0.4-0.1-0.6c-0.1-0.1-0.2-0.2-0.4-0.2v-0.2
		c0.2-0.1,0.3-0.1,0.4-0.1c0.2-0.1,0.5-0.2,0.7-0.3c0,0,0.1-0.1,0.3-0.2h0.2v4c0,0.3,0,0.4,0.1,0.5c0.1,0.2,0.2,0.2,0.4,0.3v0.2
		C105.2,34.2,103.6,34.2,103.6,34.2z"/>
	<path d="M105.9,34.2V34c0.3,0,0.4-0.2,0.4-0.6v-2.6c0-0.2,0-0.4-0.1-0.4c-0.1-0.1-0.2-0.1-0.4-0.2v-0.1c0.2,0,0.4-0.1,0.7-0.2
		c0.2-0.1,0.4-0.2,0.6-0.4h0.2v0.9l0.2-0.1c0.9-0.5,1.6-0.8,1.9-0.8c0.6,0,0.8,0.3,0.8,0.9v3.1c0,0.2,0,0.4,0.1,0.5s0.2,0.1,0.3,0.1
		v0.2h-1.9v-0.2c0.3,0,0.4-0.2,0.4-0.6v-2.7c0-0.2,0-0.4-0.1-0.5s-0.2-0.2-0.4-0.2c-0.3,0-0.8,0.2-1.4,0.5v2.8c0,0.2,0,0.4,0.1,0.5
		s0.2,0.1,0.3,0.1v0.2C107.6,34.2,105.9,34.2,105.9,34.2z"/>
	<path d="M112.2,29.9h-0.7v-0.2c0.4-0.2,0.7-0.5,0.9-0.8c0.2-0.3,0.4-0.8,0.5-1.3h0.3v2h1v0.3h-1v3.2c0,0.4,0.1,0.7,0.4,0.7
		c0.2,0,0.3-0.1,0.4-0.2l0.2,0.1c-0.2,0.4-0.6,0.7-1.2,0.7s-0.9-0.3-0.9-0.9L112.2,29.9L112.2,29.9z"/>
	<path d="M116.9,34.2l-1.6-3.8c-0.1-0.2-0.2-0.4-0.3-0.5c-0.1-0.1-0.2-0.2-0.3-0.2v-0.2h1.9v0.2c-0.2,0-0.3,0.1-0.3,0.3v0.1l1.1,3
		l0.9-2.4v-0.1c0-0.1,0-0.1,0-0.1s0-0.1,0-0.3c0-0.3-0.1-0.4-0.4-0.5v-0.2h1.6v0.2c-0.2,0-0.3,0.2-0.5,0.4c-0.2,0.2-0.3,0.5-0.5,0.9
		l-1.6,3.7c-0.3,0.6-0.5,1.1-0.8,1.3c-0.2,0.2-0.5,0.4-0.8,0.4c-0.4,0-0.7-0.2-0.7-0.5c0-0.1,0.1-0.2,0.2-0.3s0.2-0.1,0.4-0.1h0.1
		c0,0,0.1,0,0.2,0.1c0.2,0.1,0.3,0.1,0.3,0.1c0.1,0,0.3-0.1,0.4-0.3c0.1-0.1,0.2-0.2,0.2-0.3c0.1-0.1,0.1-0.3,0.2-0.5L116.9,34.2z"
		/>
	<path d="M127.5,33.2l0.2,0.1c-0.3,0.3-0.6,0.6-1,0.8c-0.3,0.2-0.7,0.3-1.1,0.3c-0.7,0-1.2-0.2-1.6-0.7c-0.4-0.4-0.6-1-0.6-1.7
		c0-0.8,0.2-1.4,0.7-1.9s1.1-0.7,1.8-0.7c0.4,0,0.7,0.1,1.1,0.2c0.4,0.2,0.6,0.5,0.6,0.8s-0.2,0.4-0.5,0.4s-0.5-0.2-0.6-0.6v-0.1
		c0-0.2-0.1-0.3-0.3-0.4c-0.1-0.1-0.3-0.1-0.5-0.1c-0.5,0-0.8,0.2-1,0.6c-0.2,0.3-0.3,0.7-0.3,1.2c0,0.6,0.1,1.1,0.4,1.5
		c0.3,0.5,0.8,0.7,1.3,0.7C126.7,33.8,127.1,33.6,127.5,33.2z"/>
	<path d="M130.9,34.4c-0.7,0-1.3-0.2-1.8-0.7s-0.7-1.1-0.7-1.8c0-0.7,0.2-1.3,0.7-1.8s1.1-0.7,1.8-0.7s1.3,0.2,1.8,0.7
		s0.7,1,0.7,1.8c0,0.7-0.2,1.3-0.7,1.8C132.2,34.1,131.6,34.4,130.9,34.4z M130.9,34.1c0.9,0,1.3-0.7,1.3-2.2s-0.4-2.2-1.3-2.2
		c-0.9,0-1.3,0.7-1.3,2.2S130,34.1,130.9,34.1z"/>
	<path d="M137.6,34.2v-0.8c-0.7,0.4-1.2,0.7-1.4,0.7c-0.3,0.1-0.5,0.2-0.7,0.2c-0.3,0-0.5-0.1-0.6-0.2c-0.2-0.2-0.2-0.4-0.2-0.7
		v-2.8c0-0.2,0-0.4-0.1-0.4c-0.1-0.1-0.2-0.1-0.4-0.2v-0.1c0.2,0,0.5-0.1,0.7-0.2c0.1-0.1,0.2-0.1,0.2-0.1c0.1-0.1,0.2-0.2,0.4-0.3
		h0.2v3.8c0,0.2,0,0.4,0.1,0.5s0.2,0.1,0.4,0.1c0.3,0,0.8-0.1,1.4-0.4v-2.5c0-0.2,0-0.4-0.1-0.6c-0.1-0.1-0.2-0.2-0.4-0.2v-0.2
		c0.2-0.1,0.3-0.1,0.4-0.1c0.2-0.1,0.5-0.2,0.7-0.3c0,0,0.1-0.1,0.3-0.2h0.2v4c0,0.3,0,0.4,0.1,0.5c0.1,0.2,0.2,0.2,0.4,0.3v0.2
		C139.2,34.2,137.6,34.2,137.6,34.2z"/>
	<path d="M139.8,34.2V34c0.3,0,0.4-0.2,0.4-0.6v-2.6c0-0.2,0-0.4-0.1-0.4c-0.1-0.1-0.2-0.1-0.4-0.2v-0.1c0.2,0,0.4-0.1,0.7-0.2
		c0.2-0.1,0.4-0.2,0.6-0.4h0.2v0.9l0.2-0.1c0.9-0.5,1.6-0.8,1.9-0.8c0.6,0,0.8,0.3,0.8,0.9v3.1c0,0.2,0,0.4,0.1,0.5s0.2,0.1,0.3,0.1
		v0.2h-1.9v-0.2c0.3,0,0.4-0.2,0.4-0.6v-2.7c0-0.2,0-0.4-0.1-0.5s-0.2-0.2-0.4-0.2c-0.3,0-0.8,0.2-1.4,0.5v2.8c0,0.2,0,0.4,0.1,0.5
		s0.2,0.1,0.3,0.1v0.2C141.5,34.2,139.8,34.2,139.8,34.2z"/>
	<path d="M149.7,33.2l0.2,0.1c-0.3,0.3-0.6,0.6-1,0.8c-0.3,0.2-0.7,0.3-1.1,0.3c-0.7,0-1.2-0.2-1.6-0.7c-0.4-0.4-0.6-1-0.6-1.7
		c0-0.8,0.2-1.4,0.7-1.9s1.1-0.7,1.8-0.7c0.4,0,0.7,0.1,1.1,0.2c0.4,0.2,0.6,0.5,0.6,0.8s-0.2,0.4-0.5,0.4s-0.5-0.2-0.6-0.6v-0.1
		c0-0.2-0.1-0.3-0.3-0.4c-0.1-0.1-0.3-0.1-0.5-0.1c-0.5,0-0.8,0.2-1,0.6c-0.2,0.3-0.3,0.7-0.3,1.2c0,0.6,0.1,1.1,0.4,1.5
		c0.3,0.5,0.8,0.7,1.3,0.7C148.8,33.8,149.3,33.6,149.7,33.2z"/>
	<path d="M150.6,34.2V34c0.2,0,0.3-0.1,0.3-0.2c0.1-0.1,0.1-0.2,0.1-0.5v-2.8c0-0.4-0.2-0.6-0.5-0.6v-0.1c0.5-0.1,0.9-0.3,1.3-0.6
		h0.2v4.2c0,0.2,0,0.4,0.1,0.5s0.2,0.1,0.3,0.1v0.2C152.4,34.2,150.6,34.2,150.6,34.2z M151.5,28.5c-0.2,0-0.3-0.1-0.5-0.2
		c-0.1-0.1-0.2-0.3-0.2-0.4c0-0.2,0.1-0.3,0.2-0.4c0.1-0.1,0.3-0.2,0.5-0.2s0.4,0,0.5,0.1s0.2,0.3,0.2,0.4c0,0.2-0.1,0.3-0.2,0.4
		C151.9,28.4,151.7,28.5,151.5,28.5z"/>
	<path d="M153.4,34.2V34c0.3,0,0.4-0.2,0.4-0.6v-5c0-0.2,0-0.3-0.1-0.4s-0.2-0.2-0.4-0.2v-0.1c0.2,0,0.5-0.1,0.7-0.2
		c0.1,0,0.2-0.1,0.3-0.2s0.2-0.1,0.3-0.2h0.2v6.4c0,0.2,0,0.4,0.1,0.5s0.2,0.2,0.3,0.2v0.2h-1.8V34.2z"/>
</g>
</svg>
