<?xml version="1.0" encoding="utf-8"?>
<!-- Generator: Adobe Illustrator 25.4.1, SVG Export Plug-In . SVG Version: 6.00 Build 0)  -->
<svg version="1.1" id="圖層_1" xmlns="http://www.w3.org/2000/svg" xmlns:xlink="http://www.w3.org/1999/xlink" x="0px" y="0px"
	 viewBox="0 0 100 100" style="enable-background:new 0 0 100 100;" xml:space="preserve">
<style type="text/css">
	.st0{fill:#FFFFFF;}
</style>
<g>
	<path class="st0" d="M50.7,75.4h-2.7c-0.5,0-1-0.4-1-1c0-0.6,0.4-1,1-1h1.8v-2.1c0-0.6,0.4-1,1-1h1.8c0.5,0,0.9-0.4,0.9-0.9v-8.6
		c0-1.5-1.2-2.8-2.7-2.8h-1.3l-3.7,1.8c-0.3,0.1-0.6,0.1-0.8,0l-3.7-1.8h-1.3c-1.5,0-2.7,1.2-2.7,2.8v8.6c0,0.5,0.4,0.9,0.9,0.9h1.8
		c0.5,0,1,0.4,1,1v2.1H44c0.5,0,1,0.4,1,1c0,0.6-0.4,1-1,1h-4.3c-0.5,0-1-0.4-1-1v-2.1H38c-1.5,0-2.8-1.3-2.8-2.9v-8.6
		c0-2.6,2.1-4.8,4.6-4.8h1.5c0.1,0,0.3,0,0.4,0.1l3.5,1.7l3.5-1.7c0.1-0.1,0.3-0.1,0.4-0.1h1.5c2.5,0,4.6,2.1,4.6,4.8v8.6
		c0,1.6-1.3,2.9-2.8,2.9h-0.8v2.1C51.6,75,51.2,75.4,50.7,75.4z"/>
	<path class="st0" d="M39.7,72.3c-0.5,0-1-0.4-1-1v-8.7c0-0.6,0.4-1,1-1c0.5,0,1,0.4,1,1v8.7C40.7,71.9,40.3,72.3,39.7,72.3z"/>
	<path class="st0" d="M50.7,72.3c-0.5,0-1-0.4-1-1v-8.7c0-0.6,0.4-1,1-1c0.5,0,1,0.4,1,1v8.7C51.6,71.9,51.2,72.3,50.7,72.3z"/>
	<path class="st0" d="M45.2,55.2c-2.8,0-5.1-2.4-5.1-5.3s2.3-5.3,5.1-5.3s5.1,2.4,5.1,5.3S48,55.2,45.2,55.2z M45.2,46.7
		c-1.7,0-3.2,1.5-3.2,3.3c0,1.8,1.4,3.3,3.2,3.3c1.7,0,3.2-1.5,3.2-3.3C48.4,48.1,46.9,46.7,45.2,46.7z"/>
	<path class="st0" d="M62.3,80H28.1c-0.5,0-1-0.4-1-1V30.9c0-0.6,0.4-1,1-1h25.4c0.3,0,0.5,0.1,0.7,0.3l8.8,9.1
		c0.2,0.2,0.3,0.4,0.3,0.7v39C63.2,79.6,62.8,80,62.3,80z M29.1,78h32.2V40.4l-8.2-8.5h-24V78z"/>
	<path class="st0" d="M62.3,41h-8.8c-0.5,0-1-0.4-1-1v-9.1c0-0.4,0.2-0.8,0.6-0.9c0.4-0.2,0.8-0.1,1.1,0.2l8.8,9.1
		c0.3,0.3,0.4,0.7,0.2,1.1C63,40.7,62.7,41,62.3,41z M54.5,39h5.5l-5.5-5.6V39z"/>
	<path class="st0" d="M66.1,75h-3.8c-0.5,0-1-0.4-1-1c0-0.6,0.4-1,1-1h2.8V35.4L56.9,27h-24v3.9c0,0.6-0.4,1-1,1c-0.5,0-1-0.4-1-1
		v-5c0-0.6,0.4-1,1-1h25.4c0.3,0,0.5,0.1,0.7,0.3l8.8,9.1c0.2,0.2,0.3,0.4,0.3,0.7v39C67,74.6,66.6,75,66.1,75z"/>
	<path class="st0" d="M66.1,36h-4.5c-0.5,0-1-0.4-1-1c0-0.6,0.4-1,1-1h2.2l-5.5-5.6v2.3c0,0.6-0.4,1-1,1c-0.5,0-1-0.4-1-1V26
		c0-0.4,0.2-0.8,0.6-0.9c0.4-0.2,0.8-0.1,1.1,0.2l8.8,9.1c0.3,0.3,0.4,0.7,0.2,1.1C66.8,35.8,66.5,36,66.1,36z"/>
	<path class="st0" d="M69.9,70.1h-3.8c-0.5,0-1-0.4-1-1c0-0.6,0.4-1,1-1h2.8V30.5L60.7,22h-24V26c0,0.6-0.4,1-1,1c-0.5,0-1-0.4-1-1
		v-5c0-0.6,0.4-1,1-1h25.4c0.3,0,0.5,0.1,0.7,0.3l8.8,9.1c0.2,0.2,0.3,0.4,0.3,0.7v39C70.8,69.6,70.4,70.1,69.9,70.1z"/>
	<path class="st0" d="M69.9,31.1h-4.5c-0.5,0-1-0.4-1-1c0-0.6,0.4-1,1-1h2.1l-5.5-5.6v2.1c0,0.6-0.4,1-1,1c-0.5,0-1-0.4-1-1V21
		c0-0.4,0.2-0.8,0.6-0.9c0.4-0.2,0.8-0.1,1.1,0.2l8.8,9.1c0.3,0.3,0.4,0.7,0.2,1.1C70.6,30.8,70.3,31.1,69.9,31.1z"/>
	<path class="st0" d="M48.6,37.4H32.4c-0.5,0-1-0.4-1-1s0.4-1,1-1h16.2c0.5,0,1,0.4,1,1S49.1,37.4,48.6,37.4z"/>
	<path class="st0" d="M48.6,42.1H32.4c-0.5,0-1-0.4-1-1c0-0.6,0.4-1,1-1h16.2c0.5,0,1,0.4,1,1C49.6,41.7,49.1,42.1,48.6,42.1z"/>
</g>
</svg>
