<?xml version="1.0" encoding="utf-8"?>
<!-- Generator: Adobe Illustrator 25.4.1, SVG Export Plug-In . SVG Version: 6.00 Build 0)  -->
<svg version="1.1" id="圖層_1" xmlns="http://www.w3.org/2000/svg" xmlns:xlink="http://www.w3.org/1999/xlink" x="0px" y="0px"
	 viewBox="0 0 100 100" style="enable-background:new 0 0 100 100;" xml:space="preserve">
<style type="text/css">
	.st0{fill:#FFFFFF;}
</style>
<g>
	<path class="st0" d="M62.5,73.7H37c-0.6,0-1.1-0.5-1.1-1.1V29.2c0-3.8-3.1-6.8-6.8-6.8s-6.8,3.1-6.8,6.8c0,3.8,3.1,6.8,6.8,6.8
		c0.6,0,1.1,0.5,1.1,1.1s-0.5,1.1-1.1,1.1c-5,0-9.1-4.1-9.1-9.1c0-5,4.1-9.1,9.1-9.1s9.1,4.1,9.1,9.1v42.3h24.4
		c0.6,0,1.1,0.5,1.1,1.1C63.6,73.2,63.1,73.7,62.5,73.7"/>
	<path class="st0" d="M29.1,34.1c-2.7,0-4.9-2.2-4.9-4.9c0-0.6,0.5-1.1,1.1-1.1s1.1,0.5,1.1,1.1c0,1.5,1.2,2.7,2.7,2.7
		c1.5,0,2.7-1.2,2.7-2.7c0-1.5-1.2-2.7-2.7-2.7c-0.6,0-1.1-0.5-1.1-1.1s0.5-1.1,1.1-1.1c2.7,0,4.9,2.2,4.9,4.9
		C34,31.9,31.8,34.1,29.1,34.1"/>
	<path class="st0" d="M78.7,79.8H23.6c-0.6,0-1.1-0.5-1.1-1.1c0-0.6,0.5-1.1,1.1-1.1h55.1c0.6,0,1.1,0.5,1.1,1.1
		C79.8,79.3,79.3,79.8,78.7,79.8"/>
	<path class="st0" d="M73.2,63.5c-0.6,0-1.1-0.5-1.1-1.1V29.2c0-3.8-3.1-6.8-6.8-6.8H29.1c-0.6,0-1.1-0.5-1.1-1.1
		c0-0.6,0.5-1.1,1.1-1.1h36.2c5,0,9.1,4.1,9.1,9.1v33.1C74.3,63,73.8,63.5,73.2,63.5"/>
	<path class="st0" d="M73.2,79.8H29.1c-0.6,0-1.1-0.5-1.1-1.1V37.2c0-0.6,0.5-1.1,1.1-1.1c0.6,0,1.1,0.5,1.1,1.1v40.5h43
		c0.6,0,1.1,0.5,1.1,1.1C74.3,79.3,73.8,79.8,73.2,79.8"/>
	<path class="st0" d="M55.1,66.2c-2.9,0-5.8-1.1-8-3.3c-4.4-4.4-4.4-11.5,0-15.9c4.4-4.4,11.5-4.4,15.9,0c4.4,4.4,4.4,11.5,0,15.9
		C60.9,65.1,58,66.2,55.1,66.2 M55.1,45.9c-2.3,0-4.6,0.9-6.4,2.7c-3.5,3.5-3.5,9.3,0,12.8c3.5,3.5,9.3,3.5,12.8,0
		c3.5-3.5,3.5-9.3,0-12.8C59.7,46.7,57.4,45.9,55.1,45.9"/>
	<path class="st0" d="M59.2,51.9c-0.3,0-0.6-0.1-0.8-0.3c-1.8-1.8-4.8-1.8-6.7,0c-0.4,0.4-1.1,0.4-1.6,0c-0.4-0.4-0.4-1.1,0-1.6
		c2.7-2.7,7.1-2.7,9.8,0c0.4,0.4,0.4,1.1,0,1.6C59.8,51.8,59.5,51.9,59.2,51.9"/>
	<path class="st0" d="M66.5,67.4c-0.3,0-0.6-0.1-0.8-0.3l-4.2-4.2c-0.4-0.4-0.4-1.1,0-1.6c0.4-0.4,1.1-0.4,1.6,0l4.2,4.2
		c0.4,0.4,0.4,1.1,0,1.6C67,67.3,66.8,67.4,66.5,67.4"/>
	<path class="st0" d="M74.9,79.8c-0.5,0-0.9-0.2-1.3-0.5L64,69.7c-0.3-0.3-0.5-0.8-0.5-1.3c0-0.5,0.2-0.9,0.5-1.3l3.3-3.3
		c0.7-0.7,1.9-0.7,2.6,0l9.6,9.6c0.7,0.7,0.7,1.9,0,2.6l-3.3,3.3C75.8,79.7,75.3,79.8,74.9,79.8 M65.9,68.5l9,9l2.7-2.7l-9-9
		L65.9,68.5z"/>
	<path class="st0" d="M44.3,50.5c-0.6,0-1.1-0.5-1.1-1.1V33.9c0-0.6,0.5-1.1,1.1-1.1c0.6,0,1.1,0.5,1.1,1.1v15.5
		C45.4,50,44.9,50.5,44.3,50.5"/>
	<path class="st0" d="M49.7,47.4c-0.6,0-1.1-0.5-1.1-1.1v-9.8c0-0.6,0.5-1.1,1.1-1.1c0.6,0,1.1,0.5,1.1,1.1v9.8
		C50.8,46.9,50.4,47.4,49.7,47.4"/>
	<path class="st0" d="M55.2,45.9c-0.6,0-1.1-0.5-1.1-1.1V33.3c0-0.6,0.5-1.1,1.1-1.1c0.6,0,1.1,0.5,1.1,1.1v11.5
		C56.3,45.4,55.8,45.9,55.2,45.9"/>
	<path class="st0" d="M60.6,47.5c-0.6,0-1.1-0.5-1.1-1.1V30.9c0-0.6,0.5-1.1,1.1-1.1s1.1,0.5,1.1,1.1v15.5
		C61.8,47,61.3,47.5,60.6,47.5"/>
	<path class="st0" d="M66.1,50.5c-0.6,0-1.1-0.5-1.1-1.1V27.6c0-0.6,0.5-1.1,1.1-1.1c0.6,0,1.1,0.5,1.1,1.1v21.8
		C67.2,50,66.7,50.5,66.1,50.5"/>
	<path class="st0" d="M67.5,50.5h-3.9c-0.6,0-1.1-0.5-1.1-1.1c0-0.6,0.5-1.1,1.1-1.1h3.9c0.6,0,1.1,0.5,1.1,1.1
		C68.6,50,68.1,50.5,67.5,50.5"/>
	<path class="st0" d="M46.5,50.5h-4.1c-0.6,0-1.1-0.5-1.1-1.1c0-0.6,0.5-1.1,1.1-1.1h4.1c0.6,0,1.1,0.5,1.1,1.1
		C47.6,50,47.1,50.5,46.5,50.5"/>
</g>
</svg>
