<?xml version="1.0" encoding="utf-8"?>
<!-- Generator: Adobe Illustrator 25.4.1, SVG Export Plug-In . SVG Version: 6.00 Build 0)  -->
<svg version="1.1" id="圖層_1" xmlns="http://www.w3.org/2000/svg" xmlns:xlink="http://www.w3.org/1999/xlink" x="0px" y="0px"
	 viewBox="0 0 100 100" style="enable-background:new 0 0 100 100;" xml:space="preserve">
<style type="text/css">
	.st0{fill:#FFFFFF;}
</style>
<g>
	<path class="st0" d="M57.2,80c-0.1,0-0.3,0-0.4-0.1c-0.3-0.2-0.5-0.5-0.5-0.9v-7.6c0-0.5,0.4-1,1-1h10.3c0.4,0,0.8,0.3,0.9,0.7
		c0.1,0.4,0,0.8-0.3,1.1l-10.3,7.6C57.6,79.9,57.4,80,57.2,80 M58.2,72.4v4.7l6.4-4.7H58.2z"/>
	<path class="st0" d="M33.5,50.2c-0.5,0-1-0.4-1-1v-3.8c0-0.5,0.4-1,1-1c0.5,0,1,0.4,1,1v3.8C34.5,49.7,34,50.2,33.5,50.2"/>
	<path class="st0" d="M42.6,50.2c-0.5,0-1-0.4-1-1v-3.8c0-0.5,0.4-1,1-1s1,0.4,1,1v3.8C43.6,49.7,43.2,50.2,42.6,50.2"/>
	<path class="st0" d="M37.9,37.9c-1,0-2.5-0.5-3.6-2.6c-0.6-1.1-0.9-2.4-0.9-3.7v-0.1c0-1.2,0.6-2.2,1.6-2.8c0.7-0.4,1.7-0.8,3-0.8
		c1,0,2.1,0.4,3.2,1c0.9,0.6,1.4,1.6,1.4,2.7c0,1.4-0.3,2.7-0.9,3.8C40.6,37.6,39.1,38,37.9,37.9C38,37.9,38,37.9,37.9,37.9
		 M38.1,29.9c-0.8,0-1.6,0.3-2,0.6c-0.4,0.2-0.6,0.6-0.6,1.1v0.1c0,1,0.2,2,0.7,2.8c0.6,1,1.2,1.6,2,1.5c0.8,0,1.5-0.5,2-1.5
		c0.4-0.8,0.7-1.8,0.7-2.8c0-0.4-0.2-0.8-0.5-1C39.7,30.3,38.9,29.9,38.1,29.9"/>
	<path class="st0" d="M46.5,50.2H29.7c-0.5,0-1-0.4-1-1v-4.8c0-2.6,2.2-4.8,4.8-4.8h9.1c2.6,0,4.8,2.1,4.8,4.8v4.8
		C47.4,49.7,47,50.2,46.5,50.2 M30.7,48.2h14.8v-3.8c0-1.6-1.3-2.8-2.8-2.8h-9.1c-1.6,0-2.8,1.3-2.8,2.8V48.2z"/>
	<path class="st0" d="M49.6,50.2H26.5c-0.5,0-1-0.4-1-1V24.8c0-0.5,0.4-1,1-1h23.1c0.5,0,1,0.4,1,1v15.8c0,0.5-0.4,1-1,1
		c-0.5,0-1-0.4-1-1V25.7H27.5v22.5h21.1v-2.8c0-0.5,0.4-1,1-1c0.5,0,1,0.4,1,1v3.7C50.6,49.7,50.2,50.2,49.6,50.2"/>
	<path class="st0" d="M42.4,53.8h-7.3c-0.5,0-1-0.4-1-1c0-0.5,0.4-1,1-1h7.3c0.5,0,1,0.4,1,1C43.3,53.4,42.9,53.8,42.4,53.8"/>
	<path class="st0" d="M46.5,58H31c-0.5,0-1-0.4-1-1c0-0.5,0.4-1,1-1h15.5c0.5,0,1,0.4,1,1C47.4,57.6,47,58,46.5,58"/>
	<path class="st0" d="M46.5,62.3H31c-0.5,0-1-0.4-1-1c0-0.5,0.4-1,1-1h15.5c0.5,0,1,0.4,1,1C47.4,61.8,47,62.3,46.5,62.3"/>
	<path class="st0" d="M46.5,66.5H31c-0.5,0-1-0.4-1-1c0-0.5,0.4-1,1-1h15.5c0.5,0,1,0.4,1,1C47.4,66,47,66.5,46.5,66.5"/>
	<path class="st0" d="M46.5,70.7H31c-0.5,0-1-0.4-1-1c0-0.5,0.4-1,1-1h15.5c0.5,0,1,0.4,1,1C47.4,70.3,47,70.7,46.5,70.7"/>
	<path class="st0" d="M57.2,80H26.5c-0.5,0-1-0.4-1-1V24.8c0-0.5,0.4-1,1-1h35.2c0.5,0,1,0.4,1,1c0,0.5-0.4,1-1,1H27.5v52.3h29.4
		l9.7-7.1V52.8c0-0.5,0.4-1,1-1c0.5,0,1,0.4,1,1v18.6c0,0.3-0.1,0.6-0.4,0.8l-10.3,7.6C57.6,79.9,57.4,80,57.2,80"/>
	<path class="st0" d="M30.4,25.7c-0.5,0-1-0.4-1-1V21c0-0.5,0.4-1,1-1h41c0.5,0,1,0.4,1,1c0,0.5-0.4,1-1,1H31.4v2.8
		C31.4,25.3,31,25.7,30.4,25.7"/>
	<path class="st0" d="M71.5,68.6h-3.9c-0.5,0-1-0.4-1-1c0-0.5,0.4-1,1-1h2.9V45.8c0-0.5,0.4-1,1-1s1,0.4,1,1v21.9
		C72.4,68.2,72,68.6,71.5,68.6"/>
	<path class="st0" d="M55.9,62.8c-0.4,0-0.8-0.1-1.2-0.2c-0.9-0.3-1.7-1-2.1-1.9c-0.4-0.9-0.5-1.9-0.2-2.8l10-28.5
		c0.2-0.5,0.7-0.8,1.2-0.6l5,1.8c0.2,0.1,0.4,0.3,0.6,0.5c0.1,0.2,0.1,0.5,0,0.7l-10,28.5C58.8,61.9,57.4,62.8,55.9,62.8 M63.9,31
		l-9.6,27.6c-0.1,0.4-0.1,0.9,0.1,1.3c0.2,0.4,0.5,0.7,1,0.9c0.9,0.3,1.8-0.2,2.1-1l9.6-27.6L63.9,31z"/>
	<path class="st0" d="M54.1,65.2c-0.1,0-0.2,0-0.3-0.1c-0.5-0.2-0.8-0.7-0.6-1.2l0.9-2.5c0.2-0.5,0.7-0.8,1.2-0.6
		c0.5,0.2,0.8,0.7,0.6,1.2L55,64.6C54.9,65,54.5,65.2,54.1,65.2"/>
	<path class="st0" d="M67.5,32.2c-0.1,0-0.2,0-0.3-0.1L63.9,31c-0.5-0.2-0.8-0.7-0.6-1.2l1.2-3.5c0.5-1.4,2-2.1,3.4-1.7
		c0.7,0.2,1.2,0.7,1.5,1.4c0.3,0.7,0.4,1.4,0.1,2.1l-1.2,3.5c-0.1,0.2-0.3,0.4-0.5,0.6C67.8,32.2,67.6,32.2,67.5,32.2 M65.5,29.5
		l1.4,0.5l0.9-2.6c0.1-0.2,0.1-0.4,0-0.6c-0.1-0.2-0.2-0.3-0.4-0.4c-0.4-0.1-0.8,0.1-1,0.5L65.5,29.5z"/>
	<path class="st0" d="M67.4,47.6c-0.1,0-0.2,0-0.3-0.1c-0.5-0.2-0.8-0.7-0.6-1.2l2.2-6.3c0.3-0.8,0.2-1.6-0.1-2.3
		c-0.4-0.7-1-1.3-1.8-1.6c-0.5-0.2-0.8-0.7-0.6-1.2c0.2-0.5,0.7-0.8,1.2-0.6c1.3,0.4,2.3,1.3,2.9,2.6c0.6,1.2,0.7,2.6,0.2,3.8
		l-2.2,6.3C68.1,47.3,67.8,47.6,67.4,47.6"/>
	<path class="st0" d="M59.2,58.6c-0.1,0-0.2,0-0.3-0.1l-5-1.8c-0.5-0.2-0.8-0.7-0.6-1.2c0.2-0.5,0.7-0.8,1.2-0.6l5,1.8
		c0.5,0.2,0.8,0.7,0.6,1.2C60,58.4,59.6,58.6,59.2,58.6"/>
</g>
</svg>
