<?xml version="1.0" encoding="utf-8"?>
<!-- Generator: Adobe Illustrator 25.4.1, SVG Export Plug-In . SVG Version: 6.00 Build 0)  -->
<svg version="1.1" id="圖層_1" xmlns="http://www.w3.org/2000/svg" xmlns:xlink="http://www.w3.org/1999/xlink" x="0px" y="0px"
	 viewBox="0 0 100 100" style="enable-background:new 0 0 100 100;" xml:space="preserve">
<style type="text/css">
	.st0{fill:#FFFFFF;}
</style>
<g>
	<path class="st0" d="M78.9,80.7H21.1c-0.6,0-1.1-0.5-1.1-1.1V35c0-0.3,0.1-0.6,0.4-0.8l16-14.6c0.2-0.2,0.4-0.3,0.7-0.3h25
		c0.6,0,1.1,0.5,1.1,1.1v11.3c0,0.6-0.5,1.1-1.1,1.1c-0.6,0-1.1-0.5-1.1-1.1V21.5H37.5l-15.4,14v43h56.8c0.6,0,1.1,0.5,1.1,1.1
		C80,80.2,79.5,80.7,78.9,80.7z"/>
	<path class="st0" d="M49.8,28.6H37.1c-0.6,0-1.1-0.5-1.1-1.1c0-0.6,0.5-1.1,1.1-1.1h12.8c0.6,0,1.1,0.5,1.1,1.1
		C50.9,28.1,50.4,28.6,49.8,28.6z"/>
	<path class="st0" d="M41.5,34.5h-4.4c-0.6,0-1.1-0.5-1.1-1.1c0-0.6,0.5-1.1,1.1-1.1h4.4c0.6,0,1.1,0.5,1.1,1.1
		C42.5,34,42,34.5,41.5,34.5z"/>
	<path class="st0" d="M41.5,40.4H26.8c-0.6,0-1.1-0.5-1.1-1.1c0-0.6,0.5-1.1,1.1-1.1h14.7c0.6,0,1.1,0.5,1.1,1.1
		C42.5,39.9,42,40.4,41.5,40.4z"/>
	<path class="st0" d="M41.5,46.3H26.8c-0.6,0-1.1-0.5-1.1-1.1c0-0.6,0.5-1.1,1.1-1.1h14.7c0.6,0,1.1,0.5,1.1,1.1
		C42.5,45.8,42,46.3,41.5,46.3z"/>
	<path class="st0" d="M41.5,52.2H26.8c-0.6,0-1.1-0.5-1.1-1.1c0-0.6,0.5-1.1,1.1-1.1h14.7c0.6,0,1.1,0.5,1.1,1.1
		C42.5,51.7,42,52.2,41.5,52.2z"/>
	<path class="st0" d="M56.3,58H26.8c-0.6,0-1.1-0.5-1.1-1.1s0.5-1.1,1.1-1.1h29.5c0.6,0,1.1,0.5,1.1,1.1S56.9,58,56.3,58z"/>
	<path class="st0" d="M56.3,63.9H26.8c-0.6,0-1.1-0.5-1.1-1.1c0-0.6,0.5-1.1,1.1-1.1h29.5c0.6,0,1.1,0.5,1.1,1.1
		C57.3,63.4,56.9,63.9,56.3,63.9z"/>
	<path class="st0" d="M37.1,36.1h-16c-0.4,0-0.8-0.3-1-0.7c-0.2-0.4,0-0.9,0.3-1.2l16-14.6c0.3-0.3,0.8-0.4,1.1-0.2
		c0.4,0.2,0.6,0.6,0.6,1V35C38.1,35.6,37.7,36.1,37.1,36.1z M23.8,33.9H36V22.8L23.8,33.9z"/>
	<path class="st0" d="M62.4,52.1c-2.7,0-5.4-0.4-7.8-1.1c-0.4-0.1-0.8-0.6-0.8-1V36.7c0-0.5,0.3-0.9,0.8-1c4.7-1.4,10.8-1.4,15.5,0
		c0.4,0.1,0.8,0.6,0.8,1v13.2c0,0.5-0.3,0.9-0.8,1C67.8,51.7,65.1,52.1,62.4,52.1z M56,49.1c4,1,8.9,1,12.8,0V37.5
		c-4-1-8.9-1-12.8,0V49.1z"/>
	<path class="st0" d="M76.6,53.4h-4.4c-1.9,0-3.4-1.6-3.4-3.5V36.7c0-1.9,1.5-3.5,3.4-3.5h4.4c1.9,0,3.4,1.6,3.4,3.5v13.2
		C80,51.9,78.5,53.4,76.6,53.4z M72.2,35.4c-0.7,0-1.3,0.6-1.3,1.3v13.2c0,0.7,0.6,1.3,1.3,1.3h4.4c0.7,0,1.3-0.6,1.3-1.3V36.7
		c0-0.7-0.6-1.3-1.3-1.3H72.2z"/>
	<path class="st0" d="M52.6,53.4h-4.4c-1.9,0-3.4-1.6-3.4-3.5V36.7c0-1.9,1.5-3.5,3.4-3.5h4.4c1.9,0,3.4,1.6,3.4,3.5v13.2
		C56,51.9,54.5,53.4,52.6,53.4z M48.2,35.4c-0.7,0-1.3,0.6-1.3,1.3v13.2c0,0.7,0.6,1.3,1.3,1.3h4.4c0.7,0,1.3-0.6,1.3-1.3V36.7
		c0-0.7-0.6-1.3-1.3-1.3H48.2z"/>
	<path class="st0" d="M62.4,76.3c-1,0-1.9-0.4-2.5-1.1c-0.7-0.7-1-1.7-1-2.7l0.5-18.3c0-0.4,0.2-0.8,0.6-1c0.4-0.2,0.8-0.1,1.1,0.2
		c0.8,0.7,1.9,0.7,2.7,0c0.3-0.3,0.7-0.3,1.1-0.2c0.4,0.2,0.6,0.5,0.6,1L66,72.6c0,1-0.3,1.9-1,2.7C64.3,75.9,63.4,76.3,62.4,76.3z
		 M61.4,56L61,72.6c0,0.4,0.1,0.8,0.4,1.1c0.5,0.6,1.5,0.6,2.1,0c0.3-0.3,0.4-0.7,0.4-1.1L63.4,56C62.8,56.2,62.1,56.2,61.4,56z"/>
	<path class="st0" d="M62.4,56.2c-2.3,0-4.2-2-4.2-4.4c0-0.4,0.1-0.9,0.2-1.3c0.1-0.5,0.6-0.8,1.1-0.8c1.9,0.2,3.9,0.2,5.9,0
		c0.5-0.1,1,0.3,1.1,0.8c0.1,0.4,0.2,0.9,0.2,1.3C66.6,54.2,64.8,56.2,62.4,56.2z M60.3,52c0.1,1.1,1,2,2.1,2c1.1,0,2-0.9,2.1-2
		C63.1,52.1,61.7,52.1,60.3,52z"/>
</g>
</svg>
